<svg width="26" height="26" viewBox="0 0 26 26" fill="#000" xmlns="http://www.w3.org/2000/svg">
<path d="M24.8216 10.3166C24.8216 10.0046 24.7889 9.69674 24.7696 9.38682C24.7561 9.15698 24.7467 8.92662 24.7259 8.69834C24.7051 8.47006 24.6739 8.23034 24.6433 7.99582C24.6433 7.98646 24.6433 7.97658 24.6407 7.96722C24.6188 7.70358 24.6011 7.4389 24.5736 7.17578C24.546 6.91266 24.5081 6.63862 24.4696 6.3703C24.4389 6.14358 24.4056 5.91686 24.3682 5.6943C24.3271 5.4473 24.2777 5.20186 24.2356 4.95486C24.2101 4.8051 24.1961 4.65326 24.1701 4.50298C24.1487 4.3787 24.1181 4.25702 24.0905 4.13326C24.0676 4.02926 24.0442 3.92526 24.0255 3.81658C23.9881 3.6117 23.9615 3.4037 23.9163 3.20038C23.8823 3.06982 23.838 2.94219 23.7837 2.8187C23.7317 2.69598 23.6745 2.57742 23.6189 2.4547C23.5277 2.2577 23.4026 2.07833 23.2491 1.92482C23.0599 1.72949 22.8549 1.55017 22.6361 1.3887C22.4227 1.25268 22.1936 1.14303 21.9538 1.06214C21.8103 1.01326 21.7157 0.991936 21.3038 0.909776C20.7651 0.802656 20.4963 0.748576 20.2591 0.707496C20.0127 0.664336 19.6778 0.608696 19.2826 0.551496C19.1385 0.530696 18.9415 0.505216 18.5473 0.451656C18.2987 0.416816 18.0497 0.380416 17.8006 0.350776C17.4719 0.312816 17.1485 0.272256 16.8209 0.243136C16.3883 0.205349 15.9549 0.172416 15.5209 0.144336C15.2136 0.124056 14.8797 0.103256 14.4476 0.086096C14.4476 0.086096 12.9126 0.024216 11.5309 0.086096L11.2709 0.098056C10.8357 0.116776 10.401 0.132896 9.96625 0.156296C9.75825 0.167216 9.55025 0.190616 9.34537 0.208296C9.17689 0.223896 9.00893 0.239496 8.84097 0.260296C8.53989 0.293576 8.23881 0.327376 7.93825 0.364296C7.69229 0.393936 7.44685 0.426696 7.20089 0.460496C6.97209 0.492216 6.74277 0.524976 6.51449 0.561896C6.25449 0.603496 6.05481 0.643016 5.93417 0.665896C4.48961 0.946696 3.75641 1.09282 3.27281 1.43446C3.01422 1.6111 2.78682 1.82953 2.59993 2.08082C2.47282 2.25806 2.36097 2.44576 2.26557 2.6419C2.18869 2.80918 2.12285 2.98132 2.06849 3.15722C2.0444 3.23241 2.02853 3.31 2.02117 3.38862C1.94213 3.87846 1.89897 3.96686 1.75233 4.8649C1.67849 5.31834 1.63325 5.63866 1.54953 6.23094C1.48713 6.6771 1.45905 6.89602 1.44553 6.9969C1.40757 7.31618 1.37689 7.63598 1.34153 7.95526C1.29317 8.36814 1.24949 8.7805 1.24117 9.1965C1.23493 9.5059 1.20633 9.81582 1.18917 10.1252C1.11533 11.2562 1.15745 12.3883 1.16525 13.5193C1.16525 13.8266 1.19749 14.1329 1.21725 14.4402C1.23129 14.6695 1.24117 14.8993 1.26093 15.1281C1.29265 15.4921 1.32853 15.853 1.36493 16.2149C1.39561 16.503 1.43097 16.7901 1.46893 17.0771C1.50013 17.3236 1.53393 17.569 1.56773 17.8145C1.59841 18.0318 1.62753 18.2492 1.66601 18.465C1.70761 18.6979 1.76065 18.9299 1.80537 19.1628C1.82877 19.2871 1.84177 19.4135 1.86465 19.5377C1.89221 19.6833 1.92705 19.8279 1.95565 19.9735C1.97697 20.0822 1.99361 20.1914 2.01233 20.3011C2.02618 20.4144 2.04596 20.5269 2.07161 20.6381C2.1104 20.7672 2.15711 20.8938 2.21149 21.0171C2.26931 21.1651 2.33725 21.309 2.41481 21.4477C2.60981 21.7701 2.83757 22.0681 3.15997 22.2797C3.29621 22.3852 3.43916 22.4818 3.58793 22.5688C3.81517 22.6874 3.99873 22.7399 4.31593 22.8288C4.44073 22.8642 4.65705 22.9136 4.91445 22.9697C5.00753 22.99 5.10113 23.003 5.19473 23.0181C5.32993 23.0394 5.46565 23.0571 5.60033 23.081C5.73501 23.1049 5.87905 23.1361 6.01633 23.1632C6.12033 23.184 6.22433 23.2084 6.33353 23.224C6.49421 23.2474 6.65593 23.2609 6.81661 23.2849C6.98873 23.3103 7.15981 23.3436 7.33193 23.3727C7.34441 23.3753 7.35689 23.3769 7.36989 23.3785C7.56957 23.3977 7.76925 23.4164 7.96945 23.4372C8.11817 23.4523 8.26689 23.4658 8.41405 23.4892C8.45863 23.5013 8.49692 23.53 8.52117 23.5693C8.7607 23.9412 9.05088 24.2779 9.38333 24.5698C9.59702 24.7592 9.82283 24.9344 10.0593 25.0945C10.2403 25.2177 10.4457 25.3056 10.6365 25.4158C10.8254 25.5222 11.0264 25.6056 11.2351 25.6644C11.3703 25.7044 11.5008 25.7595 11.6355 25.8006C11.7232 25.8266 11.8127 25.8461 11.9033 25.8589C12.0639 25.8833 12.2246 25.9077 12.3869 25.9197C12.6439 25.9456 12.9022 25.9581 13.1606 25.9571C13.4139 25.9488 13.6666 25.9051 13.9188 25.8713C14.0446 25.8569 14.1694 25.835 14.2927 25.8058C14.4377 25.7684 14.5787 25.7153 14.7211 25.6691C14.8335 25.6321 14.9468 25.5963 15.0586 25.5552C15.1401 25.5255 15.2196 25.4908 15.2968 25.4512C15.4138 25.3903 15.5297 25.3274 15.6415 25.2577C15.8235 25.1444 16.0055 25.0289 16.1818 24.9062C16.4455 24.7194 16.6865 24.5025 16.8999 24.2599C17.0435 24.1007 17.1835 23.9383 17.3201 23.7726C17.3799 23.6998 17.4241 23.6166 17.4823 23.5402C17.5083 23.5112 17.544 23.4927 17.5827 23.4882C17.8016 23.4632 18.0211 23.4476 18.24 23.4221C18.4792 23.3935 18.7184 23.3587 18.9571 23.3244C19.1801 23.2927 19.4032 23.2604 19.6258 23.2256C19.8265 23.1939 20.0257 23.1595 20.2253 23.1242C20.4063 23.0919 20.5869 23.0583 20.7672 23.0233C21.0272 22.9713 21.2903 22.9266 21.5498 22.8673C21.7253 22.8324 21.8975 22.7826 22.0646 22.7186C22.2512 22.6343 22.4328 22.5394 22.6085 22.4341C22.8624 22.2852 23.0872 22.0914 23.272 21.8621C23.451 21.6553 23.5997 21.424 23.7135 21.1752C23.7941 20.9937 23.8404 20.8294 23.9262 20.5055C24.0359 20.0895 24.1092 19.7145 24.1602 19.4025C24.2096 19.1004 24.1929 19.1342 24.2746 18.6012C24.3214 18.2939 24.3344 18.2372 24.3812 17.9252C24.4165 17.686 24.4509 17.4479 24.481 17.2081C24.5157 16.9235 24.5483 16.6389 24.5788 16.3543C24.6141 16.022 24.6479 15.6887 24.6781 15.3554C24.7005 15.1042 24.7171 14.8525 24.7337 14.6003C24.754 14.3008 24.7701 14.0003 24.7899 13.7007C24.8715 12.5734 24.8284 11.445 24.8216 10.3166ZM5.55405 5.37658C5.47917 5.22058 5.42249 5.06146 5.44173 4.88102C5.45993 4.4541 5.64973 4.1291 6.04181 3.94502C6.19209 3.87378 6.36109 3.84102 6.52333 3.79578C6.69545 3.7469 6.86861 3.70166 7.04333 3.6585C7.14733 3.63302 7.25133 3.61586 7.35533 3.59142C7.44373 3.57062 7.53161 3.54462 7.61949 3.52174C7.72349 3.49418 7.82749 3.46974 7.92837 3.44062C8.02925 3.4115 8.13377 3.37874 8.24037 3.36054C8.46241 3.32154 8.67509 3.24718 8.91377 3.32518C9.09305 3.37749 9.25914 3.46736 9.40101 3.58882C9.51285 3.68695 9.5974 3.81235 9.64645 3.95282C9.69378 4.07345 9.71999 4.20133 9.72393 4.33086C9.72412 4.48652 9.69391 4.64072 9.63501 4.78482C9.56181 4.92559 9.46588 5.05332 9.35109 5.16286C9.23964 5.26847 9.1007 5.34055 8.95017 5.37086C8.05109 5.64698 7.06777 6.09106 6.31845 5.93974C6.17322 5.91323 6.03478 5.85788 5.91129 5.77698C5.75866 5.67796 5.63531 5.53989 5.55405 5.3771V5.37658ZM6.13957 9.47054C6.06044 9.3967 6.00442 9.3015 5.9783 9.19646C5.95218 9.09143 5.95708 8.98108 5.99241 8.87878C6.04129 8.70874 6.15621 8.6089 6.28361 8.51478C6.34446 8.48034 6.41244 8.46041 6.48225 8.45654C6.63825 8.43262 6.79893 8.42378 6.95545 8.39622C7.15305 8.3619 7.36625 8.34422 7.49313 8.15546C7.5598 8.0488 7.6209 7.93876 7.67617 7.82578C7.78017 7.6313 7.85973 7.4207 7.98817 7.24546C8.13169 7.04838 8.40417 7.00678 8.64649 7.12014C8.84617 7.21374 8.90389 7.39574 8.99177 7.56422C9.09577 7.7587 9.18209 7.96046 9.29441 8.1487C9.33076 8.20697 9.38037 8.25582 9.43921 8.29125C9.49804 8.32668 9.56443 8.34768 9.63293 8.35254C9.85913 8.3801 10.0853 8.4165 10.3089 8.45654C10.5544 8.50022 10.7437 8.63594 10.8045 8.87774C10.8366 8.98787 10.838 9.1047 10.8084 9.21554C10.7787 9.32638 10.7193 9.42698 10.6365 9.50642C10.4655 9.67386 10.2985 9.84546 10.1327 10.0165C10.0552 10.0899 10.008 10.1894 10.0001 10.2958C9.98445 10.5662 10.0333 10.8283 10.0926 11.0893C10.1033 11.1592 10.1085 11.2297 10.1082 11.3004C10.1363 11.5713 9.99641 11.7549 9.77489 11.8693C9.67557 11.9211 9.56077 11.935 9.45197 11.9083C9.25853 11.861 9.10721 11.7429 8.93665 11.6571C8.78741 11.5823 8.63921 11.4954 8.47957 11.4554C8.36705 11.4352 8.25101 11.4514 8.14833 11.5017C7.91433 11.6135 7.70165 11.7705 7.46557 11.874C7.345 11.9254 7.21079 11.9355 7.08389 11.9026C6.95911 11.8775 6.84785 11.8076 6.77119 11.706C6.69452 11.6044 6.65777 11.4782 6.66789 11.3514C6.66789 11.3093 6.64813 11.3041 6.70065 11.1579C6.74381 11.0383 6.74225 10.9026 6.76253 10.7742C6.77605 10.6863 6.79529 10.5995 6.80569 10.5111C6.81913 10.4124 6.8093 10.312 6.77697 10.2178C6.74465 10.1236 6.69073 10.0383 6.61953 9.9687C6.46041 9.80438 6.30077 9.63694 6.13957 9.47106V9.47054ZM19.4089 15.4968C19.3845 15.709 19.3211 15.9175 19.2732 16.1271C19.2384 16.2805 19.2077 16.4349 19.1625 16.5847C19.1261 16.7069 19.0709 16.8239 19.0247 16.9429C18.9685 17.088 18.9207 17.2362 18.8546 17.3782C18.7985 17.5019 18.7343 17.6218 18.6622 17.737C18.5135 17.9772 18.3648 18.2175 18.2051 18.4499C17.9145 18.8669 17.5671 19.2413 17.1729 19.5622C16.8705 19.8074 16.5521 20.0322 16.2198 20.2351C15.9772 20.3789 15.7233 20.5028 15.4606 20.6053C15.2151 20.7041 14.9642 20.789 14.7092 20.8596C14.4866 20.9209 14.261 20.9704 14.0332 21.0078C13.861 21.0359 13.6874 21.0545 13.5132 21.0634C13.2428 21.0811 12.9713 21.0998 12.7004 21.0993C12.4959 21.0976 12.2918 21.0802 12.0899 21.0473C11.8908 21.0161 11.6963 20.9589 11.4992 20.9121C11.3489 20.8767 11.1987 20.844 11.0499 20.8029C10.9361 20.7712 10.8237 20.7317 10.713 20.6885C10.5601 20.6282 10.4072 20.5658 10.258 20.4966C10.1321 20.4384 10.0089 20.3729 9.88825 20.3032C9.71977 20.2054 9.55233 20.1051 9.38957 19.9979C8.95957 19.7188 8.56947 19.3826 8.22997 18.9985C8.04177 18.7914 7.86456 18.5746 7.69905 18.349C7.5417 18.1141 7.39677 17.8711 7.26485 17.621C7.15601 17.4307 7.0596 17.2336 6.97625 17.0308C6.89204 16.8115 6.82119 16.5874 6.76409 16.3595C6.70169 16.1219 6.65333 15.8811 6.60809 15.6393C6.58001 15.4869 6.56857 15.3309 6.55349 15.1755C6.53841 15.02 6.52489 14.8583 6.51449 14.6991C6.49692 14.4444 6.5725 14.192 6.72717 13.9888C6.86653 13.8037 7.05009 13.6498 7.29293 13.6087C7.43929 13.5816 7.58766 13.5668 7.73649 13.5645C9.49167 13.5614 11.2465 13.5614 13.001 13.5645C14.8002 13.5645 16.5999 13.5645 18.4001 13.5645C18.5648 13.5631 18.7274 13.6004 18.8749 13.6735C19.0225 13.7465 19.1507 13.8533 19.2493 13.9852C19.3893 14.1576 19.4646 14.3736 19.462 14.5957C19.4547 14.8952 19.4433 15.1963 19.4089 15.4968ZM19.9965 9.2329C19.9518 9.40138 19.8291 9.50226 19.723 9.6203C19.5837 9.7763 19.4261 9.91618 19.3029 10.0826C19.2634 10.1354 19.2361 10.1963 19.2228 10.2609C19.2087 10.3401 19.2144 10.4216 19.2394 10.4981C19.2914 10.6754 19.3647 10.9369 19.3554 11.1741C19.3512 11.2838 19.3439 11.4731 19.2087 11.6088C19.1356 11.678 19.0462 11.7275 18.9487 11.7528C18.8977 11.765 18.8451 11.7695 18.7927 11.7663C18.6849 11.7567 18.5811 11.721 18.4901 11.6623C18.3009 11.5441 18.1021 11.442 17.8957 11.3571C17.7809 11.3235 17.6579 11.3314 17.5484 11.3795C17.3144 11.4803 17.1007 11.6285 16.8667 11.7305C16.7923 11.7635 16.7112 11.7785 16.6299 11.7745C16.5486 11.7704 16.4694 11.7473 16.3987 11.7071C16.3031 11.6492 16.2275 11.5636 16.1818 11.4616C16.1343 11.3566 16.1195 11.2398 16.1392 11.1262C16.1782 10.9782 16.2022 10.8266 16.2109 10.6738C16.2255 10.4107 16.2733 10.1725 16.1241 9.99782C16.0092 9.86522 15.8802 9.74302 15.7539 9.62082C15.6415 9.52509 15.5494 9.40787 15.4829 9.27606C15.4055 9.09822 15.4959 8.79194 15.6462 8.65674C15.7502 8.5621 15.8844 8.54338 16.0102 8.51426C16.173 8.47578 16.3435 8.4711 16.5105 8.44874C16.6156 8.43791 16.7158 8.39878 16.8004 8.3355C16.885 8.27222 16.9508 8.18717 16.9909 8.08942C17.0861 7.88402 17.1776 7.67342 17.292 7.47998C17.4527 7.20698 17.6451 7.18306 17.916 7.2439C17.9799 7.26229 18.039 7.29451 18.089 7.33827C18.1391 7.38204 18.1789 7.43627 18.2057 7.49714C18.3227 7.7301 18.4308 7.96514 18.5525 8.19758C18.6378 8.3593 18.7948 8.42066 18.9654 8.44874C19.1973 8.48618 19.4334 8.50594 19.6591 8.56314C19.8177 8.60318 19.9263 8.72694 19.9809 8.89022C20.0211 8.99926 20.0265 9.11804 19.9965 9.2303V9.2329ZM19.9388 5.85758C19.7826 5.94525 19.6032 5.98266 19.4251 5.9647C19.2415 5.94026 19.0611 5.88462 18.8806 5.84302L18.5769 5.77178C17.7585 5.5773 17.8593 5.58718 17.5297 5.51178C17.2177 5.44366 17.071 5.42182 16.8609 5.31678C16.7086 5.24499 16.5756 5.13775 16.4732 5.00403C16.3708 4.87032 16.3019 4.71402 16.2723 4.54822C16.2504 4.39708 16.255 4.2433 16.2858 4.09374C16.3172 3.93321 16.393 3.78474 16.5047 3.66526C16.6498 3.49782 16.8251 3.37094 17.0513 3.3361C17.171 3.31078 17.2929 3.29702 17.4153 3.29502C17.5306 3.3092 17.6444 3.33463 17.7548 3.37094C17.8313 3.39018 17.9061 3.41566 17.9831 3.43334C18.1485 3.47182 18.3154 3.50562 18.4802 3.5441C18.6945 3.5961 18.9071 3.6481 19.1209 3.7001C19.319 3.74898 19.5192 3.79006 19.7142 3.84986C19.9456 3.9211 20.1562 4.03134 20.308 4.2331C20.4599 4.43486 20.5477 4.6439 20.5384 4.8961C20.5321 5.33602 20.3221 5.65478 19.9388 5.85498V5.85758Z" />
<path d="M17.02 16.2334C16.9252 16.474 16.8093 16.7058 16.6737 16.926C16.4515 17.2865 16.1751 17.6107 15.8542 17.887C15.6805 18.0392 15.4957 18.1782 15.3014 18.303C15.0905 18.4274 14.8704 18.5357 14.6431 18.6269C14.4473 18.7091 14.2457 18.7767 14.0399 18.8292C13.8471 18.8779 13.6511 18.9127 13.4533 18.9332C13.229 18.9595 13.0032 18.9706 12.7773 18.9665C12.5879 18.9522 12.3998 18.9248 12.2142 18.8843C12.0405 18.8531 11.8658 18.8214 11.6942 18.7741C11.5534 18.7329 11.416 18.6808 11.2834 18.6181C11.1191 18.5432 10.9573 18.4595 10.7993 18.3706C10.4558 18.1764 10.1426 17.933 9.8695 17.6483C9.68126 17.4439 9.50914 17.2252 9.3547 16.9941C9.23861 16.83 9.13898 16.6547 9.05726 16.471C9.00266 16.3483 8.93351 16.2266 8.93663 16.0769C8.94319 15.9785 8.98449 15.8856 9.05316 15.8149C9.12183 15.7441 9.2134 15.7 9.31155 15.6905C9.38798 15.6837 9.46754 15.6905 9.54242 15.6905H12.9885C14.1824 15.6905 15.3759 15.6905 16.5692 15.6905C16.7663 15.6905 16.9332 15.7451 17.0044 15.9432C17.0416 16.0356 17.0471 16.1376 17.02 16.2334Z" />
</svg>
