<svg width="26" height="26" viewBox="0 0 26 26" fill="#000" xmlns="http://www.w3.org/2000/svg">
<path d="M14.427 5.6269L14.323 5.6789C14.2382 5.7205 14.154 5.76054 14.0708 5.79798C13.96 5.85674 13.804 5.94046 13.6184 6.04498C13.3241 6.21034 13.1078 6.3419 12.9845 6.41678C11.9008 7.07614 11.9669 7.0361 11.9123 7.06834C11.4734 7.32834 11.0345 7.59146 10.5904 7.84522C10.5015 7.89722 10.3923 7.91282 10.2909 7.9409C10.2087 7.9565 10.1274 7.97699 10.0476 8.00226C10.0247 8.01162 10.0101 8.08182 10.0174 8.11926C10.0387 8.23366 10.0741 8.34546 10.1006 8.45882C10.1526 8.67826 10.2046 8.89718 10.2509 9.11766C10.3148 9.41822 10.3029 9.39742 10.3653 9.7011C10.384 9.79158 10.4043 9.88622 10.5644 10.5747C10.6762 11.0552 10.6716 11.0307 10.6965 11.1431C10.7771 11.5019 10.8005 11.6371 10.8702 11.9615C10.9586 12.3749 10.9617 12.3515 11.0642 12.8138C11.2722 13.7436 11.2826 13.9547 11.2592 14.1882C11.231 14.3831 11.1884 14.5757 11.1318 14.7643C11.0075 15.1975 10.7033 15.5241 10.4506 15.8797C10.2483 16.1647 10.0403 16.4455 9.83228 16.7263C9.56136 17.0903 9.2868 17.4543 9.01588 17.8183C8.75588 18.1703 8.49588 18.525 8.23588 18.8786C8.0414 19.1433 7.83964 19.4033 7.65712 19.6763C7.61656 19.7371 7.6306 19.8437 7.63944 19.9269C7.66284 20.1417 7.69508 20.3559 7.72732 20.5696C7.75332 20.7397 7.78556 20.9087 7.81468 21.0782C7.81728 21.0917 7.81936 21.1047 7.82092 21.1182C7.84328 21.3169 7.86356 21.516 7.88852 21.7141C7.91972 21.9585 7.95456 22.2024 7.98888 22.4463C8.02112 22.6798 8.05544 22.9143 8.08768 23.1473C8.122 23.3948 8.15216 23.6428 8.18908 23.8898C8.23224 24.1805 8.29308 24.4691 8.32116 24.7608C8.32732 24.903 8.30704 25.0451 8.26136 25.1799C8.1998 25.3754 8.0836 25.5492 7.92648 25.6807C7.81105 25.7855 7.67098 25.8594 7.51932 25.8955C7.40275 25.9273 7.2824 25.9432 7.16156 25.9428C6.80068 25.9225 6.50948 25.7727 6.29992 25.4649C6.23562 25.3721 6.18533 25.2703 6.15068 25.1628C6.12245 25.0765 6.10498 24.9871 6.09868 24.8965C6.09296 24.8133 6.04304 24.4805 5.94268 23.8139C5.88392 23.4171 5.86988 23.3485 5.80696 22.9445C5.78824 22.8243 5.77472 22.7037 5.76068 22.5831C5.73728 22.3881 5.7196 22.1925 5.69204 21.9981C5.65148 21.7141 5.60364 21.4307 5.55996 21.1473C5.5376 21.0028 5.54176 21.0205 5.50068 20.735C5.37432 19.8577 5.3608 19.8307 5.35872 19.7012C5.35092 19.2764 5.44088 18.9264 5.54748 18.7845C5.88652 18.3331 6.21984 17.8776 6.55732 17.4252C6.72008 17.2073 6.89064 16.9941 7.05236 16.7752C7.26972 16.4814 7.48292 16.1839 7.69716 15.8881C7.70606 15.873 7.71354 15.8572 7.71952 15.8407L7.69976 15.8241C7.61812 15.9011 7.53544 15.977 7.45432 16.0545C7.45432 16.0545 6.98944 16.4928 6.62232 16.8532C6.1434 17.3295 4.60212 18.8396 4.72276 19.6591C4.7316 19.7163 4.78308 20.0039 4.83352 20.4152C4.84808 20.5311 4.85432 20.5993 4.8746 20.7573C4.89956 20.9508 4.9266 21.1447 4.95728 21.3678C4.84392 21.3158 4.75448 21.2784 4.66868 21.2342C4.45236 21.1224 4.2376 21.008 4.02284 20.8941C3.80808 20.7802 3.58188 20.6923 3.41964 20.4979C3.29299 20.3397 3.20407 20.1547 3.15964 19.9571C3.11868 19.7886 3.12937 19.6118 3.19032 19.4495C3.25759 19.2802 3.34675 19.1204 3.45552 18.9743C3.7306 18.5718 4.01348 18.175 4.29532 17.7783C4.43468 17.5817 4.58132 17.3903 4.71964 17.1933C4.90268 16.9333 5.07792 16.6649 5.262 16.4044C5.5298 16.0253 5.80228 15.6499 6.07216 15.2729C6.11396 15.222 6.15169 15.168 6.185 15.1112C6.2016 15.0722 6.20613 15.029 6.198 14.9874C6.17252 14.8351 6.14132 14.6837 6.11012 14.5324C6.08308 14.4009 6.05188 14.2724 6.02536 14.1388C6.00352 14.0301 5.98428 13.9209 5.96608 13.8117C5.94372 13.6755 5.9276 13.5377 5.90212 13.4025C5.87924 13.2803 5.84492 13.1601 5.81944 13.0385C5.79864 12.9397 5.78252 12.8398 5.76744 12.7405C5.74456 12.6006 5.72688 12.4597 5.70036 12.3203C5.65928 12.1019 5.61144 11.8851 5.56724 11.6677C5.54644 11.5637 5.52564 11.4623 5.50796 11.3594C5.46896 11.1301 5.4336 10.8997 5.39356 10.6704C5.34606 10.3989 5.29701 10.1277 5.2464 9.85658C5.1944 9.58774 5.1424 9.31994 5.09352 9.05214C5.04464 8.78434 4.9968 8.52018 4.94012 8.2581C4.92712 8.19986 4.87252 8.14838 4.82988 8.1021C4.55584 7.7901 4.27764 7.48226 4.00516 7.16922C3.59401 6.69741 3.18512 6.22369 2.77848 5.74806C2.67324 5.62998 2.5807 5.50118 2.50236 5.36378C2.44099 5.25813 2.40509 5.13963 2.39751 5.01768C2.38993 4.89574 2.41087 4.7737 2.45868 4.66126C2.59336 4.34926 2.75456 4.04922 2.90692 3.74554C3.0955 3.36733 3.28617 2.99015 3.47892 2.61402C3.57148 2.43202 3.6708 2.25366 3.76388 2.07166C3.87516 1.85326 3.98072 1.63174 4.092 1.41334C4.196 1.20534 4.30832 1.0015 4.41492 0.79454C4.49656 0.63542 4.5678 0.4711 4.69728 0.3411C4.73077 0.307577 4.76675 0.276635 4.80492 0.24854C4.89525 0.183951 4.99507 0.13378 5.1008 0.0998201C5.4414 -0.00417985 5.7768 0.14142 5.79136 0.1487C5.98823 0.241222 6.15169 0.392331 6.25936 0.58134C6.3635 0.769428 6.39636 0.98875 6.35192 1.1991C6.31816 1.34394 6.26572 1.48378 6.19592 1.6151C6.09192 1.83402 5.97232 2.0467 5.86052 2.2625C5.70036 2.5745 5.53968 2.88286 5.3816 3.19434C5.26668 3.42002 5.15748 3.6483 5.04204 3.87346C4.90337 4.14559 4.76124 4.41651 4.61564 4.68622C4.5756 4.76214 4.56364 4.82402 4.6302 4.89422C4.8668 5.16098 5.0982 5.43294 5.33064 5.70178C5.63085 6.04671 5.93141 6.39095 6.23232 6.7345C6.25738 6.76851 6.2922 6.79409 6.33216 6.80782C6.38884 6.82498 6.43304 6.80418 6.53392 6.77714C6.5932 6.76102 6.65456 6.75114 6.71436 6.73814C6.8402 6.71006 6.88336 6.7085 7.1028 6.6747C7.14856 6.66742 7.27492 6.64766 7.40388 6.6227C7.67012 6.57434 7.73304 6.5525 8.07572 6.4823C8.16464 6.4641 8.25408 6.44642 8.34352 6.4303C8.49068 6.40638 8.63784 6.38194 8.78552 6.36478C9.55252 6.27638 10.3216 6.3393 11.0896 6.3237C11.4812 6.3159 11.8738 6.31486 12.2648 6.3263C12.4208 6.33046 12.5014 6.2275 12.6049 6.15834C12.8868 5.96958 13.1613 5.77042 13.4369 5.57438C13.6272 5.4397 13.8155 5.3019 14.0089 5.16774C14.02 5.15811 14.033 5.15088 14.0471 5.1465C14.0611 5.14212 14.0759 5.14067 14.0906 5.14226C14.1127 5.14904 14.1313 5.16414 14.1426 5.18438C14.1779 5.24678 14.2845 5.40798 14.427 5.6269Z" />
<path d="M23.5186 3.60621C23.4525 3.82409 23.4146 4.04977 23.3548 4.26973C23.295 4.48969 23.2269 4.70757 23.1686 4.92753C23.1255 5.08925 23.0948 5.25461 23.0527 5.41685C23.0105 5.57909 22.9622 5.72885 22.919 5.88849C22.8795 6.03357 22.8457 6.18073 22.8062 6.32633C22.7589 6.50053 22.7063 6.67369 22.6606 6.84633C22.62 7.00233 22.5919 7.16197 22.5457 7.31433C22.4552 7.61697 22.4292 7.94561 22.1983 8.19417C22.0608 8.35199 21.8724 8.45668 21.6658 8.49005C21.3481 8.53789 21.0304 8.58573 20.7121 8.62837C20.5213 8.65385 20.3284 8.66685 20.137 8.69129C19.9332 8.71781 19.7299 8.75109 19.526 8.78177L19.4959 8.78541C19.2697 8.80725 19.0435 8.83117 18.8167 8.85093C18.7216 8.85925 18.6608 8.87953 18.6426 8.99809C18.6051 9.25809 18.5469 9.51445 18.4944 9.77133C18.434 10.0646 18.368 10.3568 18.3092 10.6506C18.2661 10.8654 18.2338 11.0822 18.1907 11.297C18.1496 11.5003 18.0997 11.7026 18.056 11.9059C18.0357 12.0011 18.0217 12.0973 18.004 12.193C17.965 12.4082 17.9291 12.624 17.886 12.8378C17.8428 13.0515 17.7929 13.2538 17.7497 13.4586C17.7268 13.571 17.7154 13.6854 17.693 13.7977C17.6488 14.0218 17.5968 14.2449 17.5563 14.47C17.5313 14.6068 17.511 14.7337 17.6083 14.8725C17.8865 15.2724 18.1397 15.6894 18.407 16.0971C18.7164 16.5651 19.031 17.0331 19.343 17.5011C19.6987 18.0398 20.0517 18.5806 20.4069 19.1199C20.4943 19.2486 20.5538 19.3941 20.5818 19.5471C20.6097 19.7001 20.6054 19.8573 20.5691 20.0086C20.5365 20.1658 20.4679 20.3134 20.3686 20.4397C20.2694 20.566 20.1422 20.6676 19.9971 20.7366C19.6565 20.9045 19.3253 21.0922 18.9889 21.2701C18.9369 21.2987 18.8745 21.3184 18.7934 21.3522C18.8074 21.2259 18.8183 21.1229 18.8308 21.02C18.8339 20.9929 18.8433 20.968 18.8464 20.9399C18.8687 20.7449 18.888 20.5499 18.9129 20.3549C18.9447 20.1042 18.9826 19.8541 19.0169 19.603C19.0407 19.4841 19.0538 19.3633 19.0559 19.2421C19.045 18.9095 18.908 18.5935 18.6727 18.3581C18.0284 17.7044 17.379 17.0581 16.7331 16.4039C16.4404 16.1086 16.1512 15.8101 15.8606 15.5126L15.8236 15.5412C15.8673 15.6031 15.91 15.6655 15.9542 15.7269C16.115 15.9481 16.276 16.1691 16.4372 16.3899C16.6109 16.626 16.7872 16.8579 16.9604 17.096C17.1096 17.3004 17.2542 17.5079 17.4029 17.7122C17.537 17.8958 17.6774 18.0762 17.8106 18.2608C17.9666 18.4766 18.1309 18.6878 18.265 18.9171C18.3314 19.0269 18.3748 19.1491 18.3926 19.2762C18.4105 19.4033 18.4025 19.5326 18.369 19.6565C18.3435 19.7864 18.3262 19.9177 18.317 20.0496C18.2952 20.2275 18.278 20.4058 18.2526 20.5832C18.2271 20.7605 18.1943 20.9362 18.1652 21.1125C18.1652 21.126 18.16 21.139 18.1584 21.1526C18.1366 21.3444 18.1168 21.5368 18.0924 21.7282C18.0607 21.9794 18.0248 22.23 17.9884 22.4806C17.9562 22.7141 17.9239 22.9486 17.8891 23.1816C17.8449 23.4723 17.7965 23.7619 17.7528 24.0521C17.7326 24.1857 17.718 24.3199 17.7008 24.454C17.679 24.6355 17.6691 24.818 17.6343 24.9985C17.6104 25.1469 17.5568 25.2889 17.4767 25.4162C17.3967 25.5434 17.2918 25.6532 17.1684 25.739C16.9535 25.8959 16.6882 25.968 16.4235 25.9414C16.1587 25.9148 15.9131 25.7915 15.7337 25.5949C15.6229 25.478 15.538 25.3391 15.4842 25.1873C15.4305 25.0355 15.4092 24.8741 15.4217 24.7135C15.4336 24.5424 15.4773 24.374 15.5049 24.2044C15.5262 24.0708 15.547 23.9366 15.5636 23.8025C15.5844 23.6278 15.5959 23.452 15.6198 23.2778C15.6437 23.1036 15.6765 22.9382 15.7051 22.7687C15.7082 22.7521 15.7113 22.7354 15.7129 22.7167C15.7352 22.5217 15.755 22.3262 15.78 22.1312C15.8112 21.8868 15.846 21.6424 15.8798 21.398C15.9136 21.1536 15.9453 20.9232 15.9812 20.6866C16.0249 20.3996 16.0748 20.1146 16.1143 19.8271C16.1215 19.7687 16.108 19.7097 16.0764 19.6602C15.8053 19.2788 15.5304 18.9003 15.2516 18.5245C15.1289 18.3581 14.9916 18.2016 14.8705 18.0352C14.6464 17.733 14.429 17.4262 14.207 17.1226C13.8861 16.6842 13.5622 16.2484 13.2429 15.8096C13.0786 15.5834 12.9127 15.3572 12.765 15.1206C12.6854 14.9926 12.6418 14.8424 12.5835 14.7014C12.4681 14.4212 12.466 14.1253 12.4863 13.8315C12.5059 13.6616 12.5356 13.493 12.5752 13.3266C12.5903 13.2475 12.61 13.1706 12.6272 13.091C12.6839 12.8211 12.7395 12.5512 12.7967 12.2814C12.844 12.0583 12.8903 11.8352 12.9428 11.6137C13.0032 11.3594 13.0734 11.1082 13.1321 10.854C13.1763 10.6636 13.2054 10.4707 13.2476 10.282C13.2871 10.102 13.337 9.92421 13.3791 9.74481C13.4046 9.63665 13.4244 9.52745 13.4462 9.41825C13.4665 9.31737 13.4862 9.21649 13.5065 9.11613L13.4758 9.10365C13.2002 9.27109 12.9257 9.43957 12.6496 9.60597C12.2913 9.82177 11.9372 10.0443 11.5711 10.2456C11.4416 10.3168 11.2934 10.3797 11.1291 10.3636C11.0708 10.0968 11.0142 9.83529 10.957 9.57373C10.9076 9.34805 10.8597 9.12185 10.8077 8.89773C10.7838 8.79373 10.7479 8.69857 10.7235 8.59769C10.7079 8.53113 10.6923 8.47445 10.7812 8.42349C11.2076 8.18065 11.6272 7.92741 12.0484 7.67573C12.3121 7.51973 12.5726 7.35593 12.8362 7.19837C13.1623 7.00441 13.4894 6.81305 13.8164 6.62117C13.9438 6.53886 14.0761 6.46453 14.2127 6.39861C14.4394 6.30189 14.6479 6.33621 14.766 6.34661C15.338 6.39861 15.793 6.50989 16.3322 6.61701C16.9042 6.73089 16.8101 6.68929 17.0956 6.75793C17.2651 6.79849 17.7554 6.92277 18.1564 6.95917C18.1961 6.96702 18.2367 6.9693 18.277 6.96593C18.4574 6.93889 18.6368 6.90353 18.8173 6.88065C19.0154 6.85569 19.2151 6.84425 19.4137 6.82189C19.7091 6.78757 20.0039 6.74909 20.2977 6.71165C20.4048 6.69761 20.513 6.68773 20.618 6.66433C20.6394 6.65926 20.6595 6.64956 20.6767 6.6359C20.694 6.62225 20.708 6.60497 20.7179 6.58529C20.7782 6.36897 20.8255 6.14849 20.8827 5.93165C20.9253 5.77045 20.981 5.61237 21.0231 5.45117C21.0652 5.28997 21.0943 5.13033 21.1354 4.97121C21.1765 4.81209 21.2259 4.65661 21.2685 4.49853C21.3081 4.35241 21.3424 4.20525 21.3814 4.05913C21.4282 3.88441 21.4781 3.71021 21.5249 3.53601C21.5467 3.45489 21.5655 3.37325 21.5831 3.29109C21.6351 3.05241 21.7038 2.81997 21.8743 2.63277C21.9877 2.50058 22.1355 2.40248 22.3013 2.3494C22.4671 2.29633 22.6445 2.29038 22.8135 2.33221C22.9778 2.36391 23.1303 2.44019 23.2542 2.55273C23.3781 2.66526 23.4687 2.8097 23.516 2.97025C23.5853 3.17643 23.5862 3.39947 23.5186 3.60621Z" />
<path d="M9.89556 3.92734C9.89409 4.45484 9.68503 4.96056 9.31359 5.33512C8.94215 5.70967 8.43819 5.92295 7.91072 5.92882C6.80104 5.93766 5.88844 4.99282 5.903 3.91642C5.91756 2.88838 6.7766 1.92014 7.9024 1.96226C9.03652 1.92482 9.89088 2.88942 9.89556 3.92734Z" />
<path d="M18.4079 3.98165C18.4079 5.00657 17.513 5.95765 16.4189 5.91813C15.2749 5.94361 14.4159 4.98577 14.4226 3.91353C14.4312 3.38856 14.6454 2.88791 15.0192 2.51919C15.393 2.15047 15.8965 1.94312 16.4215 1.94169C16.9072 1.93333 17.3777 2.11142 17.7361 2.43933C18.1869 2.84961 18.4079 3.36181 18.4079 3.98165Z" />
<path d="M10.244 22.5446C10.2079 22.7024 10.1369 22.8501 10.0361 22.9768C9.93528 23.1034 9.80728 23.2058 9.66156 23.2763C9.47696 23.3667 9.32876 23.3751 9.1062 23.3875C9.01828 23.3884 8.9307 23.3765 8.8462 23.3522C8.82724 23.3478 8.80949 23.3392 8.7942 23.3272C8.77757 23.3124 8.76404 23.2944 8.7544 23.2743C8.74476 23.2543 8.7392 23.2325 8.73804 23.2102C8.69488 22.8613 8.64028 22.5139 8.59244 22.1655C8.57008 22.0012 8.55656 21.8359 8.53316 21.6721C8.50716 21.4849 8.4718 21.2992 8.4458 21.1125C8.42552 20.9675 8.41304 20.8208 8.3938 20.6523C8.5108 20.7043 8.61324 20.7496 8.71152 20.8005C9.02699 20.9628 9.34159 21.1266 9.65532 21.2919C9.91718 21.4249 10.1167 21.655 10.2112 21.9331C10.281 22.1295 10.2924 22.3419 10.244 22.5446Z" />
<path d="M15.3326 20.7501C15.298 20.9837 15.2633 21.2172 15.2286 21.4505C15.2099 21.5743 15.1881 21.6975 15.1725 21.8213C15.1486 22.0126 15.133 22.2055 15.1054 22.3964C15.0638 22.686 15.018 22.9751 14.966 23.2637C14.9598 23.2849 14.9486 23.3044 14.9334 23.3204C14.9182 23.3365 14.8995 23.3488 14.8787 23.3563C14.6114 23.4119 14.3519 23.4083 14.0956 23.283C13.8593 23.1777 13.6708 22.9883 13.5667 22.7515C13.4809 22.5508 13.4258 22.3397 13.4788 22.1047C13.5308 21.8847 13.6068 21.6861 13.7628 21.5327C13.8824 21.4221 14.0156 21.3271 14.159 21.2498C14.3358 21.1458 14.523 21.0657 14.706 20.9721C14.8891 20.8785 15.0596 20.7844 15.2385 20.6939C15.2838 20.671 15.3357 20.6669 15.3326 20.7501Z" />
</svg>
