<svg width="26" height="26" viewBox="0 0 26 26" fill="#000" xmlns="http://www.w3.org/2000/svg">
<path d="M13.844 0.0775551L13.8399 0.0728751C13.8347 0.065595 13.8279 0.058835 13.8222 0.051555C13.821 0.0501839 13.8201 0.0485927 13.8196 0.046875L13.8227 0.049995C13.8242 0.0512476 13.8256 0.0526404 13.8269 0.054155C13.833 0.0616518 13.8387 0.0694624 13.844 0.0775551Z" fill="white"/>
<path d="M14.2698 0.519851C14.2071 0.493472 14.153 0.450058 14.1138 0.394531C14.1496 0.428851 14.1777 0.455891 14.2027 0.476691L14.2355 0.501131C14.2463 0.508402 14.2578 0.514668 14.2698 0.519851Z" fill="white"/>
<path d="M14.5797 0.492188C14.5596 0.50286 14.5388 0.512071 14.5173 0.519748C14.5387 0.511849 14.5595 0.502645 14.5797 0.492188Z" fill="white"/>
<path d="M7.97944 19.5471L7.97632 19.5591C7.98048 19.4805 7.98516 19.4135 7.98932 19.3594C7.98932 19.3667 7.98932 19.3739 7.98932 19.3812C7.99385 19.4367 7.99052 19.4925 7.97944 19.5471Z" fill="white"/>
<path d="M7.9949 20.3952C7.98658 20.3125 7.97514 20.1721 7.97046 20C7.97306 20.0302 7.97514 20.0603 7.97722 20.09C7.97982 20.1456 7.98294 20.1971 7.98606 20.2418C7.98918 20.2865 7.99022 20.3208 7.99282 20.3604C7.99334 20.3718 7.99386 20.3853 7.9949 20.3952Z" fill="white"/>
<path d="M8.25927 21.5672C8.13435 21.2099 8.04721 20.8404 7.99927 20.4648L8.01331 20.5361C8.01331 20.5361 8.01331 20.5361 8.01331 20.5387C8.03515 20.6463 8.05699 20.7534 8.08195 20.86C8.12303 21.0358 8.16099 21.2121 8.20623 21.3863V21.3915C8.22599 21.4502 8.24211 21.509 8.25927 21.5672Z" fill="white"/>
<path d="M10.5612 2.36438C10.5497 2.28586 10.5373 2.18498 10.5269 2.07422L10.5393 2.17822C10.5393 2.19642 10.543 2.2141 10.5451 2.23022C10.5503 2.27546 10.556 2.32018 10.5612 2.36438Z" fill="white"/>
<path d="M10.622 2.86004C10.6279 2.78137 10.6228 2.70227 10.6069 2.625C10.6127 2.65204 10.6173 2.677 10.6205 2.70508C10.6205 2.71964 10.6241 2.73472 10.6251 2.7498C10.628 2.78655 10.627 2.82351 10.622 2.86004Z" fill="white"/>
<path d="M14.5658 0.496094L14.5356 0.509614L14.5658 0.496094Z" />
<path d="M20.8447 7.62455C20.7618 7.68673 20.6719 7.73907 20.5769 7.78055C20.4074 7.86167 20.2233 7.85127 20.0413 7.84607C19.7896 7.83879 19.5608 7.75247 19.3357 7.64847C19.1334 7.55591 18.9322 7.45815 18.7231 7.38431C18.4941 7.30496 18.2608 7.23881 18.0242 7.18619C17.8516 7.14719 17.6727 7.13991 17.497 7.11287C17.2234 7.07075 16.9473 7.08687 16.6743 7.05827C16.4052 7.03414 16.1404 6.97506 15.8865 6.88251C15.6711 6.8038 15.466 6.69902 15.276 6.57051C15.0436 6.40922 14.863 6.18397 14.756 5.92207C14.7289 5.84126 14.7072 5.75875 14.691 5.67507C14.6656 5.58407 14.587 5.55807 14.5163 5.62307C14.4613 5.67148 14.4159 5.72989 14.3827 5.79519C14.2896 5.97569 14.2068 6.16128 14.1346 6.35107C14.0768 6.49513 14.0548 6.65111 14.0707 6.80555C14.0921 6.97086 14.1648 7.12527 14.2787 7.24703C14.3967 7.37339 14.5491 7.45035 14.6947 7.53771C15.2074 7.84503 15.7253 8.14403 16.2318 8.46227C16.5232 8.64799 16.8048 8.84881 17.0752 9.06391C17.524 9.40867 17.94 9.78203 18.2983 10.2209C18.4962 10.4561 18.6678 10.7122 18.81 10.9848C18.9142 11.1857 18.9974 11.3969 19.058 11.615C19.2873 12.4564 19.084 13.1782 19.0117 13.4231C18.9565 13.6109 18.8849 13.7934 18.7975 13.9686C18.6322 14.2907 18.4072 14.5785 18.1345 14.8167C17.7599 15.1473 17.3417 15.425 16.8917 15.6419C16.6135 15.7802 16.3389 15.9237 16.0597 16.0579C15.7477 16.2108 15.4289 16.3533 15.1159 16.5067C14.637 16.7407 14.1544 16.9684 13.7119 17.2669C13.1758 17.6268 12.6922 18.0417 12.3328 18.5893C12.2213 18.7678 12.1254 18.9557 12.0463 19.1509C11.8727 19.5621 11.8005 20.009 11.8357 20.454C11.8498 20.6781 11.8706 20.9022 11.8992 21.1248C11.92 21.2423 11.9473 21.3586 11.9808 21.4732C11.9968 21.5609 12.0175 21.6477 12.0427 21.7332C12.1209 21.9776 12.2113 22.218 12.3136 22.4534C12.4646 22.778 12.6781 23.0697 12.9418 23.3119C13.147 23.503 13.3833 23.6576 13.6406 23.769C13.9265 23.8837 14.227 23.9575 14.5335 23.9884C14.7956 24.0223 15.0615 24.0136 15.3208 23.9624C15.5752 23.9232 15.8213 23.8414 16.0488 23.7206C16.2475 23.6176 16.427 23.4809 16.5792 23.3166C16.6947 23.1888 16.7923 23.0459 16.8693 22.8918C16.9099 22.8091 16.9525 22.7269 16.9874 22.6422C17.0222 22.5612 17.0509 22.4778 17.0732 22.3926C17.113 22.2601 17.1422 22.1246 17.1605 21.9875C17.1803 21.7654 17.1959 21.5424 17.1397 21.3182C17.103 21.1619 17.0507 21.0097 16.9837 20.8638C16.8955 20.6759 16.7719 20.5067 16.6197 20.3656C16.5694 20.317 16.5147 20.2732 16.4564 20.2346C16.2836 20.1246 16.084 20.0642 15.8792 20.0598C15.6553 20.0593 15.4353 20.1184 15.2417 20.2309C14.9557 20.3786 14.7399 20.6053 14.534 20.8445C14.4342 20.9615 14.3322 21.0759 14.2329 21.1924C14.1951 21.2354 14.1459 21.2667 14.091 21.2829C13.9693 21.3214 13.883 21.2683 13.8798 21.143C13.8741 20.9906 13.9318 20.8539 13.9968 20.727C14.0857 20.5393 14.1971 20.3631 14.3286 20.2023C14.56 19.9149 14.8484 19.6786 15.1757 19.5081C15.326 19.4314 15.4826 19.3676 15.6437 19.3173C15.9043 19.2423 16.175 19.2088 16.446 19.218C16.8914 19.22 17.3293 19.3324 17.7206 19.545C17.7928 19.5862 17.8623 19.6321 17.9286 19.6823L17.9442 19.6943C18.1428 19.8445 18.3259 20.0144 18.4907 20.2013C18.6199 20.3661 18.729 20.5457 18.8157 20.7364C19.007 21.1523 19.3227 22.261 18.8625 23.4799C18.6403 24.0698 18.2723 24.5938 17.7928 25.003C17.3552 25.3629 16.8429 25.621 16.2932 25.7585C15.5303 25.9717 14.6869 25.9717 14.3827 25.9717C14.3827 25.9717 14.2371 25.9795 14.0187 25.9795C13.8211 25.9795 13.5621 25.9733 13.2907 25.9504C13.0903 25.9352 12.8909 25.9095 12.6932 25.8734C12.4754 25.8293 12.2606 25.7717 12.05 25.7008C11.7512 25.6037 11.4632 25.4763 11.1904 25.3207C10.9129 25.1644 10.6497 24.9841 10.4036 24.782C9.92046 24.3798 9.49878 23.909 9.15199 23.3847C8.88447 22.9771 8.65456 22.5459 8.46507 22.0967L8.42711 22.0072C8.35327 21.8273 8.30231 21.6692 8.26227 21.5465C8.24615 21.4945 8.22847 21.4425 8.21027 21.3853V21.3801C8.16503 21.2059 8.12707 21.0296 8.08599 20.8539C8.06103 20.7473 8.03919 20.6402 8.01735 20.5325C8.01735 20.5325 8.01735 20.5325 8.01735 20.5299C8.01371 20.5023 8.01007 20.4737 8.00695 20.4452C8.00695 20.4327 8.00331 20.4088 8.00019 20.3755C7.99707 20.3422 7.99187 20.2923 7.98771 20.2356C7.98459 20.1909 7.98147 20.1394 7.97887 20.0838C7.97887 20.051 7.97887 20.0167 7.97523 19.9798C7.97055 19.8082 7.97523 19.6626 7.98043 19.5445C7.99132 19.4906 7.99464 19.4355 7.99031 19.3807C7.99031 19.3682 7.99031 19.3568 7.99291 19.3459C8.01631 19.0516 8.05427 18.8212 8.07247 18.711C8.07507 18.6948 8.07767 18.6813 8.07923 18.6704C8.10835 18.4863 8.15827 18.3064 8.20299 18.1286C8.23731 17.9918 8.28515 17.8587 8.33039 17.724C8.40423 17.5014 8.48171 17.281 8.55659 17.0584C8.58415 16.9788 8.60859 16.8988 8.63303 16.8181C8.68919 16.633 8.59507 16.5062 8.40007 16.4999C8.1604 16.4967 7.92152 16.5281 7.69079 16.593C7.58991 16.6195 7.48695 16.6356 7.38555 16.6606C7.26595 16.6902 7.17755 16.7168 7.10891 16.7365C7.00491 16.7662 6.91287 16.7937 6.79223 16.8353C6.55459 16.9175 6.42823 16.9799 6.34139 16.9175C6.33548 16.9132 6.32991 16.9086 6.32475 16.9034C6.32135 16.8988 6.31823 16.8939 6.31539 16.8889C6.27379 16.8124 6.34087 16.7038 6.38403 16.6289C6.38403 16.6289 6.49115 16.4053 6.60815 16.112C6.66379 15.9721 6.60815 15.8546 6.46983 15.7917C6.29563 15.7111 6.11051 15.6773 5.92591 15.6357C5.82919 15.6138 5.73455 15.5837 5.63783 15.5577C5.55619 15.5364 5.47351 15.5187 5.39239 15.4953C5.32492 15.4803 5.25933 15.4578 5.19687 15.4282C5.10535 15.3798 5.05751 15.3205 5.17503 15.2436C5.29255 15.1666 5.41267 15.1032 5.53539 15.0387C5.78967 14.9051 6.04811 14.7787 6.30031 14.642C6.36951 14.6004 6.43237 14.549 6.48699 14.4896C6.57383 14.4007 6.55875 14.2847 6.44903 14.2296C6.32995 14.1698 6.20411 14.122 6.07983 14.0736C5.95555 14.0252 5.83387 13.9857 5.71063 13.9415C5.59571 13.9004 5.47871 13.8635 5.36691 13.8152C5.27609 13.7767 5.18905 13.7299 5.10691 13.6753C5.04295 13.6321 5.04971 13.6066 5.09755 13.5442C5.14894 13.4865 5.21565 13.4444 5.28995 13.4231C5.44595 13.3622 5.60975 13.316 5.76991 13.2619C5.94099 13.2042 6.11311 13.147 6.28211 13.0851C6.38301 13.0498 6.48121 13.0072 6.57591 12.9577C6.74023 12.8662 6.78391 12.7424 6.69239 12.5854C6.59775 12.42 6.46671 12.2858 6.34919 12.1397C6.23167 11.9936 6.10115 11.836 5.98103 11.6811C5.94548 11.6307 5.91648 11.576 5.89471 11.5183C5.86299 11.446 5.88743 11.392 5.96647 11.3847C6.05828 11.3714 6.15177 11.3754 6.24207 11.3966C6.45423 11.4616 6.65807 11.548 6.86971 11.6223C7.03008 11.6875 7.19459 11.7421 7.36215 11.7856C7.49823 11.8181 7.63987 11.8197 7.77666 11.7903C7.91344 11.7609 8.04189 11.7012 8.15255 11.6156C8.36055 11.4596 8.57583 11.3108 8.79007 11.1621C8.84564 11.1135 8.91519 11.0838 8.98871 11.0774C9.01376 11.0736 9.03933 11.0781 9.06157 11.0903C9.0838 11.1024 9.10149 11.1214 9.11195 11.1444C9.15823 11.2484 9.21595 11.3524 9.25131 11.4564C9.35531 11.7612 9.45047 12.07 9.61531 12.3472C9.67871 12.4427 9.756 12.5282 9.84463 12.601C9.89003 12.6346 9.94424 12.6543 10.0006 12.6576C10.1507 12.6768 10.3031 12.6635 10.4475 12.6186C10.5919 12.5738 10.7251 12.4984 10.8378 12.3976C11.0188 12.2369 11.0916 12.0602 11.0006 11.8059C10.9138 11.5656 10.7635 11.3686 10.5992 11.1819C10.4234 10.978 10.2409 10.7804 10.0656 10.5756C9.85743 10.3441 9.67907 10.0875 9.53471 9.81167C9.46347 9.6681 9.40332 9.5193 9.35479 9.36655C9.22625 8.89082 9.19425 8.39417 9.26067 7.90587C9.29031 7.69215 9.34595 7.45087 9.34595 7.45087C9.36363 7.36403 9.38911 7.27927 9.41147 7.19399C9.47409 6.95625 9.56726 6.72763 9.68863 6.51383C9.92315 6.09783 10.2294 5.73383 10.5602 5.38959C10.6728 5.27396 10.7685 5.14302 10.8446 5.00063C10.8721 4.94501 10.888 4.88441 10.8914 4.82247C10.8948 4.76054 10.8856 4.69856 10.8644 4.64027C10.803 4.43591 10.6564 4.29291 10.4816 4.18163C10.3329 4.08647 10.1748 4.00743 10.023 3.91747C9.96364 3.88182 9.9076 3.84092 9.85555 3.79527C9.83769 3.78193 9.82357 3.76423 9.81452 3.74385C9.80548 3.72348 9.80183 3.70112 9.80392 3.67893C9.806 3.65674 9.81376 3.63546 9.82645 3.61713C9.83913 3.5988 9.85632 3.58404 9.87635 3.57427C10.0136 3.49003 10.1546 3.41047 10.2924 3.32623C10.431 3.24111 10.5378 3.11262 10.596 2.96067C10.599 2.95371 10.6016 2.94659 10.6038 2.93935C10.6079 2.92759 10.6114 2.91561 10.6142 2.90347C10.6142 2.89359 10.6189 2.88423 10.6205 2.87487L10.6236 2.85407C10.6275 2.81795 10.6275 2.78151 10.6236 2.74539C10.6236 2.73031 10.621 2.71523 10.6189 2.70067C10.6153 2.67103 10.6106 2.64399 10.607 2.61903C10.6033 2.59407 10.607 2.61175 10.5882 2.52439C10.5882 2.52439 10.5773 2.46667 10.5633 2.37255V2.36111C10.5576 2.32211 10.5513 2.27791 10.5451 2.22955C10.5451 2.21239 10.5409 2.19471 10.5394 2.17755C10.5357 2.14375 10.5321 2.10839 10.5284 2.07355C10.5269 2.04671 10.5269 2.0198 10.5284 1.99295C10.531 1.85255 10.5914 1.77403 10.7281 1.75531C10.8888 1.73243 11.0505 1.71319 11.2122 1.70331C11.3283 1.70195 11.4437 1.68445 11.5549 1.65131C11.599 1.63686 11.6389 1.61195 11.6712 1.57871C11.7035 1.54548 11.7273 1.50491 11.7406 1.46047C11.7712 1.35647 11.7764 1.24779 11.7978 1.14223C11.8394 0.94255 11.8305 0.73351 11.9018 0.53747C11.9428 0.42047 12.0104 0.38823 12.1311 0.42567C12.2871 0.47351 12.4124 0.58167 12.5533 0.65655C12.6438 0.70595 12.7364 0.75067 12.8253 0.80163C12.9142 0.85259 12.9896 0.80579 13.0603 0.76003C13.1011 0.731066 13.1373 0.695989 13.1674 0.65603L13.1815 0.63887C13.2137 0.59987 13.2387 0.57335 13.2454 0.56399C13.2829 0.51667 13.3198 0.46571 13.3552 0.41735C13.3905 0.36899 13.4274 0.31647 13.4566 0.27591C13.4612 0.27019 13.4654 0.26447 13.469 0.25927C13.4815 0.24159 13.4945 0.22287 13.5086 0.20363C13.5153 0.19427 13.5226 0.18439 13.5304 0.17503C13.546 0.15631 13.5616 0.13759 13.5782 0.12043C13.5866 0.11159 13.5954 0.10327 13.6042 0.0949503C13.6208 0.0778772 13.6389 0.0623835 13.6583 0.0486703C13.6758 0.03765 13.695 0.0294059 13.715 0.0242303C13.731 0.019628 13.7479 0.0183887 13.7644 0.0205903C13.7835 0.0229284 13.8015 0.0306872 13.8164 0.0429503C13.8169 0.044668 13.8178 0.0462592 13.819 0.0476303C13.8247 0.0549103 13.8315 0.0616703 13.8367 0.0689503L13.8403 0.0736303V0.0762303C13.9224 0.185765 14.0113 0.289975 14.1066 0.38823C14.1458 0.443757 14.1999 0.487171 14.2626 0.51355C14.2693 0.516688 14.2762 0.519296 14.2834 0.52135L14.2969 0.52499H14.3L14.3156 0.52863L14.3317 0.53175C14.3394 0.53313 14.3473 0.533998 14.3551 0.53435C14.3992 0.537584 14.4435 0.532468 14.4856 0.51927C14.4931 0.517493 14.5003 0.515235 14.5075 0.51251L14.5267 0.50523C14.5208 0.508143 14.5147 0.510746 14.5085 0.51303C14.5299 0.505353 14.5508 0.496143 14.5709 0.48547C14.5662 0.48547 14.5616 0.48963 14.5569 0.49171C14.561 0.49171 14.5657 0.48807 14.5699 0.48547C14.5906 0.4741 14.6108 0.461602 14.6302 0.44803C14.78 0.35287 14.924 0.25667 15.066 0.15839C15.0946 0.13915 15.1242 0.12095 15.1549 0.10639C15.3156 0.0221503 15.4596 0.0944303 15.4898 0.27227C15.5256 0.48495 15.5568 0.69919 15.6036 0.90979C15.6158 0.990535 15.6521 1.06573 15.7076 1.12559C15.757 1.16863 15.8183 1.19549 15.8834 1.20255C16.1408 1.24363 16.6384 1.43811 16.8553 1.55823C16.8854 1.57487 17.3233 1.82551 17.5068 2.30911C17.5956 2.499 17.6372 2.70756 17.628 2.91699C17.6244 3.13332 17.6597 3.34853 17.732 3.55243C17.8379 3.82864 17.9776 4.09064 18.148 4.33243C18.3617 4.64728 18.5983 4.94604 18.8557 5.22631C19.1001 5.49515 19.3632 5.74631 19.6321 5.99383C19.8817 6.22159 20.1458 6.43323 20.409 6.64539C20.5395 6.74939 20.683 6.84091 20.7932 6.97143C20.8641 7.05245 20.9172 7.14739 20.9492 7.25015C20.9738 7.31557 20.9769 7.38712 20.9581 7.45443C20.9394 7.52174 20.8996 7.58132 20.8447 7.62455Z" />
<path d="M7.98937 19.3867C7.99369 19.4415 7.99037 19.4966 7.97949 19.5505C7.98209 19.4892 7.98573 19.4335 7.98937 19.3867Z" />
<path d="M8.085 20.8604C8.12608 21.0362 8.16404 21.2125 8.20928 21.3867C8.12095 21.1101 8.05641 20.8266 8.01636 20.5391C8.0382 20.6457 8.06004 20.7538 8.085 20.8604Z" />
<path d="M13.3516 0.42269C13.3885 0.37069 13.4233 0.32233 13.453 0.28125C13.4238 0.32181 13.3895 0.37173 13.3516 0.42269Z" />
<path d="M13.4648 0.258245C13.4773 0.240565 13.4903 0.221845 13.5049 0.203125C13.4908 0.222365 13.4778 0.241085 13.4654 0.258765C13.4617 0.263965 13.4576 0.269685 13.4529 0.275405L13.4648 0.258245Z" />
<path d="M13.8269 0.054675C13.8316 0.0604534 13.8359 0.0665329 13.8399 0.0728749C13.8347 0.065595 13.8279 0.058835 13.8222 0.051555C13.821 0.0501839 13.8201 0.0485927 13.8196 0.046875L13.8227 0.049995L13.8263 0.054155L13.8269 0.054675Z" />
<path d="M14.236 0.501651C14.2467 0.508715 14.258 0.514806 14.2698 0.519851C14.2071 0.493472 14.153 0.450058 14.1138 0.394531C14.1496 0.428851 14.1777 0.455891 14.2027 0.476691C14.2141 0.486051 14.2251 0.493851 14.2355 0.501131L14.236 0.501651Z" />
<path d="M14.5797 0.492188C14.5596 0.50286 14.5388 0.512071 14.5173 0.519748C14.5387 0.511849 14.5595 0.502645 14.5797 0.492188Z" />
</svg>
