<svg width="26" height="26" viewBox="0 0 26 26" fill="#000" xmlns="http://www.w3.org/2000/svg">
<g clip-path="url(#clip0)">
<path d="M25.909 14.9267C25.8866 15.0367 25.8529 15.1443 25.8086 15.2475C25.7075 15.4938 25.5421 15.7084 25.3297 15.8689C25.1803 15.9807 25.0143 16.0684 24.8378 16.1289C24.6297 16.197 24.4113 16.2287 24.1925 16.2225C22.5987 16.2199 21.0049 16.2225 19.4111 16.2183C19.1793 16.2121 18.9525 16.1496 18.7501 16.0363C18.5851 15.954 18.4353 15.8443 18.3071 15.7119C18.1683 15.5589 18.0539 15.3854 17.9681 15.1976C17.8953 15.0468 17.8211 14.8965 17.7455 14.7467C17.6519 14.5601 17.5562 14.3744 17.4621 14.1877C17.3836 14.0317 17.3061 13.8794 17.2291 13.7244C17.1522 13.5695 17.082 13.4228 17.0061 13.2731C16.9119 13.0874 16.8152 12.9033 16.7211 12.7182C16.6629 12.6023 16.6083 12.4847 16.5511 12.3683C16.4616 12.1859 16.3715 12.0039 16.2807 11.8222C16.2807 11.8191 16.2692 11.8222 16.25 11.8186V17.7986L12.9849 19.0081L9.76921 17.8168V11.8191L9.74581 11.8134C9.70525 11.8888 9.66365 11.9637 9.62413 12.0396C9.52533 12.2336 9.42497 12.427 9.32929 12.622C9.23361 12.817 9.15197 12.9985 9.05993 13.1862C9.00429 13.3001 8.94085 13.4103 8.88365 13.5232C8.80877 13.6693 8.73701 13.8175 8.66369 13.9641C8.58465 14.1201 8.50457 14.2761 8.42605 14.4321C8.35273 14.5798 8.28201 14.7291 8.20609 14.8757C8.11093 15.0603 8.00641 15.2397 7.91593 15.4269C7.80548 15.6411 7.63839 15.821 7.43285 15.9469C7.26383 16.0544 7.07754 16.132 6.88217 16.1762C6.64037 16.2345 6.40221 16.2142 6.16353 16.2147C4.68777 16.2194 3.21253 16.2147 1.73677 16.2189C1.48213 16.221 1.23016 16.1669 0.998893 16.0603C0.746106 15.9477 0.529148 15.7678 0.371773 15.5403C0.281521 15.4067 0.208982 15.2619 0.155973 15.1097C0.0773198 14.8952 0.0479939 14.6658 0.0701735 14.4384C0.083772 14.3328 0.110499 14.2294 0.149733 14.1305C0.193476 13.9914 0.251506 13.8573 0.322893 13.7301C0.40014 13.6098 0.493576 13.5006 0.600573 13.4057C0.732374 13.2806 0.887031 13.1821 1.05609 13.1155C1.14137 13.0833 1.22977 13.0599 1.31609 13.0339C1.61249 12.9444 1.91669 12.9871 2.21725 12.9855C3.27181 12.9803 4.32637 12.9855 5.38041 12.9855C5.54577 12.9855 5.56449 12.9668 5.62533 12.8144C5.67369 12.6943 5.73453 12.5799 5.79225 12.4639C5.86921 12.3079 5.94825 12.1519 6.02781 11.9959C6.10737 11.8399 6.17653 11.6964 6.25141 11.5466C6.32629 11.3969 6.40741 11.2346 6.48333 11.0786C6.55648 10.9317 6.63015 10.7848 6.70433 10.6382C6.78199 10.4832 6.85964 10.3281 6.93729 10.1728C7.01529 10.0168 7.09329 9.86549 7.17233 9.71053C7.26593 9.52125 7.35485 9.32937 7.44949 9.13853C7.52489 8.98825 7.60861 8.84213 7.68401 8.69184C7.75941 8.54156 7.82753 8.38296 7.90345 8.2306C7.97937 8.07824 8.05945 7.93264 8.13797 7.78288C8.21025 7.64196 8.27681 7.4974 8.35273 7.35856C8.46887 7.14558 8.63085 6.96105 8.82697 6.81828C8.97214 6.71212 9.134 6.63093 9.30589 6.57804C9.41739 6.54376 9.5323 6.52179 9.64857 6.51252C10.2419 6.46052 11.1046 6.50836 11.7463 6.50836H13.6183C14.1284 6.50836 15.6983 6.47612 16.354 6.512C16.5143 6.51933 16.6724 6.5527 16.822 6.6108C16.9519 6.66387 17.0743 6.73381 17.186 6.8188C17.3831 6.96403 17.5463 7.15032 17.6644 7.3648C17.7445 7.51508 17.8251 7.66536 17.9031 7.8172C17.9743 7.95656 18.0435 8.09696 18.1111 8.23736C18.1891 8.39337 18.2671 8.55352 18.3451 8.71056C18.4163 8.85201 18.4938 8.99085 18.5635 9.13333C18.6383 9.28673 18.7033 9.44533 18.7787 9.59769C18.8744 9.79217 18.9769 9.98353 19.0757 10.177C19.1547 10.3319 19.233 10.4871 19.3107 10.6424C19.3851 10.7921 19.4573 10.9424 19.5312 11.0922C19.605 11.2419 19.6742 11.3834 19.7475 11.5284C19.8265 11.6844 19.9071 11.8404 19.9867 11.9964C20.0663 12.1524 20.1427 12.2996 20.216 12.452C20.2748 12.5705 20.3372 12.6881 20.3871 12.8108C20.449 12.9626 20.4667 12.9803 20.6331 12.9803C21.8148 12.9803 22.9966 12.9803 24.1784 12.9803C24.4029 12.9739 24.6269 13.0056 24.8409 13.0739C25.0191 13.1388 25.1873 13.2284 25.3406 13.3401C25.4802 13.4399 25.5978 13.5673 25.6859 13.7145C26.0343 14.2465 25.9303 14.8185 25.909 14.9267Z" />
<path d="M13.009 6.39876C14.7479 6.39876 16.1576 4.98909 16.1576 3.25016C16.1576 1.51124 14.7479 0.101562 13.009 0.101562C11.27 0.101562 9.86035 1.51124 9.86035 3.25016C9.86035 4.98909 11.27 6.39876 13.009 6.39876Z" />
<path d="M10.6708 19.8619L10.2439 20.0246L10.2179 20.0345L6.14111 21.5914L5.70431 21.4302L4.36115 20.9346C4.16069 20.862 3.97656 20.7505 3.81936 20.6064C3.66216 20.4624 3.53499 20.2887 3.44518 20.0953C3.35536 19.902 3.30466 19.6928 3.29601 19.4797C3.28736 19.2667 3.32091 19.054 3.39475 18.854C3.46859 18.654 3.58124 18.4706 3.72624 18.3143C3.87124 18.1579 4.04572 18.0318 4.23963 17.9432C4.43355 17.8546 4.64308 17.8052 4.85616 17.7978C5.06924 17.7905 5.28168 17.8254 5.48123 17.9004L8.54923 19.033C8.88515 19.1682 9.22506 19.3025 9.56895 19.436C9.79463 19.524 10.02 19.6107 10.245 19.696L10.6708 19.8619Z" />
<path d="M10.6709 19.8693L10.2388 20.0315L10.6672 19.8672L10.6709 19.8693Z" />
<path d="M20.5077 17.8945L7.59003 22.7859C6.75368 23.1026 6.33242 24.0374 6.64911 24.8737L6.6493 24.8742C6.966 25.7105 7.90073 26.1318 8.73708 25.8151L21.6547 20.9236C22.4911 20.6069 22.9123 19.6722 22.5956 18.8359L22.5954 18.8354C22.2787 17.999 21.344 17.5778 20.5077 17.8945Z" />
<path d="M19.3103 23.543L15.3401 25.0348L17.3078 25.7847C18.0555 26.0332 18.8558 25.7628 19.2469 25.1607C19.7284 24.4212 19.3301 23.5825 19.3103 23.543Z" />
</g>
<defs>
<clipPath id="clip0">
<rect width="26" height="26" fill="white"/>
</clipPath>
</defs>
</svg>
