<svg width="26" height="26" viewBox="0 0 26 26" fill="#000" xmlns="http://www.w3.org/2000/svg">
<path d="M25.4006 2.10593C25.477 2.44497 25.5181 2.79181 25.4578 3.13189C25.4338 3.2705 25.3775 3.40152 25.2935 3.51435C25.2095 3.62717 25.1001 3.71865 24.9742 3.78137C24.8066 3.86356 24.6214 3.90304 24.4349 3.89629C24.1629 3.89511 23.892 3.86284 23.6274 3.80009C23.4303 3.75485 23.2238 3.75173 23.021 3.73249C22.9451 3.72521 22.9092 3.77201 22.904 3.84169C22.8955 4.04566 22.9215 4.24961 22.981 4.44489C23.0081 4.54281 23.0281 4.64257 23.0408 4.74337C23.072 5.02365 23.1287 5.30705 23.0408 5.58577C22.9529 5.86449 22.7933 6.07873 22.513 6.20977C22.2327 6.34081 21.941 6.31377 21.6503 6.29245C21.4423 6.27737 21.2426 6.20249 21.0367 6.16713C20.9085 6.14658 20.7786 6.1377 20.6488 6.14061C20.5266 6.14061 20.4793 6.18845 20.486 6.31273C20.4971 6.45522 20.5167 6.59692 20.5448 6.73705C20.5635 6.84105 20.5968 6.94505 20.615 7.05217C20.6628 7.31217 20.7164 7.57217 20.6727 7.83217C20.6072 8.22841 20.3997 8.53417 20.0024 8.65741C19.7621 8.74152 19.5017 8.74933 19.2568 8.67977C19.1679 8.65908 19.0777 8.64448 18.9869 8.6361C18.7664 8.59917 18.5475 8.54613 18.3254 8.52845C18.1034 8.51077 18.105 8.56693 18.1044 8.73333C18.1118 8.95411 18.1439 9.17336 18.2001 9.38697C18.2672 9.68701 18.3098 9.99745 18.2521 10.3011C18.1856 10.6558 17.9921 10.9293 17.6281 11.0437C17.4128 11.1108 17.1976 11.155 16.9688 11.1009C16.8128 11.064 16.6521 11.0583 16.4945 11.0317C16.3713 11.0109 16.2506 10.9745 16.1274 10.9553C15.9459 10.9272 15.7717 10.9137 15.6074 11.0416C15.2034 11.3536 14.6293 11.1243 14.48 10.6969C14.3506 10.3251 14.4904 9.99017 14.7858 9.77281C15.0162 9.60382 15.271 9.51853 15.5492 9.46081C15.8684 9.39322 16.1732 9.46913 16.4852 9.48837C16.5511 9.49977 16.6158 9.51718 16.6786 9.54037C16.6568 9.39373 16.6328 9.27413 16.6219 9.15298C16.5964 8.86801 16.5725 8.58461 16.638 8.29861C16.671 8.13841 16.7246 7.98319 16.7977 7.83685C16.9089 7.62504 17.0716 7.44462 17.2709 7.31217C17.6297 7.06985 18.0306 7.01473 18.4513 7.05217L19.0753 7.10729C19.068 7.03605 19.0571 6.97001 19.0545 6.90397C19.0436 6.57013 18.9962 6.23213 19.0342 5.90401C19.0784 5.52597 19.2843 5.20357 19.588 4.96801C19.7695 4.82917 19.9788 4.73093 20.2016 4.67993C20.5042 4.60557 20.8064 4.64405 21.1085 4.64873C21.2276 4.64873 21.3466 4.69033 21.4777 4.71477C21.4798 4.67181 21.4798 4.62877 21.4777 4.58581C21.4496 4.34245 21.3888 4.09857 21.3971 3.85781C21.4148 3.34873 21.5702 2.88697 21.9982 2.56249C22.2005 2.40649 22.421 2.29105 22.682 2.27129C22.8713 2.25673 23.0616 2.22397 23.2504 2.22969C23.4403 2.24227 23.6293 2.26711 23.8161 2.30405C23.8811 2.31445 23.8983 2.29469 23.8853 2.23385C23.8105 1.91761 23.7871 1.59137 23.8161 1.26769C23.8619 0.847534 24.0127 0.470014 24.3616 0.200654C24.4165 0.158298 24.4782 0.125591 24.5441 0.103934C24.7477 0.0397432 24.9684 0.0584284 25.1582 0.155934C25.2415 0.200543 25.3155 0.26074 25.3761 0.333254C25.468 0.445692 25.5257 0.582158 25.5423 0.726425C25.5589 0.870691 25.5337 1.01669 25.4697 1.14705C25.4564 1.18138 25.4376 1.21333 25.4141 1.24169C25.2518 1.42577 25.3044 1.63169 25.3491 1.83761C25.3683 1.92653 25.3803 2.01701 25.4006 2.10593Z" />
<path d="M14.6121 20.8066C14.4977 20.8518 14.3666 20.9049 14.2346 20.9563C14.0697 21.0208 13.9049 21.0853 13.739 21.1472C13.5898 21.2028 13.4379 21.2538 13.2887 21.3099C13.0287 21.4077 12.7718 21.5096 12.5128 21.6079C12.2445 21.7119 11.9762 21.8123 11.7053 21.9069C11.6817 21.9119 11.6573 21.9119 11.6337 21.9068C11.6101 21.9017 11.5879 21.8916 11.5685 21.8773C11.1036 21.5174 10.6688 21.1202 10.2685 20.6896C9.97264 20.3677 9.68612 20.0344 9.41936 19.6881C9.20564 19.4109 9.02468 19.1077 8.83644 18.8124C8.68824 18.5794 8.54108 18.3444 8.41108 18.1026C8.27536 17.8493 8.15732 17.5857 8.0372 17.3226C7.93632 17.1021 7.83856 16.8801 7.74912 16.6549C7.68568 16.4937 7.63784 16.3263 7.58532 16.1609C7.52084 15.9591 7.45428 15.7579 7.3976 15.5541C7.35184 15.3887 7.31908 15.2192 7.28216 15.0512C7.26032 14.9524 7.23796 14.8531 7.22288 14.7527C7.17088 14.4142 7.11888 14.0767 7.07156 13.7361C6.99294 13.188 6.96405 12.6338 6.98524 12.0805C6.9998 11.7601 7.03724 11.4414 7.07 11.1221C7.08872 10.9292 7.10432 10.7352 7.13604 10.5439C7.17452 10.3145 7.2286 10.0878 7.2754 9.86006C7.29256 9.77738 7.304 9.69366 7.3274 9.61254C7.39084 9.37178 7.45532 9.13102 7.52552 8.89234C7.59312 8.66406 7.66228 8.43682 7.74236 8.2127C7.8188 7.99898 7.90928 7.78942 7.99664 7.57934C8.00704 7.55438 8.03824 7.53774 8.04864 7.52734L10.8161 10.2792C10.8332 10.2963 10.8556 10.3213 10.8551 10.3421C10.8509 10.4783 10.841 10.6146 10.8327 10.7503C10.8275 10.8392 10.8176 10.9276 10.8171 11.0165C10.8171 11.2599 10.8124 11.5033 10.8202 11.7445C10.8291 12.0243 10.8421 12.3041 10.867 12.5828C10.8915 12.8537 10.9268 13.1241 10.971 13.3929C11.0152 13.6618 11.06 13.9275 11.1187 14.1917C11.1707 14.4314 11.244 14.6664 11.3075 14.9035C11.3595 15.1017 11.4052 15.3029 11.4702 15.4969C11.5576 15.7605 11.6585 16.0195 11.7588 16.2769C11.8405 16.4885 11.9216 16.7012 12.0188 16.9071C12.1436 17.177 12.2788 17.4427 12.4161 17.7058C12.5487 17.958 12.6798 18.2123 12.8321 18.452C13.0724 18.828 13.3147 19.2045 13.5856 19.5586C13.9064 19.986 14.2616 20.3864 14.6121 20.8066Z" />
<path d="M9.96745 22.553C9.73085 22.6461 9.51401 22.734 9.29509 22.813C9.05173 22.9035 8.80473 22.9862 8.56085 23.0761C8.40485 23.1328 8.25717 23.1988 8.10377 23.2576C7.95037 23.3164 7.80373 23.3673 7.65449 23.424C7.48913 23.4869 7.32481 23.553 7.15997 23.6164C7.10069 23.6393 7.03933 23.6564 6.98005 23.6793C6.87137 23.7204 6.81729 23.6346 6.75645 23.5795C6.34149 23.2117 5.95165 22.8165 5.58957 22.3965C5.2045 21.9575 4.85941 21.485 4.55841 20.9847C4.33377 20.5978 4.11901 20.2047 3.90789 19.8095C3.79903 19.606 3.70114 19.3968 3.61461 19.1829C3.51581 18.938 3.43573 18.6858 3.34993 18.4362C3.28493 18.249 3.22097 18.0618 3.16169 17.873C3.12819 17.7882 3.10886 17.6984 3.10449 17.6073C3.11123 17.4946 3.13399 17.3834 3.17209 17.2771C3.24281 17.0691 3.32809 16.8637 3.40349 16.6578L3.56989 16.2163C3.63125 16.054 3.69209 15.8913 3.75397 15.729C3.84913 15.4789 3.94689 15.2293 4.04049 14.9787C4.11693 14.7707 4.18713 14.5627 4.26461 14.3573C4.32233 14.2039 4.38941 14.0541 4.44713 13.9007C4.50485 13.7473 4.55633 13.5851 4.61301 13.428C4.66501 13.284 4.72013 13.141 4.77525 12.998C4.83661 12.8384 4.90109 12.6798 4.96089 12.5196C5.02069 12.3594 5.07113 12.2076 5.12885 12.0558C5.18657 11.9039 5.25157 11.7469 5.30981 11.5914C5.36805 11.4359 5.42889 11.2654 5.50897 11.1016C5.51399 11.1421 5.51694 11.1829 5.51781 11.2238C5.50429 11.7635 5.48141 12.3033 5.47777 12.8425C5.47777 13.1358 5.49909 13.4296 5.52509 13.7218C5.54849 13.9818 5.58489 14.2418 5.62909 14.5018C5.67173 14.7686 5.72165 15.0354 5.77989 15.2995C5.83813 15.5637 5.90573 15.8304 5.97957 16.093C6.03157 16.2797 6.10385 16.4612 6.16521 16.6453C6.21721 16.8065 6.26401 16.9708 6.32485 17.1294C6.41585 17.3665 6.51361 17.601 6.61449 17.8335C6.71537 18.0659 6.82249 18.3088 6.93741 18.5417C7.03725 18.7445 7.14541 18.9426 7.25981 19.1392C7.38305 19.355 7.51201 19.5677 7.64201 19.7798C7.70961 19.8896 7.78137 19.9977 7.85729 20.1022C8.02837 20.3373 8.19269 20.5791 8.37729 20.8011C8.72569 21.2171 9.00129 21.5291 9.36165 21.9186C9.54105 22.112 9.74333 22.3247 9.96745 22.553Z" />
<path d="M18.9073 18.6942C18.8875 19.0114 18.7253 19.2766 18.3769 19.3999C18.2167 19.4565 18.0618 19.5283 17.9027 19.5886C17.7534 19.6453 17.6011 19.6926 17.4518 19.7493C17.2438 19.8257 17.041 19.9053 16.8356 19.9843C16.6902 20.0334 16.5474 20.0898 16.4077 20.1533C16.2309 20.2428 16.1232 20.1497 16.0125 20.0369C15.5881 19.6058 15.1711 19.1669 14.8128 18.6791C14.5263 18.2891 14.2507 17.8893 13.9969 17.4779C13.8088 17.16 13.6377 16.8323 13.4842 16.4962C13.3407 16.1956 13.2107 15.8873 13.0895 15.5768C13.0032 15.3574 12.9403 15.1286 12.8696 14.9008C12.8051 14.6959 12.738 14.4916 12.6829 14.2836C12.6678 14.2269 12.6257 14.0574 12.5706 13.7573C12.5217 13.4921 12.4811 13.2228 12.3584 12.175C12.3428 12.0424 12.3303 11.9337 12.322 11.863C12.3309 11.8541 12.3402 11.8453 12.3491 11.8359C12.3885 11.8583 12.4259 11.884 12.4609 11.9129C13.1816 12.6315 13.9014 13.351 14.6204 14.0714C15.4431 14.8941 16.266 15.7167 17.0894 16.5393C17.6219 17.0749 18.1545 17.6111 18.6873 18.1477C18.761 18.2177 18.8188 18.3027 18.8568 18.397C18.8947 18.4913 18.912 18.5927 18.9073 18.6942Z" />
<path d="M5.21452 24.3395C4.9618 24.4331 4.71168 24.5345 4.45896 24.6281C4.20624 24.7217 3.9608 24.8013 3.71432 24.8938C3.37996 25.0202 3.04872 25.1538 2.71385 25.2828C2.46736 25.3753 2.2162 25.4565 1.9692 25.548C1.7222 25.6395 1.47364 25.7518 1.21884 25.8319C1.13815 25.8546 1.05377 25.8613 0.970516 25.8514C0.887265 25.8414 0.806786 25.8152 0.733685 25.7742C0.567805 25.6879 0.430525 25.5703 0.363965 25.392C0.311965 25.2511 0.251125 25.1107 0.315085 24.95C0.409205 24.7149 0.489805 24.4742 0.575085 24.2355C0.679085 23.9427 0.783085 23.6479 0.890725 23.3567C0.998365 23.0655 1.12004 22.7795 1.22924 22.4888C1.33844 22.1981 1.43724 21.909 1.54124 21.6209C1.63328 21.3734 1.73468 21.1301 1.82672 20.8831C1.90264 20.6798 1.96868 20.4728 2.04356 20.269C2.09556 20.1249 2.15744 19.983 2.22816 19.8077C2.2292 19.8056 2.23079 19.8039 2.23277 19.8027C2.23474 19.8014 2.23702 19.8008 2.23934 19.8008C2.24167 19.8008 2.24395 19.8014 2.24592 19.8027C2.2479 19.8039 2.24949 19.8056 2.25052 19.8077L2.34048 19.9949C2.45696 20.2362 2.56097 20.4842 2.68836 20.7193C2.92236 21.1498 3.15636 21.583 3.41636 21.9959C3.64024 22.3386 3.88329 22.6685 4.14436 22.9839C4.43868 23.3479 4.75432 23.6931 5.06164 24.0457C5.11364 24.1076 5.17553 24.1653 5.23428 24.2235C5.29305 24.2818 5.29616 24.3088 5.21452 24.3395Z" />
<path d="M25.5319 11.6514C25.5086 11.7639 25.4601 11.8698 25.3899 11.9608C25.3197 12.0519 25.2298 12.1258 25.1269 12.1771C24.9521 12.2722 24.7629 12.2728 24.5746 12.2228C24.4831 12.1989 24.3932 12.1682 24.3001 12.1521C23.8425 12.0731 23.3802 12.085 22.9205 12.1126C22.6865 12.1266 22.4551 12.1916 22.2237 12.24C22.0677 12.2722 21.9148 12.3086 21.7646 12.356C21.6151 12.4037 21.4684 12.4596 21.3252 12.5234C21.1307 12.6097 20.9367 12.6992 20.7495 12.8C20.5379 12.9144 20.3278 13.0335 20.1281 13.1672C19.797 13.3907 19.484 13.64 19.1921 13.9128C19.0538 14.0413 18.9217 14.1827 18.7642 14.2815C18.5229 14.4334 18.2634 14.4214 18.0086 14.2878C17.7538 14.1541 17.6446 13.916 17.6332 13.6456C17.6233 13.4006 17.7372 13.1911 17.9202 13.0257C18.1199 12.8442 18.3159 12.657 18.527 12.4891C18.8063 12.267 19.0892 12.046 19.3887 11.8531C19.7225 11.6378 20.0714 11.4439 20.425 11.2629C20.6434 11.1506 20.8821 11.0762 21.114 10.9904C21.2934 10.9244 21.4739 10.8584 21.6574 10.8069C21.8296 10.7585 22.0064 10.7237 22.1826 10.6914C22.2981 10.6701 22.4978 10.6337 22.7458 10.6067C23.161 10.5531 23.5811 10.5482 23.9974 10.5921C24.0848 10.6025 24.2366 10.6254 24.5403 10.6769C24.6474 10.6951 24.753 10.7211 24.8601 10.7393C25.104 10.7814 25.3104 10.8896 25.4347 11.108C25.5367 11.2695 25.5716 11.4645 25.5319 11.6514Z" />
<path d="M15.5771 2.7258C15.5791 2.97514 15.5653 3.22437 15.5361 3.472C15.5033 3.74742 15.4529 4.02046 15.3853 4.28944C15.3021 4.62167 15.2002 4.94893 15.08 5.26964C14.9647 5.56674 14.8283 5.85521 14.6718 6.13284C14.4961 6.44484 14.2985 6.75164 14.0936 7.04856C13.785 7.48766 13.4369 7.89757 13.0536 8.27316C12.6979 8.62832 12.1784 8.5706 11.895 8.19256C11.8146 8.07899 11.7672 7.94538 11.758 7.80652C11.7488 7.66765 11.7782 7.52896 11.843 7.4058C11.9408 7.22016 12.1072 7.10004 12.2398 6.94716C12.5617 6.57536 12.8794 6.20096 13.1269 5.77352C13.26 5.54316 13.4035 5.31644 13.5153 5.07568C13.6175 4.84095 13.7059 4.60048 13.78 4.35548C13.8398 4.17504 13.9053 3.97068 13.9703 3.69612C14.0416 3.39504 14.0821 3.22344 14.0977 2.9858C14.126 2.66675 14.0993 2.34523 14.0187 2.03524C13.9693 1.85376 13.9568 1.71544 13.8965 1.48248C13.8673 1.34223 13.8842 1.19628 13.9449 1.06648C13.981 0.965958 14.0397 0.875044 14.1164 0.800688C14.1931 0.726332 14.2858 0.670504 14.3874 0.637476C14.4728 0.616443 14.5597 0.601842 14.6474 0.593796C14.9625 0.590676 15.1814 0.746156 15.3182 1.0098C15.3847 1.13824 15.4081 1.29008 15.4425 1.43308C15.4768 1.57608 15.4986 1.71908 15.5262 1.86208C15.5318 1.88153 15.5361 1.90133 15.5392 1.92136C15.5527 2.18708 15.5766 2.45644 15.5771 2.7258Z" />
<path d="M23.4062 15.7701C23.4089 15.8695 23.3914 15.9683 23.3547 16.0606C23.3181 16.1529 23.263 16.2369 23.193 16.3073C23.1229 16.3777 23.0392 16.4331 22.9471 16.4702C22.8549 16.5073 22.7562 16.5253 22.6569 16.5231C22.5575 16.5239 22.459 16.5048 22.3671 16.4672C22.2752 16.4295 22.1917 16.3739 22.1215 16.3036C22.0513 16.2334 21.9957 16.1498 21.9581 16.0579C21.9205 15.9659 21.9015 15.8674 21.9024 15.7681C21.9041 15.5683 21.9846 15.3774 22.1262 15.2365C22.2678 15.0957 22.4592 15.0163 22.659 15.0156C23.0609 15.0136 23.4249 15.3505 23.4062 15.7701Z" />
<path d="M18.385 3.69812C17.9212 3.68928 17.6217 3.35076 17.6352 2.941C17.6524 2.43295 17.9872 2.19583 18.3934 2.19531C18.7995 2.19479 19.1401 2.48391 19.1266 2.95192C19.1531 3.36324 18.7907 3.7054 18.385 3.69812Z" />
<path d="M11.6606 4.02216C11.6481 4.47196 11.3153 4.77252 10.905 4.77044C10.475 4.77044 10.1583 4.4444 10.1531 4.0102C10.149 3.62904 10.4854 3.24216 10.9102 3.27544C11.3455 3.24788 11.6715 3.63996 11.6606 4.02216Z" />
<path d="M24.4722 8.29657C24.493 8.71257 24.1374 9.04642 23.7292 9.04226C23.2934 9.0381 22.9783 8.71933 22.9783 8.29813C22.9783 7.84833 23.3038 7.54569 23.7312 7.54309C23.8301 7.54127 23.9283 7.5596 24.0199 7.59698C24.1114 7.63436 24.1944 7.69 24.2637 7.76051C24.3331 7.83102 24.3873 7.91491 24.4232 8.00708C24.459 8.09924 24.4757 8.19775 24.4722 8.29657Z" />
</svg>
