<svg width="26" height="26" viewBox="0 0 26 26" fill="#000" xmlns="http://www.w3.org/2000/svg">
<path d="M25.8695 11.9998C25.8501 12.1624 25.8195 12.3235 25.778 12.4819C25.7338 12.6467 25.6938 12.8199 25.6106 12.966C25.5102 13.1438 25.3709 13.3009 25.2409 13.461C25.0256 13.7257 24.7354 13.89 24.4343 14.033C24.3729 14.0618 24.3083 14.0834 24.2419 14.0975C24.179 14.1115 24.1629 14.1495 24.1556 14.2062C24.1114 14.5671 24.0625 14.9274 24.0173 15.2883C23.9986 15.4381 23.9835 15.5883 23.9689 15.7386C23.9461 15.9653 23.9268 16.1921 23.9024 16.4183C23.8769 16.6559 23.8504 16.9601 23.7958 17.3397C23.7308 17.8119 23.6918 17.9783 23.594 18.1665C23.5335 18.2839 23.4603 18.3943 23.3756 18.4957C23.2151 18.6873 23.0182 18.8453 22.7963 18.9605C22.5814 19.0769 22.3549 19.1701 22.1203 19.2387C21.7579 19.3469 21.3851 19.4163 21.0081 19.4457C16.6073 19.7239 7.33726 19.4421 4.92862 19.4421C4.70086 19.4421 4.47258 19.3901 4.2469 19.35C4.0785 19.3265 3.9125 19.2882 3.75082 19.2356C3.33482 19.0827 2.93546 18.8971 2.62346 18.557C2.41858 18.3339 2.2969 18.0745 2.19186 17.8004C2.18813 17.787 2.18621 17.7732 2.18614 17.7593C2.14922 17.3787 2.11386 16.9986 2.07382 16.6185C2.04262 16.3205 2.00518 16.0236 1.96982 15.7267C1.93931 15.4639 1.90672 15.2013 1.87206 14.9389C1.84138 14.6872 1.81122 14.435 1.77742 14.1838C1.76286 14.0741 1.65158 14.0798 1.58554 14.0595C1.36738 13.9831 1.163 13.8719 0.980257 13.7304C0.715792 13.5285 0.496357 13.2736 0.335977 12.9821C0.257335 12.8409 0.200034 12.6888 0.165937 12.5307C0.0819703 12.2162 0.0609413 11.8883 0.104057 11.5656C0.147328 11.2681 0.245544 10.9812 0.393697 10.7196C0.571422 10.4067 0.822504 10.1417 1.12534 9.94739C1.28134 9.84339 1.46334 9.78307 1.63702 9.71027C1.93005 9.59009 2.24768 9.54212 2.56314 9.57039C2.84297 9.59349 3.11661 9.66529 3.37174 9.78255C3.61644 9.89698 3.83882 10.054 4.0285 10.2464C4.20155 10.4115 4.34259 10.6072 4.4445 10.8236C4.53342 11.0186 4.61142 11.2188 4.69878 11.4148C4.82878 11.7055 4.96398 11.9936 5.0945 12.2837C5.23334 12.5957 5.36802 12.9077 5.50686 13.2166C5.54971 13.3152 5.59797 13.4114 5.65142 13.5047C5.66193 13.5177 5.67553 13.5278 5.69098 13.5342C5.70642 13.5405 5.72321 13.5429 5.73982 13.5411C5.93066 13.4839 6.11942 13.4173 6.31182 13.3581C6.3893 13.3336 6.46782 13.3211 6.54946 13.3019C6.82454 13.2353 7.09806 13.1636 7.37418 13.1027C7.58218 13.057 7.79018 13.0268 7.99818 12.9868C8.21918 12.9436 8.43862 12.8937 8.66014 12.8526C8.80834 12.8251 8.95862 12.8074 9.10786 12.784C9.39854 12.7387 9.68922 12.6909 9.98042 12.6477C10.113 12.6285 10.2461 12.6145 10.3798 12.603C10.658 12.5786 10.9362 12.551 11.2144 12.5365C11.7864 12.5027 12.3584 12.4746 12.9304 12.4455C12.9891 12.4423 13.0479 12.4408 13.1067 12.4455C13.5487 12.4616 13.9907 12.473 14.4327 12.4975C14.6927 12.5125 14.9527 12.5495 15.2127 12.5755C15.2605 12.5807 15.3089 12.5859 15.3567 12.5895C15.5834 12.6087 15.8107 12.6197 16.0358 12.6477C16.3797 12.6911 16.7224 12.7406 17.0639 12.7965C17.3436 12.8422 17.6223 12.8963 17.9 12.9525C18.1668 13.0081 18.4315 13.0736 18.6972 13.1329C18.8735 13.1724 19.0518 13.2021 19.226 13.2478C19.434 13.3029 19.642 13.3716 19.85 13.4324C19.9863 13.4725 20.1235 13.5089 20.2728 13.5505C20.4288 13.1932 20.5822 12.836 20.7408 12.4803C20.8448 12.2432 20.9607 12.0097 21.0679 11.7731C21.1797 11.524 21.2878 11.2729 21.397 11.0222C21.5521 10.6481 21.7993 10.3193 22.1157 10.0665C22.3119 9.91291 22.5313 9.79162 22.7657 9.70715C23.0573 9.59331 23.3709 9.54708 23.6829 9.57195C23.8932 9.59148 24.1006 9.63456 24.3012 9.70039C24.4713 9.75529 24.634 9.83072 24.7859 9.92503C25.06 10.1068 25.2959 10.3405 25.4801 10.613C25.5388 10.6998 25.9356 11.3165 25.8695 11.9998Z"/>
<path d="M23.8681 8.37163C23.7397 8.36591 23.6305 8.35187 23.5213 8.35707C23.2092 8.36873 22.8994 8.41548 22.5978 8.49643C22.2125 8.60651 21.848 8.77921 21.5188 9.00759C21.2465 9.19613 21.0036 9.42393 20.798 9.68359C20.6077 9.91667 20.4509 10.1752 20.3321 10.4516C20.1954 10.774 20.042 11.0891 19.8969 11.4079C19.8449 11.5239 19.7861 11.6383 19.7435 11.7584C19.6884 11.9144 19.6691 11.9024 19.4908 11.8624C19.2885 11.8172 19.0872 11.7657 18.8839 11.7251C18.6322 11.6731 18.379 11.6341 18.1263 11.5894C18.1164 11.5894 18.106 11.5847 18.0961 11.5837L17.5018 11.5218L16.1643 11.3876C16.1503 11.3876 16.1368 11.3835 16.1232 11.3829C15.7894 11.3642 15.4556 11.3419 15.1217 11.3273C14.5528 11.3029 13.9834 11.2826 13.4146 11.2613C13.1546 11.2514 12.8977 11.2327 12.6398 11.2379C12.1806 11.2477 11.722 11.2706 11.2633 11.2899C11.0465 11.3003 10.8296 11.3179 10.6133 11.3346C10.1838 11.3673 9.75376 11.3985 9.32476 11.4386C9.0164 11.4661 8.70908 11.502 8.40176 11.5389C8.16672 11.567 7.93376 11.5961 7.69872 11.6351C7.45276 11.6762 7.20836 11.7282 6.96344 11.7771C6.7934 11.8114 6.62336 11.8478 6.45332 11.8837C6.43564 11.8873 6.419 11.8936 6.40132 11.8983L6.37168 11.9066L6.31968 11.9227C6.28848 11.9321 6.28224 11.9336 6.27392 11.9305C6.26438 11.9263 6.25613 11.9197 6.25 11.9113C6.24337 11.9016 6.23762 11.8913 6.23284 11.8806C6.224 11.8629 6.2188 11.8551 6.2162 11.8494C6.02068 11.4693 5.8184 10.9701 5.8184 10.9701C5.72376 10.7522 5.65616 10.5208 5.54852 10.3102C5.4441 10.1109 5.3223 9.92124 5.18452 9.74339C5.00069 9.49868 4.78347 9.28093 4.5392 9.09651C4.29721 8.91604 4.03554 8.76357 3.7592 8.64203C3.53001 8.53972 3.28972 8.46433 3.04316 8.41739C2.76808 8.36539 2.48052 8.36955 2.19868 8.36903C2.09468 8.36903 2.07024 8.34615 2.08168 8.25307C2.1134 8.00087 2.1368 7.74711 2.17528 7.49595C2.20153 7.30687 2.24044 7.11977 2.29176 6.93591C2.34433 6.75317 2.41271 6.57535 2.49612 6.40447C2.61125 6.16593 2.7417 5.93508 2.88664 5.71339C3.04738 5.4744 3.22334 5.24599 3.4134 5.02959C3.64175 4.77126 3.90559 4.54664 4.19704 4.36243C4.42958 4.21677 4.66964 4.08347 4.9162 3.96307C5.09976 3.87155 5.2932 3.79979 5.48508 3.72543C5.56201 3.70067 5.64054 3.68121 5.72012 3.66719C6.18327 3.56171 6.65692 3.50938 7.13192 3.51119C10.4752 3.51431 13.8186 3.51431 17.1622 3.51119C17.7675 3.51119 18.3728 3.50131 18.9775 3.51535C19.2736 3.52909 19.5688 3.5593 19.8615 3.60583C20.0545 3.62625 20.245 3.66544 20.4304 3.72283C20.6903 3.81617 20.945 3.92362 21.1932 4.04471C21.357 4.12071 21.5136 4.21121 21.6612 4.31511C21.8952 4.48203 22.124 4.65779 22.3414 4.84603C22.6006 5.07435 22.8264 5.33797 23.0122 5.62915C23.1565 5.85592 23.2876 6.09083 23.4048 6.33271C23.4974 6.51748 23.5766 6.70864 23.6419 6.90471C23.6911 7.07154 23.7302 7.2412 23.7589 7.41275C23.7901 7.56407 23.8218 7.71539 23.839 7.86827C23.8577 8.03051 23.8582 8.19535 23.8681 8.37163Z"/>
<path d="M5.9077 21.5659C5.89807 21.7036 5.85749 21.8375 5.78897 21.9574C5.72046 22.0773 5.62578 22.1802 5.51198 22.2585C5.30529 22.4081 5.05323 22.4816 4.79854 22.4665C4.5219 22.4592 4.24526 22.4629 3.96654 22.4665C3.79024 22.4727 3.61528 22.4339 3.45809 22.3539C3.3009 22.2738 3.16665 22.1551 3.06798 22.0089C2.96146 21.8574 2.90228 21.6777 2.89794 21.4925C2.88546 20.9918 2.89274 20.49 2.89274 19.9887C2.89518 19.9701 2.89901 19.9517 2.90418 19.9336C2.99695 20.0013 3.09443 20.0623 3.1959 20.1161C3.35187 20.1866 3.51239 20.2465 3.67638 20.2955C4.37578 20.5035 5.09598 20.4422 5.81098 20.4515H5.90666C5.912 20.4732 5.91565 20.4953 5.91758 20.5176C5.91446 20.8675 5.92798 21.2175 5.9077 21.5659Z"/>
<path d="M23.0486 21.3706C23.0486 21.7456 22.916 22.0602 22.6004 22.2817C22.4552 22.3903 22.2811 22.4533 22.1001 22.4626C21.7236 22.4715 21.3456 22.4824 20.9701 22.4626C20.7667 22.4516 20.5715 22.3785 20.4109 22.2531C20.2503 22.1276 20.132 21.9559 20.0721 21.7612C20.0359 21.6327 20.0201 21.4993 20.0253 21.366C20.0217 21.0664 20.0253 20.7664 20.0253 20.4534H20.1569C20.589 20.4492 21.0216 20.4596 21.4527 20.4352C21.7127 20.4206 21.9644 20.3514 22.2202 20.3067C22.5076 20.257 22.7774 20.1344 23.0039 19.9505C23.0101 19.9453 23.0231 19.9479 23.046 19.9453C23.046 19.9838 23.0507 20.0197 23.0507 20.0556C23.0491 20.4944 23.0512 20.9333 23.0486 21.3706Z"/>
</svg>
