<svg width="26" height="26" viewBox="0 0 26 26" fill="#000" xmlns="http://www.w3.org/2000/svg">
<path d="M12.4617 12.6211C12.4923 12.6663 12.5241 12.7111 12.5574 12.7547C12.5236 12.7121 12.4918 12.6669 12.4617 12.6211Z" />
<path d="M17.2775 9.18694C17.2594 10.7029 16.8376 12.1866 16.0555 13.4853C16.037 13.4876 16.0183 13.4876 15.9998 13.4853L15.9406 13.4775L15.8522 13.4629C15.7571 13.4442 15.6632 13.42 15.5708 13.3906C15.523 13.375 15.4559 13.349 15.2214 13.2539C15.1281 13.2201 15.0367 13.181 14.9479 13.1369C14.7983 13.059 14.6541 12.9711 14.5163 12.8737C14.3319 12.7373 14.1555 12.5905 13.988 12.4338C13.8712 12.3174 13.7634 12.1922 13.6656 12.0594C13.5798 11.9507 13.5033 11.8337 13.4258 11.7188C13.4031 11.6819 13.3828 11.6435 13.365 11.6039L13.2958 11.4687C13.7951 10.5258 13.9878 9.45059 13.847 8.39298C13.7062 7.33536 13.2389 6.34804 12.5103 5.56861C11.7816 4.78919 10.828 4.25652 9.78227 4.04484C8.73653 3.83316 7.6508 3.95302 6.67643 4.38771C5.70205 4.82241 4.88757 5.55028 4.34652 6.46987C3.80547 7.38945 3.56481 8.45494 3.65809 9.5178C3.75137 10.5807 4.17393 11.5879 4.86688 12.3992C5.55983 13.2105 6.48864 13.7854 7.52384 14.0437C7.58156 14.0583 7.6398 14.0718 7.69856 14.0838C7.75732 14.2174 7.83896 14.3438 7.90656 14.4722C7.97416 14.6007 8.04644 14.7494 8.1234 14.8835C8.18736 14.9953 8.26068 15.1014 8.3314 15.2091C8.41356 15.3344 8.49364 15.4613 8.58047 15.584C8.65588 15.688 8.73648 15.792 8.81916 15.8934C8.9346 16.0369 9.04796 16.1835 9.17068 16.3208C9.32668 16.495 9.48787 16.6645 9.65219 16.8304C9.81651 16.9963 9.9772 17.1461 10.1426 17.2984C10.2013 17.3504 10.2684 17.3972 10.3506 17.4622C10.2762 17.4851 10.1712 17.5142 10.0427 17.5433C9.75516 17.6063 9.53884 17.6156 9.19563 17.6302C8.87168 17.6432 8.63404 17.638 8.4484 17.6338C8.4484 17.6338 8.07088 17.625 7.788 17.587C7.7256 17.5787 7.69492 17.5725 7.671 17.5699C7.5956 17.561 7.52123 17.5418 7.44636 17.5267C7.2446 17.9947 7.07768 18.4008 6.94612 18.73C6.94612 18.73 6.6986 19.3472 6.46355 20.0061C6.42092 20.1257 6.43183 20.1189 6.40687 20.1709C6.38563 20.2073 6.37267 20.248 6.36892 20.29C6.36787 20.3161 6.37157 20.3422 6.37984 20.3669C6.38798 20.3857 6.40133 20.4018 6.41831 20.4132C6.44781 20.429 6.48215 20.4331 6.51451 20.4247C6.58679 20.4106 6.95808 20.2999 7.463 20.1397L7.56388 20.1012C8.77964 19.6389 9.90024 21.7574 8.79836 22.7579C8.78939 22.766 8.77921 22.7727 8.7682 22.7777L8.6928 22.8135L4.50887 24.827C3.53959 25.2898 2.88803 24.9897 2.40495 24.2846C2.40118 24.2787 2.39771 24.2727 2.39455 24.2664L0.207955 19.5505C0.201623 19.5373 0.197747 19.523 0.196515 19.5084C0.138275 18.7055 0.606275 18.0977 1.21103 17.8689C1.78771 17.6494 2.48919 17.7737 2.97539 18.3993C2.9798 18.405 2.9838 18.4111 2.98735 18.4175L3.36748 19.1221C3.37841 19.1424 3.39504 19.1592 3.41534 19.1702C3.43563 19.1813 3.45871 19.1863 3.48176 19.1844C3.5048 19.1826 3.52682 19.1741 3.54513 19.16C3.56343 19.1459 3.57723 19.1267 3.58484 19.1049L4.45012 16.6261C4.4573 16.6056 4.45872 16.5836 4.45422 16.5624C4.44973 16.5412 4.43949 16.5217 4.42463 16.5059C4.4168 16.4973 4.40768 16.4899 4.39759 16.4841C3.32357 15.8598 2.39802 15.0095 1.68501 13.9922C0.972003 12.9749 0.488558 11.8148 0.268135 10.5922C0.0477119 9.36963 0.0955745 8.11375 0.408411 6.91148C0.721247 5.70921 1.29159 4.58928 2.07995 3.62918L2.08307 3.62502L2.15847 3.53454C2.17615 3.51322 2.19383 3.4919 2.21047 3.4711C2.23907 3.4373 2.26819 3.40402 2.29835 3.37126C2.53845 3.10124 2.7955 2.84679 3.06795 2.60946C3.24129 2.45831 3.41982 2.31427 3.60355 2.17734L3.64671 2.14614L3.69039 2.1139C5.09845 1.09607 6.78361 0.532248 8.52068 0.497775C10.2577 0.463301 11.9639 0.959822 13.4113 1.92098C14.4969 2.64169 15.4072 3.59659 16.0752 4.71546C16.8827 6.0657 17.299 7.61382 17.2775 9.18694Z" />
<path d="M25.869 19.1492C25.8691 19.4521 25.7804 19.7484 25.6141 20.0016C25.4478 20.2547 25.2111 20.4537 24.933 20.574L23.2909 21.2827L23.3049 21.316L23.9201 22.733C24.0766 23.0934 24.0898 23.4999 23.957 23.8697C23.8642 24.1293 23.704 24.3596 23.4927 24.5367C23.2814 24.7138 23.0267 24.8313 22.7549 24.8773C22.4831 24.9233 22.2039 24.896 21.9461 24.7982C21.6884 24.7005 21.4613 24.5358 21.2883 24.3211C21.2138 24.2294 21.1504 24.1292 21.0996 24.0226L21.0965 24.0164C21.0876 23.9987 21.0793 23.9805 21.0715 23.9644L21.0387 23.8884L21.0356 23.8806L20.9462 23.6726L20.7803 23.2946C20.7803 23.2946 20.7803 23.2946 20.7803 23.292L20.6311 22.9467C20.6313 22.9459 20.6313 22.945 20.6311 22.9441L20.4444 22.5125L18.8017 23.2218C18.5093 23.3482 18.185 23.3816 17.8729 23.3173C17.5609 23.2529 17.2762 23.0941 17.0576 22.8623C16.839 22.6305 16.6971 22.3371 16.6511 22.0218C16.6052 21.7065 16.6574 21.3847 16.8007 21.1002V21.0971C16.9642 20.773 17.2364 20.5168 17.5698 20.3732L19.2037 19.6671L19.2104 19.6645L18.5864 18.222L18.5693 18.2256C17.5669 18.4499 16.5325 18.4935 15.5148 18.3546C15.5028 18.3546 15.4903 18.352 15.4784 18.3499L15.3863 18.3364L15.3312 18.3276C15.1066 18.2929 14.8851 18.2483 14.6667 18.1939C14.4282 18.136 14.1935 18.0684 13.9626 17.9911C13.8239 17.9443 13.6853 17.8939 13.5466 17.8398L13.5336 17.8346C13.3717 17.7705 13.2126 17.7011 13.0562 17.6266C12.6726 17.4464 12.3029 17.2378 11.9502 17.0026C11.0082 16.378 10.1988 15.5735 9.56844 14.6353C8.9381 13.6971 8.49921 12.6437 8.27697 11.5355C8.05473 10.4273 8.05351 9.2861 8.27337 8.17741C8.49323 7.06873 8.92986 6.01437 9.55819 5.07483L9.56859 5.07847C9.56859 5.07847 9.67623 5.11643 9.78699 5.16531C10.5483 5.50175 10.8909 5.73731 10.8909 5.73731C11.4827 6.14759 11.8561 6.64887 12.1597 7.05603C12.2013 7.11219 12.2346 7.16003 12.257 7.18967C11.7721 8.02039 11.5336 8.97192 11.5694 9.93312C11.6051 10.8943 11.9136 11.8255 12.4587 12.618C12.4894 12.6632 12.5211 12.7079 12.5544 12.7516C12.7039 12.9546 12.8687 13.1458 13.0474 13.3236L13.05 13.3267C13.5427 13.8194 14.1317 14.2051 14.7802 14.4599C15.4287 14.7147 16.1228 14.833 16.819 14.8074C17.5153 14.7818 18.1989 14.6129 18.8269 14.3113C19.455 14.0096 20.0141 13.5817 20.4693 13.0542L20.4808 13.0402C20.5447 12.9658 20.6061 12.8894 20.6659 12.8114C20.7397 12.7147 20.8099 12.6152 20.8765 12.5129C21.3333 11.8125 21.6097 11.0099 21.6811 10.1767C21.7525 9.34356 21.6166 8.50566 21.2855 7.73775C20.9545 6.96983 20.4386 6.29576 19.7838 5.7756C19.1291 5.25544 18.3558 4.90537 17.5329 4.75659C17.5027 4.68223 17.4741 4.60787 17.4414 4.53559C17.3987 4.44043 17.3488 4.34891 17.3025 4.25531C17.2334 4.11543 17.1673 3.97347 17.0945 3.83619C17.0425 3.73791 16.9786 3.64483 16.9203 3.54967C16.8767 3.47739 16.8361 3.40303 16.7893 3.33283C16.7373 3.25431 16.6811 3.17683 16.6229 3.10351C16.5121 2.96363 16.4024 2.82271 16.2854 2.68751C16.1814 2.56895 16.0722 2.45559 15.9615 2.34327C15.871 2.25123 15.7789 2.16023 15.6812 2.07599C15.5425 1.95917 15.4019 1.84615 15.2595 1.73695C15.1419 1.64803 15.0177 1.56847 14.8955 1.48475C14.8866 1.47679 14.8785 1.4679 14.8715 1.45823C14.8715 1.45823 14.8741 1.45823 14.8752 1.45511C16.0621 1.20264 17.2887 1.20246 18.4757 1.45459C18.649 1.49099 18.8204 1.53277 18.9899 1.57991L19.0939 1.61007C20.6644 2.0683 22.0712 2.96572 23.1488 4.19664C24.2263 5.42757 24.9297 6.94076 25.1761 8.55803C25.4225 10.1753 25.2017 11.8293 24.5396 13.3253C23.8776 14.8213 22.8019 16.0969 21.4391 17.0021L22.0585 18.4362L23.7017 17.7254C24.0567 17.5711 24.4567 17.5561 24.8223 17.6833L24.8358 17.6885C24.8985 17.7104 24.9596 17.7365 25.0188 17.7665L25.062 17.7888C25.3055 17.9229 25.5086 18.1197 25.6502 18.3588C25.7919 18.598 25.8669 18.8707 25.8675 19.1486L25.869 19.1492Z" />
</svg>
