<svg width="26" height="26" viewBox="0 0 26 26" fill="#000" xmlns="http://www.w3.org/2000/svg">
<path d="M25.6246 20.8053C25.4603 21.0518 25.2538 21.2674 25.0147 21.4423C24.9107 21.5109 24.8649 21.5203 24.2347 21.8177C24.0085 21.9217 23.7807 22.0257 23.554 22.1297C23.308 22.242 23.0636 22.3569 22.8171 22.4687C22.6372 22.5506 22.4564 22.6299 22.2748 22.7069C22.098 22.7813 21.9191 22.8504 21.7418 22.9232C21.5645 22.996 21.3778 23.0725 21.1921 23.1463C21.0065 23.2201 20.8183 23.2966 20.6285 23.3663C20.4205 23.4432 20.2078 23.5119 19.9982 23.5867C19.7887 23.6616 19.5822 23.7427 19.3701 23.8155C19.1922 23.8759 19.0097 23.9242 18.8308 23.9814C18.6379 24.0428 18.4471 24.1109 18.2536 24.1712C18.1163 24.2133 17.9765 24.2451 17.8376 24.2851C17.6873 24.3288 17.5381 24.3771 17.3878 24.4219C17.2375 24.4666 17.0758 24.5108 16.9224 24.5539C16.7768 24.5945 16.6317 24.6356 16.4851 24.6715C16.3151 24.7131 16.1424 24.7474 15.9719 24.7869C15.7737 24.8332 15.5767 24.8836 15.378 24.9278C15.1997 24.9673 15.0208 25.0011 14.8419 25.0381C14.6214 25.0838 14.4015 25.1337 14.1799 25.1738C13.9584 25.2138 13.7338 25.245 13.5107 25.2814C13.1275 25.3438 12.7447 25.4099 12.361 25.4697C12.127 25.5061 11.893 25.5362 11.6574 25.5648C11.3336 25.6033 11.0095 25.6388 10.685 25.6714C10.4989 25.6901 10.3117 25.7026 10.1245 25.7141C9.79062 25.7359 9.4573 25.7557 9.12346 25.7754C8.8541 25.791 8.58474 25.817 8.31538 25.816C7.66278 25.816 7.00862 25.8134 6.35654 25.7827C6.02613 25.7587 5.69838 25.7065 5.37686 25.6267C5.07484 25.5652 4.77897 25.4766 4.49286 25.362C4.10603 25.2024 3.73074 25.0161 3.36966 24.8046C3.05598 24.6136 2.75919 24.3961 2.48254 24.1546C1.98231 23.7294 1.55112 23.2291 1.20438 22.6715C1.06346 22.4427 0.929816 22.2072 0.811256 21.9649C0.713635 21.7536 0.626856 21.5375 0.551256 21.3175C0.489376 21.1469 0.435816 20.9727 0.390056 20.7975C0.338056 20.5978 0.292296 20.3955 0.256416 20.1927C0.240816 20.1064 0.209616 19.9103 0.186736 19.655C0.149343 19.239 0.149343 18.8205 0.186736 18.4044C0.216376 18.0877 0.262136 17.8501 0.299056 17.6504C0.338455 17.4154 0.392995 17.1832 0.462336 16.9552C0.541376 16.7118 0.649536 16.4768 0.749896 16.2397C0.907654 15.8685 1.10985 15.5179 1.35206 15.1955C1.55434 14.9246 1.77638 14.6667 2.00102 14.4155C2.31345 14.0746 2.66377 13.7706 3.04518 13.5091C3.85118 12.9475 4.58802 12.7115 5.0009 12.5804C5.24452 12.5018 5.49289 12.4388 5.7445 12.3917C6.00455 12.3412 6.2681 12.3107 6.53282 12.3007C6.87966 12.2929 7.22702 12.3209 7.57282 12.3287C7.90157 12.3371 8.22787 12.3878 8.54366 12.4795C8.75166 12.5388 8.9711 12.5679 9.17234 12.6449C9.47342 12.7588 9.76358 12.9007 10.0563 13.0354C10.5613 13.2663 11.0007 13.596 11.4265 13.9459C11.5087 14.013 11.5789 14.0941 11.6605 14.1747C11.4354 14.2335 11.2315 14.2881 11.0272 14.3391C10.8025 14.3947 10.5748 14.4373 10.3512 14.5018C10.1068 14.5741 9.86654 14.6604 9.62786 14.7488C9.35052 14.8504 9.07561 14.9573 8.80313 15.0697C8.59514 15.156 8.38714 15.2517 8.1859 15.3494C7.93266 15.4711 7.7699 15.6739 7.73506 15.9516C7.71136 16.0937 7.73174 16.2396 7.79347 16.3698C7.8552 16.4999 7.95531 16.608 8.08034 16.6796C8.26702 16.7971 8.47398 16.8533 8.6929 16.7628C8.91182 16.6723 9.11358 16.5813 9.32522 16.495C9.66322 16.3582 9.99862 16.2131 10.3429 16.0946C10.6762 15.9786 11.0189 15.8866 11.3579 15.7935C11.6111 15.7243 11.8659 15.6562 12.1239 15.6089C12.4563 15.5425 12.792 15.4934 13.1295 15.4617C13.622 15.4227 14.1175 15.4097 14.6105 15.3936C14.8736 15.3849 15.137 15.3915 15.3993 15.4134C15.794 15.4472 16.1871 15.4987 16.5797 15.5496C16.7877 15.5772 16.9999 15.612 17.2069 15.6578C17.4492 15.7098 17.6894 15.7789 17.9291 15.8434C18.1252 15.8954 18.3223 15.9474 18.5136 16.0124C18.7799 16.1029 19.0445 16.1986 19.3045 16.3057C19.5963 16.4253 19.8843 16.5553 20.1698 16.6895C20.3737 16.7846 20.5713 16.8408 20.799 16.7638C21.0902 16.665 21.267 16.4674 21.319 16.1762C21.371 15.885 21.2733 15.6209 21.0221 15.4482C20.8462 15.3361 20.6607 15.2397 20.4678 15.1601C20.2078 15.0452 19.9405 14.9391 19.6732 14.8393C19.4652 14.7613 19.2572 14.6973 19.0492 14.6313C18.8573 14.5689 18.6655 14.5034 18.471 14.4498C18.3233 14.4093 18.3212 14.4171 18.3212 14.26C18.3212 12.3565 18.3212 10.4531 18.3212 8.54991C18.3236 8.41957 18.3061 8.28963 18.2692 8.16459C18.2404 8.05978 18.1844 7.96442 18.107 7.8881C18.0296 7.81179 17.9335 7.75721 17.8283 7.72987C17.6555 7.69548 17.4797 7.67807 17.3036 7.67787C17.145 7.66955 16.9853 7.67787 16.8189 7.67787V7.53591C16.8189 6.35447 16.8189 5.17337 16.8189 3.99263C16.8181 3.88716 16.8034 3.78227 16.7753 3.68063C16.7334 3.53519 16.6466 3.40676 16.5272 3.31379C16.4078 3.22083 16.2619 3.16811 16.1107 3.16323C15.5621 3.15543 15.014 3.15751 14.4659 3.16323C14.3717 3.16826 14.2794 3.19269 14.195 3.23499C13.9922 3.32911 13.8695 3.48823 13.7931 3.70299C13.7021 3.96299 13.8305 4.31555 14.0177 4.47051C14.1842 4.60793 14.3966 4.67706 14.6121 4.66395C14.8247 4.65719 15.0379 4.66395 15.2558 4.66395V7.66643C15.2246 7.66903 15.1971 7.67371 15.169 7.67371H13.3641C13.0349 7.67371 12.7068 7.68307 12.3844 7.58167C12.161 7.51528 11.9481 7.41759 11.7521 7.29151C11.4714 7.10723 11.2367 6.86124 11.0657 6.57235C10.8683 6.25923 10.7589 5.89872 10.749 5.52871C10.7391 4.54071 10.749 3.55739 10.7427 2.57199C10.7427 2.24855 10.7719 1.93499 10.8873 1.62767C10.9803 1.37424 11.1184 1.13975 11.295 0.935548C11.503 0.693894 11.7598 0.498963 12.0485 0.363548C12.2303 0.280388 12.4228 0.222815 12.6205 0.192468C13.7587 0.00318778 16.1544 0.0354278 16.8964 0.0401078C17.3317 0.0401078 17.7804 0.0494678 18.6759 0.0629878C19.8719 0.0806678 20.2936 0.121748 20.7527 0.401508C21.0584 0.59621 21.328 0.842539 21.5494 1.12951C21.6991 1.32243 21.8276 1.56423 22.0839 2.04783C22.1989 2.26415 22.3179 2.50543 22.5571 2.98799C22.6861 3.24799 22.8171 3.50799 22.9378 3.77163C23.0667 4.05659 23.1827 4.34363 23.3018 4.63483C23.4172 4.91043 23.5347 5.18551 23.6445 5.46371C23.736 5.69667 23.8187 5.93171 23.9045 6.16831C24.0048 6.45067 24.1021 6.73355 24.1998 7.01695C24.2456 7.14903 24.2908 7.28111 24.3324 7.41423C24.374 7.54735 24.4094 7.67423 24.4473 7.80631C24.5025 7.99819 24.5586 8.18903 24.6132 8.38143C24.6579 8.53743 24.7027 8.69655 24.7443 8.85515C24.7859 9.01375 24.8217 9.16715 24.8602 9.32315C24.9226 9.57431 24.9876 9.82547 25.0453 10.0777C25.088 10.2628 25.1202 10.4505 25.1597 10.6361C25.2029 10.8389 25.2554 11.0397 25.2929 11.244C25.3381 11.49 25.3709 11.7391 25.4093 11.9861C25.427 12.0973 25.4457 12.2081 25.4645 12.3194C25.4925 12.4899 25.5263 12.66 25.5487 12.8316C25.5737 13.0209 25.5877 13.2117 25.609 13.4036C25.6527 13.7936 25.7089 14.1836 25.7406 14.5731C25.7645 14.8736 25.7822 15.1269 25.7952 15.3832C25.8092 15.6619 25.8149 15.8694 25.817 15.9459C25.843 16.872 25.8857 17.4403 25.9028 18.4122C25.9319 20.1079 25.8399 20.4808 25.6246 20.8053Z" />
</svg>
