<svg width="26" height="26" viewBox="0 0 26 26" fill="#000" xmlns="http://www.w3.org/2000/svg">
<path d="M25.9319 7.03578C25.9096 7.1169 25.868 7.22038 25.6007 7.51158C25.4629 7.66238 25.3126 7.80122 25.1681 7.94474C25.0235 8.08826 24.8722 8.23438 24.7261 8.37946C24.6179 8.4871 24.5123 8.59682 24.4042 8.70394C24.2742 8.8329 24.1478 8.96394 24.0178 9.09446C23.9814 9.13446 23.9429 9.17247 23.9024 9.20834C23.883 9.22755 23.8569 9.23838 23.8296 9.2385C23.8191 9.23763 23.809 9.23443 23.7999 9.22914C23.7973 9.22747 23.7949 9.22555 23.7927 9.22342C23.2321 8.70966 22.7121 8.13766 22.7121 8.13766C22.5452 7.9541 22.3481 7.7643 21.9623 7.3795C21.7511 7.1715 21.5343 6.9635 21.3221 6.7555C21.1017 6.53744 20.8824 6.31818 20.6643 6.0977C20.4376 5.86734 20.2151 5.63334 19.9883 5.40454C19.798 5.21318 19.6009 5.02806 19.4091 4.83878C19.1699 4.60322 18.9327 4.36558 18.6956 4.12846C18.4762 3.90954 18.2583 3.68906 18.0394 3.46962C17.8023 3.23198 17.5646 2.9959 17.3275 2.75826C17.1611 2.59134 16.9963 2.4239 16.8293 2.25802C16.7857 2.21434 16.7929 2.18314 16.8371 2.14154C16.9474 2.03754 17.0524 1.92574 17.1606 1.81862C17.2916 1.68914 17.4242 1.56226 17.5542 1.43226C17.6619 1.3241 17.7653 1.2123 17.8725 1.10362C17.9967 0.977777 18.1226 0.853496 18.2479 0.729217C18.3592 0.617936 18.4668 0.504057 18.5823 0.397977C18.6837 0.300126 18.7925 0.210246 18.9078 0.129137C18.913 0.125497 18.9203 0.120297 18.9296 0.114577C18.9438 0.105929 18.9586 0.0982833 18.9738 0.0916966C19.0561 0.0584112 19.1442 0.0418651 19.2329 0.0430258C19.3217 0.0441866 19.4093 0.0630308 19.4907 0.0984566C19.5409 0.125674 19.5882 0.158092 19.6316 0.195177C19.7793 0.318 19.9183 0.450919 20.0476 0.592977C20.1766 0.721417 20.3014 0.852977 20.4288 0.981937C20.5562 1.1109 20.6851 1.23778 20.8136 1.36622C20.9207 1.47386 21.0278 1.58254 21.1355 1.68966C21.2639 1.81758 21.3955 1.94342 21.5218 2.07134C21.6482 2.19926 21.7751 2.32354 21.9019 2.44938C22.0288 2.57522 22.1536 2.69794 22.2784 2.82326C22.4032 2.94858 22.5311 3.08326 22.6585 3.20962C22.7859 3.33598 22.9107 3.45662 23.0355 3.58194C23.1603 3.70726 23.2903 3.84194 23.4177 3.96934C23.5451 4.09674 23.6725 4.22934 23.801 4.35414C23.9107 4.46334 24.0215 4.57046 24.1312 4.67966C24.2575 4.8055 24.3839 4.9329 24.5097 5.05926C24.6013 5.15182 24.6917 5.2449 24.7843 5.33642C24.9112 5.46226 25.0407 5.58654 25.1665 5.7129C25.3085 5.85538 25.4494 5.99786 25.5887 6.14242C25.8883 6.45442 25.9158 6.56726 25.933 6.6281C25.9682 6.76175 25.9678 6.9023 25.9319 7.03578Z" />
<path d="M18.1999 11.9151L11.8897 18.2248C11.8716 18.2427 11.8471 18.2528 11.8216 18.2528C11.7961 18.2528 11.7716 18.2427 11.7535 18.2248L7.82073 14.2899C7.8117 14.281 7.80454 14.2704 7.79965 14.2587C7.79475 14.247 7.79224 14.2345 7.79224 14.2218C7.79224 14.2091 7.79475 14.1966 7.79965 14.1849C7.80454 14.1732 7.8117 14.1626 7.82073 14.1537C9.92568 12.0494 12.0294 9.94635 14.132 7.84451C14.1502 7.82651 14.1747 7.81641 14.2003 7.81641C14.2259 7.81641 14.2505 7.82651 14.2687 7.84451C15.5767 9.15387 16.8871 10.4651 18.1999 11.7783C18.218 11.7964 18.2282 11.821 18.2282 11.8467C18.2282 11.8723 18.218 11.8969 18.1999 11.9151Z" />
<path d="M13.6937 22.2929C13.7117 22.3111 13.7218 22.3356 13.7218 22.3612C13.7218 22.3869 13.7117 22.4114 13.6937 22.4296C13.3989 22.7255 13.1124 23.011 12.8274 23.298C12.5425 23.5851 12.2658 23.8648 11.985 24.1477C11.9632 24.1701 11.9361 24.1872 11.9133 24.2096C11.816 24.3042 11.7848 24.2995 11.6964 24.2013C11.5924 24.0869 11.4822 23.9777 11.373 23.8685C11.2295 23.7239 11.0849 23.5814 10.9398 23.4384C10.7947 23.2954 10.6455 23.1488 10.4994 23.0027C10.3928 22.8987 10.2883 22.7884 10.1822 22.6829C10.034 22.5357 9.8837 22.3917 9.73758 22.2435C9.57846 22.0833 9.42558 21.9169 9.26542 21.7573C9.12138 21.6132 8.97214 21.4744 8.82706 21.3319C8.71994 21.2279 8.61646 21.1171 8.5109 21.0095C8.38558 20.8821 8.25922 20.7552 8.13338 20.6278L7.85206 20.346C7.72518 20.2201 7.59726 20.0943 7.47038 19.9679C7.36066 19.8593 7.25146 19.749 7.14174 19.6398C7.01538 19.5129 6.88798 19.3866 6.76214 19.2597C6.65086 19.1484 6.54166 19.0356 6.4309 18.9248C6.32014 18.8141 6.21406 18.7101 6.10694 18.6019C5.97746 18.4719 5.85006 18.3393 5.72058 18.2098C5.61658 18.1058 5.50582 17.9987 5.3987 17.8926L4.96554 17.461C4.8189 17.3159 4.66914 17.1735 4.52354 17.0268C4.4159 16.9197 4.31555 16.8069 4.20479 16.6992C4.06075 16.5552 3.91411 16.4137 3.76903 16.2707C3.66087 16.1636 3.5534 16.0558 3.44663 15.9473C3.33535 15.836 3.22355 15.7247 3.11279 15.6129C2.98591 15.4835 2.86111 15.3529 2.73371 15.2235C2.62971 15.1195 2.51895 15.0123 2.41339 14.9057C2.28183 14.7742 2.15339 14.6395 2.02235 14.5074C1.95319 14.4367 1.88195 14.3675 1.81019 14.2994C1.75247 14.2443 1.75091 14.2141 1.80499 14.1595C2.06499 13.9027 2.32031 13.6468 2.57667 13.3889C2.854 13.1098 3.13029 12.8297 3.40555 12.5486C3.46847 12.4831 3.52619 12.4123 3.58911 12.3359C3.59769 12.3255 3.60835 12.317 3.62041 12.311C3.63246 12.305 3.64565 12.3015 3.65911 12.3009C3.67257 12.3003 3.68602 12.3024 3.69859 12.3073C3.71116 12.3122 3.72258 12.3196 3.73211 12.3291L13.6937 22.2929Z" />
<path d="M24.2236 11.7706C24.2395 11.7878 24.2483 11.8103 24.2483 11.8338C24.2483 11.8572 24.2395 11.8797 24.2236 11.8969C24.2225 11.8986 24.2211 11.9 24.2194 11.9011C23.9657 12.1569 23.7104 12.4123 23.4561 12.6681C23.1094 13.0165 22.7628 13.3652 22.4161 13.7143C22.3573 13.7736 22.3064 13.7575 22.2268 13.6743C22.0859 13.5266 21.9387 13.3847 21.7947 13.2391C21.6506 13.0935 21.5071 12.9427 21.36 12.7965C21.2128 12.6504 21.0662 12.5163 20.9221 12.3722C20.7963 12.2459 20.6772 12.1122 20.5514 11.9859C20.4104 11.8444 20.2622 11.7087 20.1213 11.5667C19.9591 11.4035 19.8031 11.2329 19.6403 11.0707C19.4776 10.9084 19.3122 10.7613 19.1515 10.6027C19.009 10.4628 18.8712 10.3167 18.7308 10.1742C18.6029 10.0457 18.4708 9.92041 18.345 9.79145C18.2342 9.67913 18.1302 9.56161 18.0184 9.45085C17.8921 9.32553 17.7584 9.20749 17.631 9.08113C17.5218 8.97193 17.423 8.85285 17.3118 8.74417C17.1854 8.61729 17.0518 8.49977 16.9238 8.37289C16.8146 8.26421 16.7132 8.14669 16.6046 8.03749C16.4636 7.89553 16.3186 7.75981 16.1771 7.62149C16.0357 7.48317 15.8875 7.33133 15.7434 7.18625L15.3701 6.80925C15.2416 6.67873 15.1132 6.54925 14.9842 6.41717C14.8802 6.31317 14.7705 6.20917 14.6639 6.10101C14.5573 5.99285 14.4393 5.87533 14.3259 5.76353C14.2126 5.65173 14.1018 5.54877 13.9921 5.43905C13.8824 5.32933 13.7763 5.21233 13.666 5.10105C13.575 5.00953 13.4783 4.92425 13.3873 4.83325C13.2599 4.70533 13.1351 4.57325 13.0082 4.44429C12.9022 4.33752 12.795 4.23161 12.6869 4.12657C12.5766 4.01893 12.4607 3.91493 12.3551 3.80261C12.2662 3.70797 12.2756 3.68145 12.3744 3.58421C12.6909 3.27221 13.0069 2.95865 13.3223 2.64353L14.1486 1.81933C14.2006 1.76733 14.2448 1.78293 14.3223 1.86145C14.5038 2.04605 14.6894 2.22545 14.8704 2.41005C15.0628 2.60557 15.2489 2.80681 15.4424 3.00129C15.6025 3.16145 15.7726 3.31329 15.9332 3.47293C16.0778 3.61749 16.2125 3.77141 16.357 3.91545C16.5333 4.09173 16.7179 4.25917 16.8947 4.43545C17.0871 4.62733 17.2728 4.82545 17.4667 5.01785C17.6264 5.17905 17.7922 5.33401 17.9524 5.49417C18.1126 5.65433 18.268 5.82073 18.4282 5.98141C18.5712 6.12441 18.7178 6.26377 18.8624 6.40521C18.9534 6.49569 19.0423 6.58825 19.1328 6.67925C19.2618 6.80769 19.3928 6.93509 19.5207 7.06353C19.6112 7.15505 19.7006 7.24709 19.7916 7.33809C19.9206 7.46653 20.0516 7.59393 20.1796 7.72237C20.2872 7.83105 20.3938 7.94129 20.502 8.04997C20.6288 8.17685 20.7573 8.30321 20.8847 8.43009L21.2107 8.75457C21.3369 8.88145 21.4634 9.0092 21.5903 9.13781C21.7016 9.24909 21.8118 9.36193 21.9231 9.47269C22.0344 9.58345 22.141 9.68797 22.2492 9.79613C22.3573 9.90429 22.4702 10.0203 22.582 10.1315C22.6938 10.2428 22.8009 10.3463 22.9085 10.4555C23.0375 10.5839 23.1628 10.7155 23.2918 10.8445C23.3817 10.9355 23.4764 11.0223 23.5668 11.1138C23.7124 11.2599 23.8554 11.4097 24.0005 11.5558C24.0744 11.6302 24.1513 11.6993 24.2252 11.7727L24.2236 11.7706Z" />
<path d="M9.18689 23.9261C9.07665 24.0301 8.97161 24.1414 8.86397 24.249C8.73293 24.378 8.60033 24.5059 8.47033 24.6359C8.36633 24.7399 8.29093 24.819 8.15157 24.964C8.01221 25.1091 7.99973 25.1242 7.82917 25.3026C7.79225 25.3405 7.66901 25.4684 7.50521 25.6286C7.42291 25.7134 7.33272 25.7902 7.23585 25.8579C7.17778 25.9013 7.11389 25.9363 7.04605 25.9619C6.94332 25.9971 6.83355 26.0068 6.72625 25.99C6.58075 25.977 6.44313 25.9182 6.33313 25.822C6.14489 25.6468 5.96237 25.4643 5.78089 25.2818C5.59941 25.0992 5.43613 24.9178 5.26089 24.7436C5.09917 24.5818 4.92861 24.4316 4.76793 24.2688C4.59113 24.092 4.42317 23.9048 4.24793 23.729C4.07269 23.5533 3.88705 23.3837 3.71025 23.209C3.53345 23.0343 3.36029 22.8481 3.18349 22.6734C3.02281 22.5133 2.85485 22.3614 2.69365 22.1992C2.53245 22.0369 2.38165 21.8679 2.21785 21.7057C2.05405 21.5435 1.89181 21.3937 1.73321 21.2377C1.55537 21.0609 1.38533 20.8768 1.20801 20.6995C0.956853 20.4483 0.957893 20.465 0.769133 20.2762C0.289693 19.7926 0.0520529 19.5534 0.0432129 19.2497C0.0436072 19.1254 0.074497 19.0031 0.133173 18.8935C0.177373 18.8067 0.208573 18.7869 0.429573 18.5581C0.614173 18.3673 0.628733 18.3449 0.812293 18.1577C1.09101 17.8738 1.07905 17.9097 1.35413 17.6377C1.54757 17.4448 1.73477 17.2451 1.92613 17.0486C1.99171 16.9756 2.06115 16.9062 2.13413 16.8406C2.15102 16.8333 2.16955 16.8306 2.18782 16.8328C2.20609 16.835 2.22345 16.842 2.23813 16.8531C2.39413 17.0091 2.54545 17.1692 2.70093 17.3252C2.87149 17.4958 3.04621 17.6611 3.21625 17.8312C3.38629 18.0012 3.54489 18.1692 3.71233 18.3361C3.90161 18.5243 4.09505 18.7084 4.28433 18.8961C4.52492 19.134 4.76464 19.3726 5.00349 19.6122C5.32069 19.9301 5.63755 20.2485 5.95405 20.5674C6.10121 20.7167 6.24421 20.869 6.39241 21.0167C6.58377 21.2075 6.78033 21.3921 6.97117 21.5835C7.21869 21.8315 7.46101 22.0843 7.70801 22.3323C7.89885 22.5231 8.09489 22.7088 8.28625 22.8991C8.43393 23.0468 8.57641 23.2012 8.72409 23.3489C8.88009 23.5049 9.03973 23.6568 9.19833 23.8096C9.23941 23.8533 9.23109 23.885 9.18689 23.9261Z" />
</svg>
