<svg width="26" height="26" viewBox="0 0 26 26" fill="#000" xmlns="http://www.w3.org/2000/svg">
<path d="M18.6014 17.8859C18.5973 18.0315 18.5869 18.1771 18.5707 18.3216C18.5375 18.6128 18.5052 18.9035 18.4595 19.1926C18.4225 19.4261 18.3721 19.658 18.3165 19.8884C18.2717 20.072 18.2125 20.2524 18.1553 20.4334C18.0994 20.6032 18.0388 20.7715 17.9733 20.9383C17.8947 21.1385 17.8173 21.3382 17.7257 21.5332C17.6098 21.7864 17.4969 22.0422 17.3576 22.2825C17.1829 22.5851 16.9936 22.88 16.7908 23.1665C16.6168 23.4164 16.4275 23.6554 16.224 23.882C15.9411 24.194 15.652 24.4987 15.34 24.7806C15.0607 25.0259 14.7449 25.2262 14.404 25.3744C14.0535 25.5304 13.7867 25.6344 13.6963 25.663C13.528 25.7163 13.3566 25.759 13.183 25.7909C13.0467 25.8154 12.9093 25.8327 12.7712 25.8429C12.6214 25.8549 10.778 26.0026 9.55862 25.8429C9.35062 25.8154 9.15042 25.7795 9.15042 25.7795C8.90702 25.7377 8.66594 25.6833 8.42814 25.6167C8.16764 25.5346 7.91296 25.4351 7.66582 25.3188C7.45122 25.2133 7.24287 25.0956 7.04182 24.9662C6.60488 24.6918 6.20829 24.3579 5.8635 23.974C5.60386 23.6877 5.37259 23.3768 5.17294 23.0458C4.96882 22.7122 4.80227 22.3569 4.67634 21.9866C4.58061 21.6952 4.50503 21.3976 4.45014 21.0958C4.38307 20.707 4.35295 20.3126 4.36018 19.918C4.36018 17.3239 4.36018 14.7298 4.36018 12.1357C4.36018 11.947 4.4179 11.7977 4.57442 11.6994C4.64839 11.6557 4.73081 11.6282 4.81622 11.6188C5.0445 11.5913 5.26134 11.6604 5.48234 11.7072C5.88092 11.7925 6.25163 11.9767 6.5603 12.2428C6.7605 12.4118 6.92066 12.6313 7.08394 12.8398C7.25502 13.0582 7.34914 13.3187 7.42766 13.5824C7.46007 13.6952 7.47909 13.8114 7.48434 13.9287C7.5067 14.3608 7.5145 14.794 7.54206 15.2261C7.56157 15.4329 7.59195 15.6386 7.63306 15.8423C7.6653 16.03 7.69858 16.2188 7.74486 16.4034C7.78781 16.5673 7.83989 16.7288 7.90086 16.887C7.95571 17.0356 8.01873 17.181 8.08962 17.3227C8.20558 17.5541 8.32102 17.7876 8.45362 18.0086C8.74506 18.4854 9.10177 18.9192 9.51338 19.2972C9.74721 19.5247 10.0238 19.7038 10.3272 19.8239C10.5504 19.9059 10.7862 19.9479 11.024 19.9482C11.3036 19.9585 11.5827 19.9178 11.8477 19.8281C12.1323 19.7301 12.393 19.5729 12.6126 19.3668C12.7559 19.2304 12.8838 19.0785 12.9937 18.9139C13.0889 18.7532 13.1688 18.584 13.2324 18.4085C13.3619 18.0897 13.3364 17.7522 13.3364 17.4205C13.3364 16.8032 13.3401 16.186 13.3312 15.5688C13.3321 15.3455 13.3107 15.1227 13.2673 14.9037C13.2123 14.6784 13.1383 14.4582 13.0463 14.2454C12.7993 13.6354 12.3437 13.1903 11.857 12.7722C11.8125 12.7383 11.7701 12.7016 11.7301 12.6625C11.6979 12.6307 11.659 12.6063 11.6164 12.5911C11.5737 12.5758 11.5283 12.57 11.4831 12.5741L8.92994 12.5699C8.61118 12.5699 8.29242 12.5725 7.97366 12.5699C7.94965 12.5697 7.92597 12.5643 7.90425 12.5541C7.88253 12.5438 7.86328 12.529 7.84782 12.5106C7.66251 12.1912 7.42466 11.9054 7.14426 11.6651C6.9244 11.4579 6.6715 11.2888 6.39598 11.1649C6.14586 11.0609 5.89262 10.9652 5.63574 10.8778C5.54838 10.8532 5.45966 10.8338 5.37002 10.8196C5.31022 10.8071 5.26602 10.7676 5.27278 10.7078C5.2815 10.6178 5.30123 10.5293 5.33154 10.4442C5.41837 10.2196 5.55182 10.0159 5.7231 9.84668C5.88113 9.69182 6.0715 9.5739 6.28054 9.5014C6.45155 9.44145 6.63084 9.40847 6.81198 9.40364C8.33454 9.3967 9.85727 9.3967 11.3802 9.40364C11.5695 9.40364 11.7587 9.45564 11.947 9.48944C12.1352 9.52324 12.311 9.55652 12.4857 9.60488C12.6352 9.64645 12.7815 9.69858 12.9235 9.76088C13.0895 9.83145 13.251 9.91202 13.4071 10.0022C13.6079 10.1192 13.8055 10.244 13.9947 10.3792C14.4726 10.7213 14.8559 11.1664 15.2729 11.5752C15.5771 11.8726 15.8777 12.1742 16.1782 12.4758C16.5422 12.8398 16.9062 13.2106 17.2702 13.5772C17.4886 13.7971 17.7221 14.0046 17.9228 14.2402C18.0684 14.4013 18.1737 14.5947 18.2301 14.8044C18.2858 15.0373 18.357 15.2666 18.4168 15.4986C18.436 15.5842 18.4505 15.6708 18.46 15.758C18.4834 15.9177 18.5078 16.0778 18.5255 16.2385C18.5572 16.5235 18.5957 16.8105 18.6097 17.095C18.6222 17.357 18.6087 17.6217 18.6014 17.8859Z" />
<path d="M18.1715 1.71157C18.1715 5.40114 18.1715 9.09054 18.1715 12.7798C18.1715 12.8255 18.1653 12.8708 18.1621 12.9165C18.1621 12.9342 18.1621 12.9368 18.159 12.9373C18.1559 12.9378 18.1455 12.9222 18.1413 12.9139C18.0051 12.682 17.8668 12.4511 17.7337 12.2182C17.6063 11.9956 17.4882 11.7678 17.3593 11.5468C17.2033 11.2775 17.0348 11.0149 16.8777 10.746C16.7503 10.5271 16.6328 10.302 16.508 10.0815C16.3884 9.87037 16.2652 9.66185 16.144 9.45229C16.0156 9.23129 15.884 9.01133 15.7571 8.79033C15.6302 8.56933 15.5054 8.35093 15.3796 8.13149C15.261 7.92349 15.1414 7.71913 15.0255 7.51113C15.0103 7.47755 15.0037 7.44076 15.0062 7.40401C15.0062 5.49457 15.0021 3.58565 15.0062 1.67673C15.0051 1.32492 15.1205 0.982625 15.3344 0.703289C15.5059 0.476785 15.7338 0.299126 15.9953 0.187969C16.2456 0.0734846 16.5244 0.0361916 16.7961 0.0808487C17.2693 0.161969 17.6577 0.385569 17.9224 0.803649C18.0924 1.07543 18.179 1.39109 18.1715 1.71157Z" />
<path d="M16.2395 11.3558C16.2504 11.3876 16.251 11.3954 16.2499 11.3959C16.2489 11.3964 16.2463 11.3959 16.2406 11.387C16.2353 11.3811 16.2295 11.3755 16.2234 11.3704C15.8568 10.9898 15.5417 10.6731 15.2973 10.4344C15.0561 10.1915 14.8023 9.96132 14.537 9.74488C14.2979 9.56471 14.0463 9.40172 13.7841 9.25712C13.588 9.14876 13.3853 9.05272 13.1772 8.96956C13.0274 8.90759 12.8737 8.85548 12.717 8.81356C12.4996 8.74818 12.2783 8.69608 12.0546 8.65756C11.7852 8.61752 11.5112 8.60244 11.2387 8.58632C10.947 8.56864 10.9516 8.57072 10.8133 8.32632C10.689 8.10688 10.5497 7.89628 10.4207 7.67944C10.298 7.47144 10.182 7.26344 10.0567 7.05544C9.9314 6.84744 9.79308 6.6332 9.6662 6.41948C9.50656 6.15168 9.35419 5.87972 9.19559 5.61088C9.04219 5.35088 8.88359 5.09088 8.73071 4.83088C8.53155 4.49548 8.33395 4.15956 8.13479 3.82416C7.98485 3.57197 7.91961 3.27839 7.94863 2.98644C7.97715 2.61109 8.13825 2.25812 8.40311 1.99064C8.57712 1.80984 8.79307 1.67481 9.03179 1.59752C9.19455 1.54552 9.37552 1.5424 9.5518 1.53616C10.1035 1.51692 10.52 1.7764 10.8341 2.20644C10.9948 2.4264 11.1206 2.67444 11.2626 2.90636C11.4238 3.1726 11.5866 3.4378 11.7467 3.70456C11.9417 4.03008 12.1326 4.35768 12.3296 4.68164C12.5267 5.0056 12.7233 5.31032 12.9152 5.62752C13.107 5.94472 13.2963 6.27752 13.4898 6.60096C13.6426 6.85784 13.8018 7.11004 13.9578 7.3664C14.1226 7.642 14.2828 7.91968 14.445 8.1958C14.5292 8.33828 14.6145 8.47972 14.6977 8.62272C14.8319 8.851 14.9645 9.08032 15.0981 9.30964C15.4283 9.87592 15.473 9.94872 15.6862 10.3205C15.8121 10.54 15.9052 10.7048 16.0185 10.919C16.1106 11.0969 16.186 11.2477 16.2395 11.3558Z" />
<path d="M21.4929 5.90001C21.4797 5.97908 21.461 6.05711 21.4367 6.13349C21.3878 6.32693 21.3426 6.52141 21.2901 6.71381C21.2318 6.92597 21.1642 7.13553 21.106 7.34717C21.0628 7.50317 21.0301 7.66489 20.9885 7.82297C20.9495 7.97117 20.9032 8.11729 20.8637 8.26497C20.8215 8.42097 20.7831 8.58009 20.7425 8.73817C20.7217 8.81877 20.7009 8.89989 20.6796 8.98049C20.6323 9.16405 20.5875 9.34813 20.5361 9.53065C20.4763 9.74177 20.4071 9.94977 20.3483 10.1609C20.3052 10.3169 20.274 10.4729 20.2355 10.6289C20.1991 10.7745 20.1622 10.9196 20.1221 11.0641C20.0972 11.1541 20.0639 11.242 20.0389 11.3319C19.99 11.5046 19.9422 11.6772 19.8975 11.8519C19.8569 12.0079 19.8252 12.1702 19.7831 12.3283C19.741 12.4863 19.691 12.6403 19.6468 12.7963C19.6058 12.9439 19.5694 13.0932 19.5293 13.2414C19.4846 13.4052 19.4368 13.5674 19.3936 13.7312C19.3354 13.9517 19.3307 14.0177 19.2776 14.1956C19.2402 14.3214 19.2038 14.4228 19.1783 14.4899C19.1419 14.5866 19.0743 14.7062 19.0592 14.7005C19.0442 14.6948 19.0592 14.6646 19.0592 14.6589C19.132 14.3079 19.0821 10.6684 19.0821 10.6684C19.052 8.47193 19.0764 8.71477 19.0592 8.50365C19.0353 8.21297 19.0239 7.21197 19.0015 5.20893C18.9987 5.11816 19.015 5.02781 19.0494 4.94373C19.1095 4.81574 19.2029 4.70621 19.3198 4.62653C19.4526 4.52194 19.6051 4.44505 19.7682 4.40039C19.9313 4.35573 20.1017 4.34422 20.2693 4.36653C20.704 4.42321 21.0602 4.61613 21.2979 4.99781C21.4633 5.26771 21.5321 5.58587 21.4929 5.90001Z" />
</svg>
