<svg width="26" height="26" viewBox="0 0 26 26" fill="#000" xmlns="http://www.w3.org/2000/svg">
<path d="M19.3897 11.46C19.3679 11.6015 19.2857 11.7367 19.2134 11.8656C19.1542 11.9779 19.0804 12.082 18.994 12.175C18.8996 12.2643 18.7973 12.3447 18.6882 12.4153C18.6241 12.4615 18.5557 12.5014 18.4839 12.5344C18.4054 12.5696 18.3237 12.5975 18.24 12.6176C18.0731 12.6468 17.902 12.6406 17.7377 12.5994C17.1168 12.4434 15.8137 11.3753 15.3888 11.0524C15.0945 10.8277 14.7773 10.5916 14.7773 10.5916L14.6239 10.4778L14.6005 10.496C14.6005 10.5126 14.6005 10.5376 14.6036 10.5677C14.6106 10.6739 14.6266 10.7794 14.6515 10.8828C14.6905 11.0487 14.7076 11.2193 14.7383 11.3867C14.783 11.6296 14.8184 11.8864 14.8886 12.3992C14.9666 12.9712 14.9765 13.1017 15.0592 13.6726C15.0711 13.7569 15.0841 13.8416 15.1112 14.0117C15.2152 14.722 15.251 14.9269 15.2646 15.007C15.3275 15.3746 15.3249 15.3075 15.3498 15.4781C15.4018 15.8421 15.4455 16.1354 15.4065 16.5056C15.3894 16.6704 15.3389 17.1088 15.0945 17.5149C14.9994 17.6723 14.8861 17.8181 14.757 17.9491C14.6931 18.0063 14.6312 18.0661 14.5652 18.1212C14.5652 18.1212 14.5282 18.1634 14.4986 18.205C14.353 18.413 14.6718 19.349 14.8012 19.7525C14.8787 19.9932 14.9401 20.2064 15.0092 20.4462C15.1392 20.8939 15.1242 20.8746 15.2094 21.1586C15.3452 21.6104 15.4726 21.9568 15.5636 22.2043C15.6156 22.3488 15.6546 22.4554 15.7164 22.6005C15.7944 22.7836 15.8797 22.9645 15.9593 23.1455C16.057 23.3701 16.1106 23.4866 16.172 23.6468C16.2973 23.9738 16.3602 24.1376 16.3732 24.341C16.3866 24.5186 16.3654 24.6971 16.3108 24.8667C16.2312 25.09 16.1032 25.293 15.9359 25.461C15.8396 25.5618 15.7303 25.6492 15.6109 25.721C15.5135 25.7739 15.4131 25.8212 15.3103 25.8625C15.2471 25.8857 15.1823 25.9042 15.1164 25.9176C14.927 25.9627 14.7296 25.9627 14.5402 25.9176C14.3382 25.8656 14.1535 25.7614 14.0046 25.6155C13.8673 25.4776 13.7583 25.3142 13.6838 25.1345C13.1565 23.9218 12.8767 23.2105 12.8726 23.2022C12.7961 23.0087 12.7296 22.8439 12.6412 22.5948C12.5528 22.3457 12.469 22.1107 12.3812 21.7904C12.3292 21.5964 12.3208 21.5496 12.2662 21.3546C12.2257 21.21 12.1778 21.0676 12.1373 20.923C12.1113 20.8304 12.0941 20.7353 12.0697 20.6422C12.0296 20.4909 12.0036 20.4025 11.9797 20.3182C11.9329 20.1539 11.8814 19.9022 11.779 19.3994C11.7587 19.2996 11.7447 19.2309 11.727 19.1467C11.7036 19.0198 11.6838 18.8929 11.6599 18.766C11.6339 18.6256 11.6053 18.4852 11.5778 18.3448C11.5746 18.3282 11.572 18.3105 11.57 18.2928C11.5507 18.1509 11.533 18.0089 11.5102 17.8675C11.505 17.8358 11.4795 17.8233 11.4644 17.8051C11.2742 17.5664 11.1359 17.2906 11.0583 16.9954C11.0333 16.8914 10.9896 16.6678 10.9662 16.5274V16.5186C10.922 16.2524 10.9075 16.034 10.9054 15.9986C10.8742 15.4864 10.4374 12.6758 10.3469 12.1802C10.3053 11.9504 10.2564 11.7315 10.2564 11.7315C10.2513 11.6811 10.24 11.6314 10.2226 11.5838C10.1639 11.6831 10.1056 11.783 10.0458 11.8818C9.93039 12.0731 9.85863 12.1865 9.80403 12.2749C9.51699 12.7387 9.48839 12.8557 9.24919 13.1968C9.15866 13.3331 9.04517 13.4525 8.91379 13.5499C8.8245 13.6134 8.72592 13.6627 8.62155 13.696C8.43747 13.7574 8.25755 13.8 8.06463 13.7699C7.9232 13.7555 7.78423 13.7228 7.65123 13.6726C7.35951 13.5442 7.09067 13.3757 6.91335 13.1006C6.83861 12.9921 6.77469 12.8764 6.72251 12.7554C6.68821 12.6498 6.66827 12.5402 6.66323 12.4293C6.6562 12.3397 6.6562 12.2496 6.66323 12.16C6.67604 12.0042 6.72064 11.8527 6.79427 11.7148C6.86655 11.5682 6.93831 11.4205 7.01943 11.2786C7.15411 11.043 7.22431 10.9265 7.34963 10.7378C8.25287 9.37797 9.23307 8.07121 10.1576 6.72753C10.3111 6.49921 10.505 6.30079 10.7296 6.14201C10.8717 6.0492 11.0223 5.97015 11.1794 5.90593C11.2684 5.86693 11.375 5.86901 11.4686 5.83833C11.7213 5.75513 11.9797 5.79257 12.235 5.79985C12.363 5.80349 12.4914 5.85185 12.6167 5.88669C12.7325 5.91605 12.8456 5.95519 12.9547 6.00369C13.0863 6.06529 13.2126 6.13764 13.3322 6.22001C13.4882 6.33129 17.7808 9.36965 18.3882 9.78097C18.5772 9.92408 18.7584 10.0772 18.9311 10.2396C19.0828 10.3751 19.208 10.5377 19.3003 10.719C19.4246 10.9551 19.4292 11.2094 19.3897 11.46Z"/>
<path d="M11.7116 21.8609C11.3334 22.1416 10.9771 22.4505 10.6456 22.7849C10.4138 23.0085 10.1985 23.2485 10.0013 23.503C9.87805 23.672 9.76937 23.8457 9.49741 24.2123C9.34401 24.4203 9.23117 24.5623 9.02941 24.6767C8.91269 24.7424 8.78633 24.7892 8.65501 24.8155C8.39281 24.8755 8.11951 24.8662 7.86201 24.7885C7.7149 24.7436 7.57576 24.6758 7.44965 24.5878C7.33997 24.5094 7.24209 24.4157 7.15897 24.3096C7.03595 24.155 6.94731 23.9759 6.89897 23.7844C6.85187 23.5906 6.84497 23.3892 6.87869 23.1926C6.90767 23.0131 6.96618 22.8397 7.05185 22.6794C7.16497 22.4582 7.30035 22.2491 7.45589 22.0554C8.36641 20.9368 8.66541 20.5994 8.82297 20.4252C8.89993 20.3394 9.00393 20.2244 9.13861 20.0814C9.29461 19.9171 9.45321 19.7559 9.61233 19.5947C9.82657 19.3784 10.0392 19.1605 10.2582 18.9489C10.4287 18.784 10.5998 18.6369 10.7745 18.4757C10.8161 18.4438 10.8553 18.409 10.892 18.3717C10.9139 18.3457 10.9295 18.3197 10.944 18.3249C10.9586 18.3301 10.9758 18.3883 10.9778 18.406C11.0012 18.5833 11.0402 18.7586 11.06 18.9364C11.0668 18.9972 11.0647 18.9645 11.1453 19.4002C11.2389 19.9067 11.217 19.8391 11.2607 20.0502C11.308 20.2806 11.3606 20.4735 11.4646 20.8604C11.475 20.8994 11.4921 20.967 11.5233 21.0533C11.5488 21.1246 11.581 21.1937 11.6065 21.2655C11.6585 21.4085 11.7105 21.553 11.7563 21.6971C11.7697 21.7252 11.7726 21.7572 11.7644 21.7873C11.7562 21.8174 11.7374 21.8435 11.7116 21.8609Z"/>
<path d="M11.9736 5.11901C13.3656 5.11901 14.494 3.99057 14.494 2.59857C14.494 1.20656 13.3656 0.078125 11.9736 0.078125C10.5816 0.078125 9.45312 1.20656 9.45312 2.59857C9.45312 3.99057 10.5816 5.11901 11.9736 5.11901Z"/>
</svg>
