<svg width="26" height="26" viewBox="0 0 26 26" fill="#000" xmlns="http://www.w3.org/2000/svg">
<path d="M17.2321 18.5239C17.0383 18.6675 16.8064 18.7505 16.5655 18.7626C16.2535 18.7725 15.9457 18.7959 15.6357 18.7964C12.9349 18.7985 10.2338 18.7985 7.53257 18.7964C7.06041 18.7964 6.66261 18.6341 6.33657 18.2696C5.57945 17.421 4.80413 16.5931 4.03661 15.757C3.83641 15.5386 3.64089 15.316 3.43393 15.1039C3.40443 15.0693 3.36615 15.0434 3.32313 15.0288C3.28011 15.0142 3.23396 15.0115 3.18954 15.021C3.14512 15.0305 3.10408 15.0518 3.07076 15.0827C3.03745 15.1135 3.01308 15.1528 3.00025 15.1964C2.95813 15.3134 3.02105 15.3997 3.09229 15.4788C3.33184 15.7443 3.57295 16.0088 3.81561 16.2723C4.54881 17.0726 5.27993 17.8749 6.01833 18.6705C6.36049 19.0392 6.78533 19.2514 7.29649 19.2571C7.42025 19.2571 7.45977 19.294 7.45925 19.4235C7.45405 20.711 7.45613 21.9985 7.45613 23.2861V23.4213C7.41349 23.4254 7.37761 23.4317 7.34173 23.4317H0.172492C0.151172 23.4317 0.109572 23.4473 0.109572 23.4265C0.103852 18.0372 0.125172 16.2349 0.155852 13.1757C0.301972 12.313 0.650892 11.7987 0.753332 11.6552C1.08093 11.1966 1.53021 10.8274 2.09701 10.5461C2.46101 10.3661 2.84529 10.2861 3.24673 10.2341C3.61834 10.19 3.99436 10.1998 4.36317 10.2632C5.14676 10.3829 5.86817 10.7601 6.41353 11.3354C6.75155 11.6758 7.01459 12.0832 7.18573 12.5314C7.29933 12.8148 7.37149 13.113 7.39997 13.417C7.44365 14.1252 7.44053 14.8361 7.45613 15.5459C7.45613 15.5979 7.45613 15.6545 7.45613 15.731H7.64385C10.5299 15.731 13.416 15.7325 16.3024 15.7357C16.8603 15.7357 17.3309 15.9437 17.6544 16.4247C17.7919 16.6306 17.8738 16.8687 17.892 17.1157C17.9445 17.7189 17.7204 18.1833 17.2321 18.5239Z" />
<path d="M17.2321 18.5239C17.0383 18.6675 16.8064 18.7505 16.5655 18.7626C16.2535 18.7725 15.9457 18.7959 15.6357 18.7964C12.9349 18.7985 10.2338 18.7985 7.53257 18.7964C7.06041 18.7964 6.66261 18.6341 6.33657 18.2696C5.57945 17.421 4.80413 16.5931 4.03661 15.757C3.83641 15.5386 3.64089 15.316 3.43393 15.1039C3.40443 15.0693 3.36615 15.0434 3.32313 15.0288C3.28011 15.0142 3.23396 15.0115 3.18954 15.021C3.14512 15.0305 3.10408 15.0518 3.07076 15.0827C3.03745 15.1135 3.01308 15.1528 3.00025 15.1964C2.95813 15.3134 3.02105 15.3997 3.09229 15.4788C3.33184 15.7443 3.57295 16.0088 3.81561 16.2723C4.54881 17.0726 5.27993 17.8749 6.01833 18.6705C6.36049 19.0392 6.78533 19.2514 7.29649 19.2571C7.42025 19.2571 7.45977 19.294 7.45925 19.4235C7.45405 20.711 7.45613 21.9985 7.45613 23.2861V23.4213C7.41349 23.4254 7.37761 23.4317 7.34173 23.4317H0.172492C0.151172 23.4317 0.109572 23.4213 0.109572 23.4005C0.103852 18.0112 0.125172 16.2349 0.155852 13.1757C0.301972 12.313 0.650892 11.7987 0.753332 11.6552C1.08093 11.1966 1.53021 10.8274 2.09701 10.5461C2.46101 10.3661 2.84529 10.2861 3.24673 10.2341C3.61834 10.19 3.99436 10.1998 4.36317 10.2632C5.14676 10.3829 5.86817 10.7601 6.41353 11.3354C6.75155 11.6758 7.01459 12.0832 7.18573 12.5314C7.29933 12.8148 7.37149 13.113 7.39997 13.417C7.44365 14.1252 7.44053 14.8361 7.45613 15.5459C7.45613 15.5979 7.45613 15.6545 7.45613 15.731H7.64385C10.5299 15.731 13.416 15.7325 16.3024 15.7357C16.8603 15.7357 17.3309 15.9437 17.6544 16.4247C17.7919 16.6306 17.8738 16.8687 17.892 17.1157C17.9445 17.7189 17.7204 18.1833 17.2321 18.5239Z" />
<path d="M10.8982 6.40432C10.918 8.49472 9.17753 10.2138 7.08973 10.2066C6.08021 10.2039 5.11311 9.80026 4.40117 9.08452C3.68923 8.36878 3.29078 7.39954 3.29347 6.39002C3.29616 5.3805 3.69977 4.4134 4.41551 3.70146C5.13125 2.98953 6.10049 2.59107 7.11001 2.59376C9.20405 2.59792 10.9201 4.31704 10.8982 6.40432Z" />
<path d="M24.3189 22.6621C24.3192 22.709 24.3009 22.7541 24.2681 22.7876C24.2353 22.8211 24.1905 22.8403 24.1436 22.841C18.9735 22.841 13.8027 22.841 8.63152 22.841C8.33824 22.841 8.0954 22.763 7.94252 22.5009C7.89662 22.4227 7.86906 22.335 7.86192 22.2446C7.85048 22.0433 7.86192 21.841 7.85828 21.6393C7.85828 21.3704 8.17496 21.0673 8.39804 21.0673C8.49476 21.0673 8.59096 21.0501 8.68716 21.0501C13.8289 21.0501 18.9703 21.0501 24.1114 21.0501C24.153 21.0445 24.1952 21.0462 24.2362 21.0553C24.27 21.0688 24.3163 21.1073 24.3168 21.137C24.3194 21.6408 24.3189 22.1452 24.3189 22.6621Z" />
<path d="M25.8176 11.3147C25.7266 11.5991 25.6257 11.8809 25.5274 12.1633C25.4 12.5273 25.2674 12.8913 25.1442 13.2579C25.035 13.5735 24.932 13.8918 24.8238 14.2085C24.7157 14.5251 24.5997 14.8465 24.49 15.1658C24.3803 15.4851 24.2784 15.7939 24.1712 16.1075C24.0454 16.4767 23.918 16.8449 23.7916 17.2135C23.6653 17.5822 23.5384 17.9597 23.411 18.3326C23.2529 18.794 23.0943 19.2552 22.9352 19.7163C22.89 19.8468 22.8515 19.9805 22.7958 20.1063C22.657 20.4183 22.4079 20.5639 22.0678 20.5634C21.0788 20.5634 20.0908 20.5634 19.1038 20.5634H11.4281C11.0698 20.5634 10.8306 20.4188 10.7152 20.0954C10.6801 20.0002 10.6674 19.8982 10.6779 19.7973C10.6885 19.6964 10.722 19.5992 10.776 19.5133C10.83 19.4274 10.903 19.355 10.9894 19.3018C11.0758 19.2486 11.1732 19.2158 11.2742 19.2062C11.354 19.2006 11.434 19.1992 11.5139 19.202C14.8419 19.202 18.1699 19.202 21.4979 19.202C21.6284 19.202 21.6888 19.1693 21.7314 19.0393C21.917 18.4673 22.1152 17.8953 22.3112 17.3274C22.5192 16.7154 22.7366 16.1049 22.9461 15.4929C23.1058 15.0275 23.2581 14.56 23.4178 14.0941C23.5571 13.6848 23.6996 13.2771 23.8395 12.8684C24.0012 12.3968 24.1593 11.9236 24.3236 11.453C24.4172 11.1852 24.5077 10.9148 24.6236 10.6558C24.723 10.4327 25.0157 10.2783 25.2388 10.3084C25.5238 10.3469 25.7307 10.4842 25.8425 10.766C25.9184 10.9626 25.8742 11.1373 25.8176 11.3147Z" />
</svg>
