<svg width="45" height="44" viewBox="0 0 45 44" fill="none" xmlns="http://www.w3.org/2000/svg">
<path d="M22.0921 0C9.8911 0 0 9.8911 0 22.0921C0 33.035 7.96464 42.0975 18.4076 43.8524V26.7011H13.0783V20.5291H18.4076V15.978C18.4076 10.6975 21.6328 7.81996 26.344 7.81996C28.6004 7.81996 30.5395 7.98809 31.1025 8.06215V13.5817L27.8349 13.5833C25.2733 13.5833 24.7794 14.8003 24.7794 16.5868V20.5259H30.8916L30.0944 26.698H24.7794V44C35.7099 42.6697 44.1839 33.3763 44.1839 22.0858C44.1839 9.8911 34.2929 0 22.0921 0Z" fill="#17A24F"/>
</svg>
