<svg width="44" height="44" viewBox="0 0 44 44" fill="none" xmlns="http://www.w3.org/2000/svg">
<path fill-rule="evenodd" clip-rule="evenodd" d="M0 22C0 9.85159 9.85159 0 22 0C34.1484 0 44 9.85159 44 22C44 34.1484 34.1484 44 22 44C9.85159 44 0 34.1484 0 22ZM33.9695 30.2748C34.2817 29.4712 34.4955 28.5531 34.5566 27.2083C34.6184 25.8611 34.6328 25.4308 34.6328 22C34.6328 18.5692 34.6184 18.1389 34.5569 16.7917C34.4955 15.4469 34.282 14.5288 33.9695 13.7252C33.6526 12.8822 33.1551 12.1189 32.5126 11.4878C31.8815 10.8449 31.1178 10.3474 30.2748 10.0302C29.4712 9.71832 28.5531 9.50482 27.2083 9.44373C25.8611 9.38196 25.4308 9.36719 22 9.36719C18.5692 9.36719 18.1389 9.38196 16.7917 9.44339C15.4469 9.50482 14.5288 9.71832 13.7252 10.0305C12.8822 10.3477 12.1185 10.8449 11.4878 11.4878C10.8449 12.1185 10.3474 12.8822 10.0302 13.7252C9.71799 14.5288 9.50449 15.4469 9.44339 16.7917C9.38162 18.1389 9.36719 18.5692 9.36719 22C9.36719 25.4308 9.38162 25.8611 9.44373 27.2086C9.50482 28.5531 9.71866 29.4715 10.0309 30.2748C10.3481 31.1178 10.8452 31.8815 11.4878 32.5122C12.1189 33.1551 12.8822 33.6523 13.7255 33.9695C14.5288 34.2817 15.4473 34.4952 16.7917 34.5566C18.1392 34.618 18.5692 34.6328 22.0003 34.6328C25.4311 34.6328 25.8615 34.618 27.2086 34.5566C28.5531 34.4952 29.4715 34.2817 30.2748 33.9695C31.9718 33.3132 33.3132 31.9718 33.9695 30.2748ZM31.848 14.5489C31.6455 14.0004 31.3226 13.5039 30.903 13.0964C30.4954 12.6767 29.9993 12.3538 29.4504 12.1514C29.0053 11.9785 28.3366 11.7727 27.1049 11.7167C25.7726 11.6559 25.3731 11.6428 22.0001 11.6428C18.6267 11.6428 18.2272 11.6556 16.8952 11.7163C15.6635 11.7727 14.9945 11.9785 14.5497 12.1514C14.0008 12.3538 13.5043 12.6767 13.0971 13.0964C12.6775 13.5039 12.3546 14.0001 12.1518 14.5489C11.9789 14.994 11.7732 15.6631 11.7171 16.8947C11.6563 18.2268 11.6432 18.6262 11.6432 21.9996C11.6432 25.3727 11.6563 25.7721 11.7171 27.1045C11.7732 28.3362 11.9789 29.0049 12.1518 29.45C12.3546 29.9989 12.6772 30.495 13.0968 30.9025C13.5043 31.3222 14.0005 31.6451 14.5493 31.8475C14.9945 32.0207 15.6635 32.2265 16.8952 32.2826C18.2272 32.3433 18.6263 32.3561 21.9997 32.3561C25.3734 32.3561 25.7729 32.3433 27.1046 32.2826C28.3363 32.2265 29.0053 32.0207 29.4504 31.8475C30.5522 31.4225 31.423 30.5517 31.848 29.45C32.0208 29.0049 32.2266 28.3362 32.283 27.1045C32.3438 25.7721 32.3565 25.3727 32.3565 21.9996C32.3565 18.6262 32.3438 18.2268 32.283 16.8947C32.227 15.6631 32.0212 14.994 31.848 14.5489ZM22.0001 28.4862C18.4172 28.4862 15.5128 25.5821 15.5128 21.9993C15.5128 18.4164 18.4172 15.5124 22.0001 15.5124C25.5826 15.5124 28.487 18.4164 28.487 21.9993C28.487 25.5821 25.5826 28.4862 22.0001 28.4862ZM28.7435 16.7719C27.9062 16.7719 27.2275 16.0931 27.2275 15.2559C27.2275 14.4187 27.9062 13.7399 28.7435 13.7399C29.5807 13.7399 30.2595 14.4187 30.2595 15.2559C30.2591 16.0931 29.5807 16.7719 28.7435 16.7719ZM26.2109 22C26.2109 24.3257 24.3257 26.2109 22 26.2109C19.6743 26.2109 17.7891 24.3257 17.7891 22C17.7891 19.6743 19.6743 17.7891 22 17.7891C24.3257 17.7891 26.2109 19.6743 26.2109 22Z" fill="#17A24F"/>
</svg>
