<svg width="44" height="44" viewBox="0 0 44 44" fill="none" xmlns="http://www.w3.org/2000/svg">
<path fill-rule="evenodd" clip-rule="evenodd" d="M0 22C0 9.85159 9.85159 0 22 0C34.1484 0 44 9.85159 44 22C44 34.1484 34.1484 44 22 44C9.85159 44 0 34.1484 0 22ZM22.4609 34.8091H22.4663C29.723 34.8091 35.6305 28.9039 35.6335 21.6458C35.6349 18.1288 34.2666 14.8215 31.7804 12.3334C29.2946 9.84555 25.9884 8.47458 22.4663 8.47324C15.2086 8.47324 9.30173 14.3777 9.29871 21.6354C9.2977 23.9554 9.90396 26.22 11.0564 28.216L9.18826 35.0373L16.1683 33.2068C18.0915 34.2555 20.2571 34.808 22.4609 34.8091ZM11.5216 21.6357C11.5243 15.6033 16.4338 10.6958 22.4706 10.6958C25.3935 10.6968 28.1415 11.8365 30.2077 13.9043C32.2739 15.9722 33.4112 18.7209 33.4102 21.6444C33.4075 27.6772 28.498 32.585 22.4659 32.585H22.4616C20.4977 32.5843 18.5715 32.057 16.8914 31.0599L16.4916 30.8229L12.3495 31.9093L13.4552 27.8719L13.1951 27.458C12.0997 25.716 11.521 23.7029 11.5216 21.6357ZM26.6873 27.9034C27.3194 27.8088 28.6336 27.1075 28.9079 26.3394C29.1821 25.571 29.1821 24.9127 29.0996 24.7754C29.0334 24.665 28.8787 24.5902 28.6495 24.4794C28.5937 24.4524 28.5335 24.4233 28.4691 24.3911C28.1401 24.2266 26.5228 23.4306 26.221 23.3212C25.9195 23.2114 25.7 23.1564 25.4808 23.4857C25.2616 23.815 24.6308 24.5559 24.4391 24.7754C24.2471 24.9946 24.0551 25.0222 23.7264 24.8577C23.6725 24.8307 23.599 24.7987 23.5081 24.7593C23.0447 24.5583 22.1313 24.1621 21.0805 23.2252C20.1026 22.3531 19.442 21.2758 19.2503 20.9468C19.0783 20.6519 19.2131 20.4918 19.348 20.3316C19.3637 20.313 19.3794 20.2943 19.3947 20.2755C19.7428 19.8438 20.1073 19.3701 20.2171 19.1506C20.3265 18.931 20.2718 18.739 20.1896 18.5742C20.1346 18.4642 19.8221 17.7039 19.5392 17.0153C19.399 16.6741 19.266 16.3505 19.1751 16.1323C18.9395 15.5659 18.7004 15.5674 18.5086 15.5686C18.4832 15.5687 18.4586 15.5689 18.4349 15.5677C18.2432 15.5583 18.0237 15.5563 17.8045 15.5563C17.5853 15.5563 17.2288 15.6385 16.927 15.9678C16.9077 15.9889 16.8862 16.0118 16.8629 16.0367C16.5204 16.4018 15.7755 17.1961 15.7755 18.7115C15.7755 20.3214 16.9413 21.8769 17.1161 22.1102L17.119 22.1141C17.1298 22.1284 17.1491 22.1562 17.1768 22.1958C17.571 22.7609 19.6553 25.749 22.7392 27.0803C23.5244 27.419 24.137 27.6214 24.615 27.7732C25.4032 28.0233 26.1203 27.988 26.6873 27.9034Z" fill="#17A24F"/>
</svg>
