<svg width="44" height="44" viewBox="0 0 44 44" fill="none" xmlns="http://www.w3.org/2000/svg">
<path fill-rule="evenodd" clip-rule="evenodd" d="M0 22C0 9.85159 9.85159 0 22 0C34.1484 0 44 9.85159 44 22C44 34.1484 34.1484 44 22 44C9.85159 44 0 34.1484 0 22ZM35.1807 28.6357C35.7466 26.4842 35.7466 22.0225 35.7466 22.0225C35.7466 22.0225 35.7695 17.5386 35.1807 15.3872C34.8634 14.2096 33.9349 13.2807 32.7573 12.9638C30.6058 12.375 22 12.375 22 12.375C22 12.375 13.3942 12.375 11.2427 12.9413C10.0876 13.2582 9.13623 14.2096 8.81934 15.3872C8.25302 17.5386 8.25302 22 8.25302 22C8.25302 22 8.25302 26.4842 8.81934 28.6128C9.13657 29.7904 10.0651 30.7193 11.2427 31.0362C13.4167 31.625 22 31.625 22 31.625C22 31.625 30.6058 31.625 32.7573 31.0587C33.9349 30.7418 34.8634 29.8133 35.1807 28.6357ZM26.4162 22.0001L19.2599 26.1217V17.8784L26.4162 22.0001Z" fill="#17A24F"/>
</svg>
