<svg width="82" height="94" viewBox="0 0 82 94" fill="none" xmlns="http://www.w3.org/2000/svg">
<path d="M44.8488 3.58222L77.0694 22.6188C79.5054 24.058 81 26.677 81 29.5064V65.38C81 68.261 79.4508 70.9195 76.9443 72.34L44.7228 90.6C42.2631 91.9939 39.2504 91.9861 36.798 90.5794L5.01946 72.3507C2.53329 70.9246 1 68.2775 1 65.4113V29.4747C1 26.6605 2.47871 24.0532 4.89402 22.6088L36.6734 3.60398C39.1888 2.09972 42.3254 2.09137 44.8488 3.58222Z" stroke="#A9A9AD" stroke-width="2"/>
<path fill-rule="evenodd" clip-rule="evenodd" d="M40 28C39.4477 28 39 28.4477 39 29V47H23C22.4477 47 22 47.4477 22 48C22 48.5523 22.4477 49 23 49H39V65C39 65.5523 39.4477 66 40 66C40.5523 66 41 65.5523 41 65V49H59C59.5523 49 60 48.5523 60 48C60 47.4477 59.5523 47 59 47H41V29C41 28.4477 40.5523 28 40 28Z" fill="#A9A9AD"/>
</svg>
