<svg width="27" height="27" viewBox="0 0 27 27" fill="none" xmlns="http://www.w3.org/2000/svg">
<path fill-rule="evenodd" clip-rule="evenodd" d="M1.7071 0.292894C1.31659 -0.0976315 0.683407 -0.0976315 0.292889 0.292894C-0.0976295 0.683418 -0.0976295 1.31658 0.292889 1.70711L11.6067 13.0209L0.293041 24.3346C-0.097477 24.7251 -0.097477 25.3582 0.293041 25.7488C0.683559 26.1393 1.31672 26.1393 1.70726 25.7488L13.0209 14.4351L24.3345 25.7487C24.725 26.1393 25.3582 26.1393 25.7487 25.7487C26.1393 25.3582 26.1393 24.725 25.7487 24.3345L14.4351 13.0209L25.7489 1.70713C26.1394 1.31661 26.1394 0.683445 25.7489 0.292921C25.3584 -0.0976028 24.7252 -0.0976028 24.3347 0.292921L13.0209 11.6067L1.7071 0.292894Z" fill="white"/>
</svg>
