<svg width="16" height="16" viewBox="0 0 16 16" fill="none" xmlns="http://www.w3.org/2000/svg">
<path fill-rule="evenodd" clip-rule="evenodd" d="M0.318188 14.1453C-0.106063 14.5696 -0.106063 15.2574 0.318188 15.6816C0.742438 16.1059 1.43028 16.1059 1.85453 15.6816L7.99977 9.53641L14.1458 15.6824C14.5701 16.1067 15.2579 16.1067 15.6822 15.6824C16.1064 15.2582 16.1064 14.5704 15.6822 14.1461L9.53612 8.00006L15.6816 1.85453C16.1059 1.43028 16.1059 0.742438 15.6816 0.318188C15.2574 -0.106062 14.5696 -0.106063 14.1453 0.318187L7.99977 6.46372L1.85505 0.318991C1.4308 -0.10526 0.742954 -0.10526 0.318703 0.318991C-0.105547 0.743241 -0.105548 1.43109 0.318703 1.85534L6.46343 8.00006L0.318188 14.1453Z" fill="#42B16F"/>
</svg>
