<svg width="36" height="32" viewBox="0 0 36 32" fill="none" xmlns="http://www.w3.org/2000/svg">
<rect x="1" y="1" width="34" height="30" stroke="#17A24F" stroke-width="2"/>
<rect opacity="0.01" x="6" y="4" width="24" height="24" fill="#D8D8D8"/>
<mask id="mask0" mask-type="alpha" maskUnits="userSpaceOnUse" x="7" y="6" width="22" height="20">
<path d="M17.3268 8.85039L17.9795 9.41999L18.6363 8.85511C20.7874 7.00514 23.9238 7.12395 25.908 9.19843C27.9004 11.2815 28.028 14.5985 26.2783 16.838L18.6984 24.2402C18.3105 24.619 17.6913 24.6196 17.3026 24.2416L9.7109 16.8593C7.97472 14.5976 8.10707 11.2793 10.0974 9.19843C12.0844 7.12102 15.2174 7.00963 17.3268 8.85039Z" fill="white" stroke="white" stroke-width="2"/>
</mask>
<g mask="url(#mask0)">
</g>
<circle cx="21" cy="11" r="3" stroke="#17A24F" stroke-width="2"/>
<path d="M8 11H19" stroke="#17A24F" stroke-width="2"/>
<path d="M23 11H28" stroke="#17A24F" stroke-width="2"/>
<circle cx="15" cy="21" r="3" transform="rotate(-180 15 21)" stroke="#17A24F" stroke-width="2"/>
<path d="M28 21H17" stroke="#17A24F" stroke-width="2"/>
<path d="M13 21H8" stroke="#17A24F" stroke-width="2"/>
</svg>
