<svg width="40" height="29" viewBox="0 0 40 29" fill="none" xmlns="http://www.w3.org/2000/svg">
<path opacity="0.846317" fill-rule="evenodd" clip-rule="evenodd" d="M15.2011 4.15234H0.283203V2.17432C0.283203 1.53369 0.369954 1.11996 0.543457 0.933105C0.730307 0.759602 1.14404 0.672852 1.78467 0.672852H13.8564C14.5104 0.672852 14.9242 0.759602 15.0977 0.933105C15.2845 1.11996 15.3779 1.53369 15.3779 2.17432V3.05518C15.3779 3.56407 15.319 3.92979 15.2011 4.15234ZM14.2536 11.1523H0.283203V26.498C0.283203 27.152 0.369954 27.5658 0.543457 27.7393C0.71696 27.9128 1.13069 27.9995 1.78467 27.9995H13.8564C14.5104 27.9995 14.9242 27.9128 15.0977 27.7393C15.2845 27.5658 15.3779 27.152 15.3779 26.498V25.6172C15.3779 24.9632 15.2845 24.5495 15.0977 24.376C14.9242 24.2025 14.5104 24.1157 13.8564 24.1157H5.40723C4.85494 24.1157 4.40723 23.668 4.40723 23.1157V15.9868C4.40723 15.4345 4.85494 14.9868 5.40723 14.9868H13.5361C14.1901 14.9868 14.6038 14.9001 14.7773 14.7266C14.9508 14.5397 15.0376 14.126 15.0376 13.4854V12.6045C15.0376 11.9505 14.9508 11.5368 14.7773 11.3633C14.6794 11.2653 14.5048 11.195 14.2536 11.1523ZM37.3488 5.51758L36.568 5.97803C36.0875 6.27165 35.7606 6.41846 35.5871 6.41846C35.2667 6.41846 34.9665 6.20492 34.6862 5.77783C33.9388 4.61669 32.791 4.03613 31.2428 4.03613C30.0416 4.03613 29.0674 4.37646 28.32 5.05713C27.5993 5.7111 27.2389 6.5052 27.2389 7.43945C27.2389 8.34701 27.6727 9.10107 28.5402 9.70166C28.9406 9.99528 29.3243 10.2255 29.6913 10.3923C30.0583 10.5592 31.1427 11.0096 32.9445 11.7437C35.2267 12.6779 36.855 13.7856 37.8292 15.0669C38.8436 16.4015 39.3507 17.9764 39.3507 19.7915C39.3507 22.4207 38.4232 24.5895 36.568 26.2979C34.9664 27.7793 32.9645 28.52 30.5622 28.52C28.1865 28.52 26.1912 27.7593 24.5763 26.2378C23.8956 25.5838 23.2917 24.743 22.7645 23.7153C22.2374 22.6877 21.9738 21.8335 21.9738 21.1528C21.9738 20.8459 22.0572 20.629 22.224 20.5022C22.3909 20.3754 22.7345 20.252 23.255 20.1318L24.4762 19.8716C24.89 19.7782 25.1636 19.7314 25.297 19.7314C25.7908 19.7314 26.0845 20.0851 26.1779 20.7925C26.338 21.8869 26.7985 22.7811 27.5592 23.4751C28.4267 24.2492 29.4811 24.6362 30.7223 24.6362C32.1103 24.6362 33.2314 24.1424 34.0856 23.1548C34.833 22.3006 35.2067 21.273 35.2067 20.0718C35.2067 18.5236 34.5727 17.3291 33.3048 16.4883C32.8511 16.1813 32.4306 15.9377 32.0436 15.7576C31.6566 15.5774 30.5288 15.0936 28.6603 14.3062C24.9233 12.7313 23.0548 10.4224 23.0548 7.37939C23.0548 4.937 24.0958 3.02849 26.1779 1.65381C27.6994 0.652827 29.3943 0.152344 31.2628 0.152344C34.159 0.152344 36.4012 1.32014 37.9894 3.65576C38.2029 3.97608 38.3097 4.23633 38.3097 4.43652C38.3097 4.66341 38.253 4.83691 38.1395 4.95703C38.0261 5.07715 37.7625 5.264 37.3488 5.51758Z" fill="white"/>
</svg>
