<svg width="30" height="30" viewBox="0 0 30 30" fill="none" xmlns="http://www.w3.org/2000/svg">
<path d="M6.64863 18.1293L5.60438 22.0277L1.78764 22.1084C0.646992 19.9928 0 17.5722 0 14.9999C0 12.5126 0.604922 10.1669 1.67719 8.10156H1.67801L5.07598 8.72453L6.56449 12.1021C6.25295 13.0104 6.08314 13.9854 6.08314 14.9999C6.08326 16.101 6.28271 17.156 6.64863 18.1293Z" fill="#FBBB00"/>
<path d="M29.7363 12.1992C29.9085 13.1066 29.9984 14.0437 29.9984 15.0014C29.9984 16.0753 29.8855 17.1229 29.6704 18.1333C28.9402 21.5718 27.0322 24.5742 24.3891 26.6989L24.3882 26.6981L20.1083 26.4797L19.5026 22.6984C21.2564 21.6698 22.627 20.0602 23.349 18.1333H15.3281V12.1992H23.466H29.7363Z" fill="#518EF8"/>
<path d="M24.3912 26.6962L24.3921 26.697C21.8215 28.7632 18.5561 29.9995 15.0014 29.9995C9.28906 29.9995 4.3226 26.8066 1.78906 22.108L6.65006 18.1289C7.9168 21.5096 11.1781 23.9163 15.0014 23.9163C16.6448 23.9163 18.1844 23.472 19.5055 22.6965L24.3912 26.6962Z" fill="#28B446"/>
<path d="M24.577 3.45328L19.7176 7.43156C18.3503 6.57691 16.7341 6.0832 15.0025 6.0832C11.0926 6.0832 7.77033 8.60021 6.56705 12.1022L1.68051 8.10164H1.67969C4.17613 3.28846 9.20524 0 15.0025 0C18.6421 0 21.9791 1.29645 24.577 3.45328Z" fill="#F14336"/>
</svg>
