<svg width="20" height="20" viewBox="0 0 20 20" fill="none" xmlns="http://www.w3.org/2000/svg">
<path fill-rule="evenodd" clip-rule="evenodd" d="M3.112 15.0996L3.2674 14.3848L2.92499 13.7385C2.33502 12.6248 2 11.3545 2 10C2 5.58173 5.58173 2 10 2C14.4183 2 18 5.58173 18 10C18 14.4183 14.4183 18 10 18C8.70593 18 7.48901 17.6942 6.41223 17.1528L5.80432 16.8471L5.13611 16.9756L2.59808 17.4637L3.112 15.0996ZM0 20L2.13599 19.5892L5.51379 18.9397C6.86298 19.618 8.3869 20 10 20C15.5228 20 20 15.5229 20 10C20 4.47714 15.5228 0 10 0C4.47717 0 0 4.47714 0 10C0 11.6887 0.418579 13.2797 1.15765 14.6747L0.462036 17.8745L0 20ZM6.25 11.5C6.94037 11.5 7.5 10.9404 7.5 10.25C7.5 9.55963 6.94037 9 6.25 9C5.55963 9 5 9.55963 5 10.25C5 10.9404 5.55963 11.5 6.25 11.5ZM11.5 10.25C11.5 10.9404 10.9404 11.5 10.25 11.5C9.55963 11.5 9 10.9404 9 10.25C9 9.55963 9.55963 9 10.25 9C10.9404 9 11.5 9.55963 11.5 10.25ZM14.25 11.5C14.9404 11.5 15.5 10.9404 15.5 10.25C15.5 9.55963 14.9404 9 14.25 9C13.5596 9 13 9.55963 13 10.25C13 10.9404 13.5596 11.5 14.25 11.5Z" fill="white"/>
</svg>
