<svg width="20" height="20" viewBox="0 0 20 20" fill="none" xmlns="http://www.w3.org/2000/svg">
<path fill-rule="evenodd" clip-rule="evenodd" d="M18 10C18 14.4183 14.4183 18 10 18C5.58172 18 2 14.4183 2 10C2 5.58172 5.58172 2 10 2C14.4183 2 18 5.58172 18 10ZM20 10C20 15.5229 15.5228 20 10 20C4.47715 20 0 15.5229 0 10C0 4.47715 4.47715 0 10 0C15.5228 0 20 4.47715 20 10ZM12.2857 7.28571C12.2857 8.54808 11.2624 9.57143 10 9.57143C8.73763 9.57143 7.71429 8.54808 7.71429 7.28571C7.71429 6.02335 8.73763 5 10 5C11.2624 5 12.2857 6.02335 12.2857 7.28571ZM6 12.6884C6 11.2826 7.13964 10.1429 8.54545 10.1429H11.4545C12.8604 10.1429 14 11.2826 14 12.6884C14 13.4917 13.3488 14.1429 12.5455 14.1429H7.45455C6.65122 14.1429 6 13.4917 6 12.6884Z" fill="white"/>
</svg>
