<svg width="20" height="20" viewBox="0 0 20 20" fill="none" xmlns="http://www.w3.org/2000/svg">
<path fill-rule="evenodd" clip-rule="evenodd" d="M18 10C18 14.4183 14.4183 18 10 18C5.58172 18 2 14.4183 2 10C2 5.58172 5.58172 2 10 2C14.4183 2 18 5.58172 18 10ZM20 10C20 15.5228 15.5228 20 10 20C4.47715 20 0 15.5228 0 10C0 4.47715 4.47715 0 10 0C15.5228 0 20 4.47715 20 10ZM5.748 9.908C6.12933 10.2893 6.62067 10.48 7.222 10.48C7.82333 10.48 8.31467 10.2893 8.696 9.908C9.07733 9.52667 9.268 9.00233 9.268 8.335C9.268 7.88767 9.18 7.50267 9.004 7.18C8.828 6.85733 8.58233 6.61167 8.267 6.443C7.959 6.27433 7.61067 6.19 7.222 6.19C6.83333 6.19 6.48133 6.27433 6.166 6.443C5.858 6.61167 5.616 6.85733 5.44 7.18C5.264 7.50267 5.176 7.88767 5.176 8.335C5.176 9.00233 5.36667 9.52667 5.748 9.908ZM13.602 6.3H11.743L6.485 14H8.344L13.602 6.3ZM7.563 9.072C7.475 9.21867 7.36133 9.292 7.222 9.292C7.08267 9.292 6.96533 9.21867 6.87 9.072C6.782 8.918 6.738 8.67233 6.738 8.335C6.738 7.99767 6.782 7.75567 6.87 7.609C6.96533 7.455 7.08267 7.378 7.222 7.378C7.36133 7.378 7.475 7.455 7.563 7.609C7.65833 7.75567 7.706 7.99767 7.706 8.335C7.706 8.67233 7.65833 8.918 7.563 9.072ZM11.391 13.538C11.7723 13.9193 12.2637 14.11 12.865 14.11C13.4663 14.11 13.9577 13.9193 14.339 13.538C14.7203 13.1567 14.911 12.6323 14.911 11.965C14.911 11.5177 14.823 11.1327 14.647 10.81C14.471 10.4873 14.2253 10.2417 13.91 10.073C13.602 9.90433 13.2537 9.82 12.865 9.82C12.4763 9.82 12.1243 9.90433 11.809 10.073C11.501 10.2417 11.259 10.4873 11.083 10.81C10.907 11.1327 10.819 11.5177 10.819 11.965C10.819 12.6323 11.0097 13.1567 11.391 13.538ZM13.206 12.702C13.118 12.8487 13.0043 12.922 12.865 12.922C12.7257 12.922 12.6083 12.8487 12.513 12.702C12.425 12.548 12.381 12.3023 12.381 11.965C12.381 11.6277 12.425 11.3857 12.513 11.239C12.6083 11.085 12.7257 11.008 12.865 11.008C13.0043 11.008 13.118 11.085 13.206 11.239C13.3013 11.3857 13.349 11.6277 13.349 11.965C13.349 12.3023 13.3013 12.548 13.206 12.702Z" fill="white"/>
</svg>
