<svg width="22" height="25" viewBox="0 0 22 25" fill="#000" xmlns="http://www.w3.org/2000/svg">
<path d="M21.22 12.1458C21.22 12.6767 21.2174 13.2082 21.1935 13.7381C21.1784 14.0729 21.1145 14.4042 21.0895 14.7385C21.0753 14.9551 21.0423 15.17 20.9907 15.3807C20.9455 15.5591 20.9231 15.7447 20.8841 15.9236C20.8368 16.142 20.7848 16.3599 20.7281 16.5762C20.6808 16.7629 20.6267 16.948 20.5778 17.1337C20.5409 17.273 20.5097 17.4134 20.4702 17.5523C20.4494 17.6266 20.4151 17.6968 20.3885 17.7696C20.349 17.8819 20.3095 17.9943 20.2726 18.1076C20.2461 18.1882 20.2263 18.2709 20.1977 18.3505C20.1556 18.4711 20.1093 18.5907 20.0625 18.7098C20.0105 18.8455 19.9554 18.9802 19.8982 19.1143C19.841 19.2485 19.7729 19.3951 19.7094 19.535C19.6507 19.6645 19.5955 19.795 19.5311 19.9219C19.4271 20.1299 19.3142 20.3353 19.204 20.5417C19.1 20.7388 18.996 20.9401 18.8821 21.1319C18.7807 21.2994 18.6616 21.4569 18.5483 21.6181C18.3777 21.8594 18.2165 22.108 18.0319 22.3389C17.824 22.6084 17.5992 22.8646 17.359 23.1059C17.0787 23.3789 16.7709 23.6259 16.4688 23.8723C16.3316 23.9862 16.1854 24.0887 16.0315 24.1786C15.8302 24.2956 15.6201 24.3991 15.4075 24.4969C15.2099 24.5884 15.0076 24.6721 14.8027 24.7459C14.6667 24.7913 14.5277 24.8273 14.3867 24.8536C14.3534 24.8614 14.1179 24.9139 13.9223 24.943C13.5907 24.9895 13.2548 24.9974 12.9213 24.9664C12.8563 24.9664 12.7705 24.9607 12.6702 24.9524C12.506 24.9395 12.3427 24.9166 12.1814 24.8837C12.0202 24.847 11.861 24.8019 11.7045 24.7485C11.5272 24.6919 11.353 24.6274 11.1783 24.566C11.1102 24.5426 11.0421 24.5026 10.9739 24.5015C10.9157 24.5015 10.858 24.5473 10.7987 24.5697C10.6427 24.6279 10.4935 24.6913 10.3364 24.7381C10.1744 24.7856 10.0098 24.824 9.84345 24.8531C9.79457 24.8624 9.63545 24.8926 9.41705 24.9201C9.28965 24.9363 9.14249 24.955 8.94905 24.9643C8.86325 24.969 8.36145 24.9914 7.93869 24.8905L7.90229 24.8817C7.73641 24.8369 7.57001 24.7948 7.40517 24.7465C7.28458 24.7131 7.16585 24.6734 7.04949 24.6274C6.91273 24.5712 6.77961 24.5057 6.64753 24.4397C6.47489 24.3528 6.29965 24.2691 6.13377 24.1703C5.99701 24.0892 5.87377 23.9831 5.74169 23.8952C5.42292 23.6777 5.12538 23.4307 4.85301 23.1573C4.53138 22.8516 4.23408 22.5213 3.96381 22.1693C3.83953 22.004 3.70797 21.8438 3.58993 21.6743C3.45889 21.4855 3.33773 21.29 3.21501 21.0961C3.10165 20.9161 2.98725 20.7367 2.88065 20.5532C2.79381 20.4024 2.71945 20.2448 2.63781 20.0914C2.55045 19.9271 2.45581 19.7669 2.37521 19.5995C2.31021 19.4633 2.26549 19.3177 2.20517 19.1793C2.12717 18.9994 2.03981 18.8237 1.96129 18.6437C1.90929 18.5278 1.86769 18.4087 1.82245 18.2912C1.78397 18.1919 1.74549 18.092 1.71117 17.9911C1.67009 17.8705 1.63317 17.7478 1.59365 17.6271C1.52813 17.4259 1.51721 17.3983 1.45377 17.2044C1.37109 16.9506 1.28737 16.6943 1.20625 16.3724C1.18337 16.2814 1.15737 16.168 1.10901 15.9413C1.05701 15.6943 1.00085 15.4478 0.953013 15.1998C0.911413 14.971 0.880213 14.7411 0.849013 14.5108C0.830813 14.3818 0.815733 14.2508 0.804813 14.1229C0.785053 13.8675 0.765813 13.6122 0.752813 13.3564C0.743973 13.1941 0.739293 13.0309 0.745533 12.8686C0.761133 12.4791 0.784013 12.0886 0.803773 11.6997C0.805539 11.678 0.808841 11.6564 0.813653 11.6352C0.841213 11.4833 0.869293 11.3325 0.896853 11.1812C0.917133 11.0689 0.928573 10.9535 0.958213 10.8432C1.01489 10.6352 1.07573 10.4319 1.14645 10.2296C1.22393 10.0076 1.30869 9.78658 1.40177 9.57026C1.49579 9.34367 1.60167 9.1222 1.71897 8.90674C1.83289 8.71585 1.95664 8.531 2.08973 8.35294C2.34171 7.99184 2.63566 7.66194 2.96541 7.37014C3.12138 7.22692 3.28452 7.09172 3.45421 6.96506C3.65512 6.82579 3.86343 6.69751 4.07821 6.58078C4.29401 6.46066 4.51553 6.3473 4.74225 6.2485C4.90611 6.18284 5.07408 6.12795 5.24509 6.08418C5.47753 6.01658 5.70945 5.94222 5.94709 5.8949C6.19648 5.84503 6.44888 5.81168 6.70265 5.79506C7.16106 5.77076 7.62072 5.78816 8.07597 5.84706C8.08221 5.84706 8.08845 5.84706 8.09469 5.85018C8.30893 5.89542 8.52265 5.93962 8.73689 5.98642C8.89965 6.0223 9.06137 6.05922 9.22309 6.0977C9.2917 6.11361 9.35926 6.13376 9.42537 6.15802C9.59229 6.21938 9.75973 6.28334 9.92613 6.34782C10.0301 6.38734 10.1305 6.42426 10.2272 6.47314C10.3099 6.51422 10.3505 6.50122 10.3832 6.41438C10.4352 6.26722 10.4966 6.12266 10.5548 5.97758C10.6131 5.8325 10.676 5.6791 10.7358 5.52986C10.7956 5.38062 10.8554 5.23086 10.9188 5.08318C10.989 4.92042 11.067 4.76078 11.1367 4.5975C11.2121 4.42226 11.2755 4.24234 11.3551 4.06866C11.4627 3.83466 11.5829 3.60586 11.6936 3.3729C11.7862 3.17842 11.8683 2.97874 11.9635 2.78478C12.094 2.51958 12.2235 2.25386 12.3686 1.99594C12.5246 1.71202 12.6957 1.4359 12.8595 1.15614C12.9822 0.94814 13.1002 0.73702 13.2235 0.53214C13.2712 0.45147 13.3353 0.381672 13.4116 0.327225C13.4878 0.272778 13.5747 0.234886 13.6665 0.21598C13.914 0.16398 14.1288 0.27994 14.3425 0.38134C14.4678 0.44114 14.5911 0.50562 14.7174 0.56438C14.8438 0.62314 14.9774 0.67774 15.1038 0.73702C15.2738 0.81606 15.4439 0.89302 15.6118 0.9783C15.7559 1.05058 15.9207 1.09062 16.0278 1.2227C16.071 1.2747 16.1214 1.33814 16.0928 1.41822C16.0614 1.50715 16.0056 1.58539 15.9316 1.6439C15.6758 1.8467 15.4168 2.04534 15.1662 2.25438C14.9062 2.4707 14.6462 2.6865 14.4002 2.92154C14.1236 3.18726 13.8589 3.46754 13.6025 3.75354C13.3118 4.07037 13.0429 4.40654 12.7976 4.75974C12.6 5.05094 12.3816 5.32914 12.1835 5.61878C11.9853 5.90842 11.7877 6.21938 11.5813 6.53502C11.6055 6.53826 11.6299 6.53826 11.6541 6.53502C11.7753 6.48718 11.8949 6.43674 12.0181 6.38786C12.1304 6.3421 12.2422 6.29322 12.3566 6.2537C12.471 6.21418 12.6015 6.17882 12.7248 6.14294C12.8017 6.12006 12.8782 6.09822 12.9551 6.07742C13.1236 6.03166 13.2916 5.98226 13.4621 5.94326C13.5885 5.91362 13.718 5.8975 13.8464 5.8767C14.1459 5.82834 14.2957 5.80546 14.4049 5.79194C14.7327 5.75326 15.0632 5.7423 15.3929 5.75918C15.637 5.77263 15.88 5.80023 16.1209 5.84186C16.5067 5.9085 16.8859 6.00836 17.2545 6.14034C17.4434 6.20145 17.6276 6.27617 17.8057 6.36394C18.5978 6.76282 19.2843 7.34333 19.8093 8.0581C19.9881 8.31082 20.1525 8.57342 20.3116 8.8381C20.3928 8.98643 20.4661 9.13901 20.531 9.29518C20.5919 9.42934 20.6537 9.5635 20.7078 9.70026C20.7525 9.8131 20.7905 9.92958 20.8243 10.0466C20.8649 10.1844 20.8971 10.3248 20.934 10.4626C20.9787 10.6285 21.038 10.7912 21.0677 10.9592C21.1124 11.1932 21.141 11.4298 21.1717 11.6659C21.1979 11.8247 21.2141 11.985 21.22 12.1458Z"/>
</svg>
