<svg width="26" height="26" viewBox="0 0 26 26" fill="#000" xmlns="http://www.w3.org/2000/svg">
<path d="M25.9392 21.8844C25.9242 22.0248 25.9143 22.1548 25.8956 22.2832C25.8789 22.3966 25.8529 22.5084 25.8316 22.6207C25.7716 22.9051 25.6631 23.1771 25.5108 23.4246C25.318 23.7523 25.0648 24.0405 24.7646 24.2738C24.5312 24.4543 24.2733 24.6007 23.9986 24.7085C23.5758 24.8796 23.1375 24.9165 22.6866 24.9165C16.2601 24.9134 9.83327 24.9125 3.40607 24.9139C3.22927 24.9139 3.05143 24.9233 2.87619 24.9061C2.70251 24.8884 2.53052 24.8567 2.36191 24.8115C2.13217 24.7583 1.90909 24.6796 1.69683 24.5769C1.53464 24.4958 1.37995 24.4004 1.23455 24.292C0.967503 24.1024 0.735574 23.8676 0.549194 23.5983C0.308937 23.2413 0.155277 22.8332 0.100434 22.4065C0.0931541 22.3503 0.0889941 22.3025 0.0869141 22.2723V21.8828H0.270474L25.9392 21.8844Z"/>
<path d="M22.5444 20.3633H3.46045C4.10057 17.7071 4.73393 15.0593 5.38081 12.3828C6.54405 13.4337 7.82481 14.2101 9.26521 14.715C10.7201 15.2283 12.2649 15.4371 13.8038 15.3286C13.8038 15.3723 13.811 15.4134 13.811 15.455C13.811 15.767 13.8043 16.0759 13.8136 16.3858C13.8148 16.6197 13.8352 16.8531 13.8745 17.0836C13.939 17.3916 14.0704 17.6817 14.2593 17.9333C14.499 18.2661 14.826 18.5263 15.2041 18.6852C15.4911 18.8091 15.8017 18.8687 16.1141 18.8599C16.3708 18.8478 16.6243 18.7983 16.8666 18.7128C17.3444 18.5505 17.7048 18.2375 17.9835 17.8329C18.1114 17.6445 18.2055 17.4353 18.2617 17.2147C18.3292 16.944 18.3608 16.6657 18.3559 16.3868C18.3559 15.6297 18.3559 14.8721 18.3533 14.1144C18.3509 14.0817 18.3584 14.0491 18.3748 14.0207C18.3913 13.9924 18.4158 13.9696 18.4453 13.9553C18.8436 13.7062 19.2487 13.466 19.6319 13.1956C19.9481 12.9725 20.2367 12.7109 20.5373 12.4676L20.6272 12.3969C20.6636 12.5326 20.6979 12.6501 20.727 12.7687C20.7702 12.9449 20.8092 13.1223 20.8513 13.2985C20.8934 13.4748 20.9366 13.636 20.9777 13.805C21.0422 14.0681 21.1066 14.3307 21.169 14.5944C21.2268 14.8403 21.2798 15.0873 21.3386 15.3333C21.3791 15.5028 21.427 15.6703 21.4686 15.8393C21.5102 16.0083 21.546 16.1715 21.5861 16.3374C21.648 16.5938 21.713 16.8496 21.7743 17.1065C21.8133 17.2687 21.8466 17.4325 21.8851 17.5953C21.9288 17.7783 21.9771 17.9593 22.0208 18.1444C22.0645 18.3295 22.0998 18.4991 22.1425 18.6753C22.1851 18.8516 22.2298 19.0128 22.273 19.1818C22.2933 19.2614 22.311 19.3415 22.3302 19.421C22.4009 19.7112 22.4722 20.0019 22.5419 20.2925C22.5486 20.3118 22.5637 20.3633 22.5444 20.3633Z"/>
<path d="M20.1609 10.7262C20.0486 10.8442 19.9347 10.9618 19.814 11.071C19.5998 11.266 19.3908 11.4688 19.1609 11.643C18.7798 11.9316 18.3955 12.2186 17.9904 12.4718C17.6493 12.685 17.2796 12.8546 16.9171 13.0314C16.8391 13.0688 16.8422 13.1146 16.8422 13.1738C16.8422 14.296 16.8422 15.418 16.8422 16.5398C16.8473 16.6823 16.8143 16.8236 16.7466 16.949C16.5562 17.2824 16.2515 17.3947 15.9146 17.3229C15.7859 17.3009 15.6665 17.2416 15.5713 17.1524C15.476 17.0632 15.4089 16.948 15.3784 16.8211C15.349 16.7148 15.3327 16.6053 15.3301 16.4951C15.3259 15.5788 15.3275 14.6626 15.3275 13.7464V13.5961L14.8278 13.6803C14.8101 13.6829 14.7934 13.6912 14.7758 13.6928C14.3795 13.7323 13.9838 13.7765 13.5865 13.8082C13.3149 13.8351 13.042 13.8464 12.7691 13.842C12.4503 13.8311 12.1321 13.79 11.8144 13.7568C11.6474 13.7401 11.4795 13.7256 11.3146 13.6954C11.1124 13.6585 10.9122 13.607 10.7114 13.5592C10.5627 13.5238 10.413 13.4905 10.2668 13.4463C10.0744 13.3877 9.88378 13.3236 9.69484 13.2539C9.47332 13.1723 9.24972 13.0932 9.036 12.9939C8.724 12.8473 8.412 12.6934 8.11352 12.5233C7.83989 12.3727 7.5767 12.2038 7.32572 12.0179C6.97472 11.749 6.64088 11.4573 6.30652 11.1677C6.15052 11.034 6.01376 10.8817 5.8666 10.7392C5.83784 10.7165 5.81796 10.6845 5.81045 10.6487C5.80293 10.6128 5.80827 10.5755 5.82552 10.5432C5.88064 10.3908 5.9004 10.226 5.9394 10.0668C6.00336 9.80685 6.07252 9.54321 6.13596 9.28113C6.17496 9.12201 6.20668 8.96185 6.24308 8.80273C6.26128 8.72265 6.28364 8.64361 6.30652 8.55469H19.7173C19.7693 8.78453 19.8177 9.02269 19.8759 9.25409C19.9529 9.56609 20.0392 9.87237 20.1182 10.1823C20.1552 10.3263 20.1884 10.4719 20.2134 10.6186C20.2105 10.6599 20.1917 10.6985 20.1609 10.7262Z"/>
<path d="M16.0348 4.00694C16.0336 4.80972 15.7135 5.57914 15.1449 6.14592C14.5764 6.7127 13.806 7.03041 13.0032 7.02917C12.2004 7.02793 11.431 6.70783 10.8642 6.1393C10.2975 5.57077 9.97974 4.80036 9.98098 3.99758C9.97474 2.34502 11.333 0.9613 13.0074 0.97274C14.6833 0.96026 16.0462 2.3497 16.0348 4.00694Z"/>
</svg>
