<svg width="26" height="26" viewBox="0 0 26 26" fill="#000" xmlns="http://www.w3.org/2000/svg">
<path d="M25.8591 15.6827C25.8447 15.6666 25.8249 15.6564 25.8035 15.6541C25.6969 15.6359 4.2235 12.1851 0.131104 11.5273C0.18241 12.2148 0.24845 12.9211 0.329224 13.6463C0.419704 14.4648 0.522664 15.2557 0.638104 16.0191C0.924634 15.7206 1.29005 15.5097 1.69181 15.4109C2.09356 15.312 2.51513 15.3293 2.90744 15.4608C3.29974 15.5922 3.64664 15.8324 3.90775 16.1533C4.16885 16.4742 4.33342 16.8628 4.3823 17.2736C4.43118 17.6844 4.36235 18.1007 4.18383 18.474C4.00531 18.8472 3.72445 19.162 3.37393 19.3819C3.02342 19.6017 2.61767 19.7174 2.20394 19.7156C1.79021 19.7138 1.3855 19.5944 1.03694 19.3715V19.3991C1.0437 20.1505 1.05202 20.6684 1.2361 21.2191C1.34374 21.5399 1.46282 21.7266 1.6001 21.8712C1.67624 21.9474 1.75967 22.0161 1.84918 22.076C2.81378 22.7042 14.4384 23.0167 15.4378 23.0458C15.4352 23.0089 15.4342 22.9715 15.4342 22.934C15.434 22.665 15.4899 22.3989 15.5984 22.1527C15.7069 21.9066 15.8656 21.6857 16.0643 21.5044C16.263 21.323 16.4973 21.1851 16.7524 21.0994C17.0074 21.0138 17.2775 20.9823 17.5454 21.0069C17.8133 21.0316 18.0731 21.1119 18.3081 21.2427C18.5432 21.3735 18.7485 21.5518 18.9107 21.7664C19.073 21.981 19.1886 22.2271 19.2504 22.489C19.3121 22.7508 19.3185 23.0227 19.2692 23.2871C21.643 23.4821 23.3855 23.5305 23.7318 23.4468C23.896 23.4083 24.0496 23.3339 24.1816 23.2289C24.2775 23.1412 24.3591 23.0391 24.4234 22.9262C24.4645 22.8514 24.5004 22.774 24.5311 22.6943C24.5409 22.6683 24.5571 22.6241 24.5695 22.5903L24.6163 22.4562C24.8581 21.7578 25.803 16.0035 25.8643 15.8002C25.8685 15.7893 25.8914 15.7222 25.8591 15.6827ZM6.93426 20.3065C6.80733 20.3066 6.68322 20.269 6.57762 20.1986C6.47203 20.1282 6.38971 20.028 6.34106 19.9107C6.29241 19.7935 6.27963 19.6645 6.30433 19.5399C6.32903 19.4154 6.3901 19.3011 6.47982 19.2113C6.56954 19.1215 6.68388 19.0603 6.80837 19.0355C6.93285 19.0107 7.0619 19.0234 7.17918 19.0719C7.29647 19.1205 7.39671 19.2027 7.46724 19.3083C7.53778 19.4138 7.57542 19.5379 7.57542 19.6648C7.57529 19.8349 7.50771 19.9979 7.38751 20.1182C7.26732 20.2385 7.10432 20.3062 6.93426 20.3065ZM9.51606 18.1142C9.2426 18.1142 8.97527 18.0331 8.74789 17.8812C8.52051 17.7292 8.34329 17.5133 8.23863 17.2606C8.13398 17.008 8.1066 16.73 8.15995 16.4618C8.2133 16.1935 8.34499 15.9472 8.53836 15.7538C8.73173 15.5604 8.9781 15.4287 9.24632 15.3754C9.51453 15.322 9.79254 15.3494 10.0452 15.4541C10.2978 15.5587 10.5138 15.7359 10.6657 15.9633C10.8177 16.1907 10.8987 16.458 10.8987 16.7315C10.8987 17.0982 10.7531 17.4499 10.4938 17.7092C10.2345 17.9685 9.88277 18.1142 9.51606 18.1142Z" />
<path d="M25.6616 13.9365C25.6533 13.9215 25.6257 13.8715 25.5841 13.7935C25.5841 13.7935 25.5409 13.7129 25.4988 13.6303C25.4401 13.5153 24.5249 11.6735 23.2727 9.15046C23.0466 9.2937 22.793 9.38795 22.5282 9.42711C22.2634 9.46627 21.9933 9.44948 21.7354 9.37781C21.4775 9.30615 21.2375 9.18121 21.0309 9.01105C20.8243 8.8409 20.6556 8.62931 20.5359 8.38995C20.4161 8.15059 20.3478 7.88877 20.3354 7.62138C20.3231 7.354 20.367 7.087 20.4642 6.83762C20.5614 6.58824 20.7098 6.36201 20.8999 6.17354C21.09 5.98506 21.3174 5.83854 21.5676 5.74342C21.5631 5.7275 21.5569 5.71215 21.5489 5.69766C21.5042 5.61394 20.8968 4.54274 20.0633 3.07842C20.0276 3.0158 19.9815 2.95971 19.927 2.91254C19.7492 2.76122 19.5318 2.74874 19.3925 2.74302C19.2757 2.73911 19.159 2.74905 19.0446 2.77266C18.7196 2.84702 17.6759 3.27706 16.286 3.92446C16.5514 4.29443 16.73 4.71956 16.8082 5.16814C16.8864 5.61673 16.8624 6.07719 16.7378 6.51518C16.6133 6.95318 16.3915 7.3574 16.0889 7.69771C15.7864 8.03801 15.4109 8.30562 14.9905 8.48057C14.5701 8.65551 14.1156 8.73328 13.6609 8.70808C13.2063 8.68288 12.7632 8.55535 12.3647 8.33501C11.9662 8.11467 11.6226 7.8072 11.3595 7.43554C11.0964 7.06388 10.9206 6.63761 10.8452 6.18854C9.90922 6.3617 0.58458 10.6709 0.4863 10.7125C0.462514 10.7225 0.44134 10.7378 0.42442 10.7573C0.411946 10.7713 0.402543 10.7878 0.396813 10.8057C0.391083 10.8237 0.38915 10.8426 0.39114 10.8613C0.395217 10.8788 0.402632 10.8954 0.41298 10.9101C0.420184 10.9201 0.428372 10.9293 0.43742 10.9377C0.460161 10.9568 0.486262 10.9714 0.51438 10.9809C0.6605 11.0271 16.3744 13.4628 16.5824 13.5237C16.6567 13.5336 16.7315 13.5392 16.8065 13.5403C16.8129 13.5411 16.8193 13.5411 16.8257 13.5403C16.678 13.2282 16.6181 12.8818 16.6525 12.5382C16.6869 12.1946 16.8143 11.8669 17.0209 11.5903C17.2276 11.3137 17.5057 11.0986 17.8254 10.9681C18.1451 10.8377 18.4943 10.7968 18.8354 10.85C19.1766 10.9031 19.4969 11.0481 19.7618 11.2696C20.0267 11.491 20.2263 11.7805 20.339 12.1068C20.4518 12.4332 20.4735 12.7841 20.4019 13.1219C20.3302 13.4596 20.1678 13.7715 19.9322 14.0239C22.6664 14.4508 24.6497 14.7545 25.0532 14.832C25.1374 14.8481 25.4057 14.8913 25.6189 14.7555C25.6898 14.705 25.7441 14.6346 25.7749 14.5533C25.8665 14.3135 25.7198 14.0405 25.6616 13.9365ZM8.83646 10.0625C8.70726 10.0626 8.58094 10.0244 8.47346 9.95272C8.36599 9.88101 8.2822 9.77905 8.23268 9.65971C8.18317 9.54038 8.17016 9.40904 8.19531 9.28232C8.22045 9.15559 8.28261 9.03917 8.37393 8.94777C8.46525 8.85638 8.58162 8.79413 8.70833 8.76888C8.83504 8.74364 8.96639 8.75654 9.08576 8.80596C9.20513 8.85538 9.30716 8.93909 9.37895 9.04651C9.45074 9.15392 9.48906 9.28022 9.48906 9.40942C9.48878 9.58236 9.41992 9.74814 9.29758 9.87039C9.17524 9.99263 9.00941 10.0614 8.83646 10.0615V10.0625Z" />
</svg>
