<svg width="26" height="26" viewBox="0 0 26 26" fill="#000" xmlns="http://www.w3.org/2000/svg">
<path d="M9.28358 4.28587C9.28358 4.37843 9.23938 4.39299 9.1645 4.38987C8.87798 4.38987 8.5925 4.38987 8.3065 4.38987H5.05598C4.89219 4.38987 4.89062 4.38986 4.89062 4.22346C4.89062 3.09038 4.89062 1.95783 4.89062 0.825265C4.89062 0.495065 5.03674 0.243385 5.3347 0.087385C5.37838 0.064505 5.42362 0.043185 5.46886 0.020825C5.47552 0.0175948 5.48279 0.0158219 5.49018 0.015625H9.22846C9.24226 0.015625 9.25548 0.0211036 9.26523 0.0308554C9.27499 0.0406073 9.28046 0.0538337 9.28046 0.067625C9.28046 1.47371 9.2815 2.87979 9.28358 4.28587Z" />
<path d="M21.0833 4.22503C21.0833 4.38883 21.0833 4.39091 20.9169 4.39091H16.8547C16.6919 4.39091 16.6919 4.39091 16.6919 4.22763C16.6919 2.84096 16.6919 1.45429 16.6919 0.0676265C16.6919 0.0538352 16.6974 0.0406088 16.7071 0.0308569C16.7169 0.021105 16.7301 0.0156265 16.7439 0.0156265H20.4827C20.4897 0.0155698 20.4967 0.0171732 20.503 0.0203065C20.542 0.0379865 20.5825 0.0541065 20.6195 0.0749065C20.8373 0.199706 21.0183 0.354666 21.0485 0.625066C21.0663 0.748483 21.0774 0.872771 21.0817 0.997386C21.0845 2.07344 21.085 3.14932 21.0833 4.22503Z" />
<path d="M15.1716 4.25181C15.1716 4.36985 15.1367 4.39689 15.0234 4.39637C13.6662 4.39291 12.3084 4.39291 10.9502 4.39637C10.8374 4.39637 10.8015 4.36985 10.802 4.25181C10.8062 2.87849 10.8046 1.50569 10.8051 0.133413C10.8051 0.111053 10.8051 0.0881726 10.8088 0.0652926C10.8103 0.0526093 10.8164 0.0409341 10.826 0.0324941C10.8356 0.0240542 10.848 0.0194403 10.8608 0.0195326H15.117C15.1297 0.0194403 15.1421 0.0240542 15.1517 0.0324941C15.1613 0.0409341 15.1674 0.0526093 15.169 0.0652926C15.169 0.0881726 15.1726 0.111053 15.1726 0.133413C15.169 1.50569 15.1674 2.87849 15.1716 4.25181Z" />
<path d="M23.3481 14.6712C23.0881 14.9707 22.7964 15.2468 22.5161 15.5281C22.0965 15.9441 21.6799 16.3685 21.2478 16.7735C20.8153 17.1727 20.3525 17.5378 19.8636 17.8655C19.3011 18.2451 18.7088 18.5785 18.0925 18.8624C17.7191 19.035 17.3317 19.1791 16.9448 19.3195C16.6978 19.4094 16.4415 19.4755 16.1867 19.5389C15.858 19.6237 15.5283 19.7043 15.1961 19.7745C15.0253 19.8071 14.8527 19.8293 14.6792 19.841C14.1493 19.8868 13.6194 19.9507 13.0885 19.9627C12.6366 19.9726 12.1837 19.9232 11.7313 19.8941C11.5384 19.8821 11.3455 19.8629 11.1551 19.8332C10.9274 19.7979 10.7017 19.75 10.4755 19.7032C10.3029 19.6673 10.1297 19.6289 9.9555 19.5847C9.7475 19.5327 9.5395 19.4781 9.33514 19.4131C9.11778 19.3434 8.90302 19.2638 8.69034 19.1811C8.44958 19.0881 8.20726 18.9986 7.97586 18.8863C7.53386 18.6705 7.09186 18.4589 6.66598 18.2103C6.27459 17.974 5.89554 17.7178 5.5303 17.4428C4.9843 17.0408 4.49862 16.5681 4.0223 16.0908C3.61358 15.681 3.20434 15.2718 2.79458 14.8631C2.65834 14.7273 2.53094 14.5906 2.48258 14.3951C2.40874 14.0992 2.50078 13.8563 2.70254 13.6509C3.22254 13.1237 3.74566 12.5998 4.2719 12.0795C4.35496 11.9952 4.45459 11.9291 4.56449 11.8852C4.6744 11.8414 4.7922 11.8207 4.91046 11.8247C7.54513 11.8309 10.1807 11.8323 12.8171 11.8289H13.0001C15.6812 11.8289 18.3627 11.8275 21.0445 11.8247C21.3451 11.8247 21.5671 11.9355 21.7725 12.1419C22.2098 12.5875 22.6601 13.0202 23.098 13.4653C23.2273 13.5939 23.3415 13.737 23.4381 13.8917C23.5998 14.1616 23.5483 14.4424 23.3481 14.6712Z" />
<path d="M21.9034 25.1338C21.9082 25.3096 21.8587 25.4827 21.7615 25.6293C21.6816 25.7414 21.5741 25.831 21.4495 25.8893C21.3223 25.9472 21.1828 25.9729 21.0434 25.9642C20.6019 25.946 5.65135 25.9642 4.91035 25.9642C4.54635 25.9642 4.29103 25.8082 4.14231 25.4874C4.09603 25.3788 4.07317 25.2617 4.07523 25.1437C4.07107 22.8858 4.0702 20.6281 4.07263 18.3707C4.07263 18.3405 4.07627 18.3103 4.07991 18.2578C4.09759 18.2672 4.12567 18.2823 4.15895 18.3025C4.22231 18.3404 4.28249 18.3833 4.33887 18.431C4.49123 18.5568 5.25823 19.1044 5.54059 19.2968C5.88612 19.5295 6.24734 19.738 6.62167 19.9208C7.05327 20.1402 7.49371 20.3487 7.94351 20.5281C8.35951 20.693 8.78643 20.824 9.21439 20.9488C9.56082 21.0514 9.91228 21.1361 10.2674 21.2026C10.7208 21.2863 11.1784 21.3513 11.636 21.4069C11.9184 21.4418 12.2049 21.4475 12.4894 21.4615C12.74 21.4745 12.9906 21.4912 13.2408 21.4881C13.5372 21.4844 13.8346 21.473 14.13 21.4433C14.5267 21.4038 14.923 21.3534 15.3161 21.2873C15.64 21.2353 15.9624 21.1677 16.2791 21.084C16.6556 20.9852 17.0269 20.8661 17.3981 20.7491C18.1246 20.5126 18.8281 20.2106 19.5 19.8469C20.1575 19.5022 20.7839 19.101 21.372 18.6478C21.3969 18.6275 21.5519 18.4991 21.7719 18.34L21.8286 18.2994C21.8361 18.2949 21.8448 18.2923 21.8536 18.2921C21.8625 18.2918 21.8712 18.2938 21.8791 18.2978C21.887 18.3019 21.8937 18.3079 21.8985 18.3153C21.9034 18.3227 21.9064 18.3311 21.9071 18.34V18.3951C21.9053 20.6415 21.9041 22.8877 21.9034 25.1338Z" />
<path d="M9.28142 6.06901C9.28142 7.43002 9.28142 8.79121 9.28142 10.1526C9.28142 10.3039 9.28142 10.3049 9.12958 10.3049H5.04394C4.89834 10.3049 4.88794 10.2951 4.88794 10.1489C4.88794 8.78722 4.88794 7.42604 4.88794 6.06537C4.88794 5.92185 4.90354 5.90625 5.04394 5.90625H9.11658C9.27466 5.90677 9.28142 5.91405 9.28142 6.06901Z" />
<path d="M21.0833 6.06926V10.1414C21.0833 10.2974 21.0765 10.3015 20.9211 10.3015H16.8479C16.6919 10.3015 16.6919 10.3015 16.6919 10.1419V8.1061C16.6919 7.42352 16.6919 6.74093 16.6919 6.05834C16.6919 5.91326 16.7018 5.90234 16.8479 5.90234H20.9205C21.0698 5.90338 21.0833 5.91742 21.0833 6.06926Z" />
<path d="M15.1705 10.1708C15.1705 10.2623 15.1549 10.3044 15.0467 10.3044C13.6746 10.3009 12.302 10.3009 10.9288 10.3044H10.9075C10.8816 10.3037 10.8569 10.2933 10.8382 10.2753C10.8196 10.2573 10.8083 10.233 10.8066 10.2072C10.8066 10.1884 10.8066 10.1702 10.8066 10.152C10.8066 8.78722 10.8066 7.42257 10.8066 6.05809C10.8066 5.90625 10.8066 5.90625 10.9574 5.90625C12.3146 5.90625 13.6718 5.90625 15.029 5.90625C15.1388 5.90625 15.1731 5.93641 15.1726 6.04717C15.1684 7.41997 15.1677 8.7945 15.1705 10.1708Z" />
</svg>
