<svg width="24" height="26" viewBox="0 0 24 26" fill="#000" xmlns="http://www.w3.org/2000/svg">
<path d="M23.6963 16.8535C23.6822 16.502 23.6396 16.1515 23.6042 15.8016C23.5892 15.6555 23.5616 15.5114 23.5398 15.3663C23.5236 15.2655 23.5127 15.1635 23.4878 15.0647C23.4436 14.8801 23.4186 14.7798 23.3422 14.5078C23.2538 14.1958 23.2699 14.2296 23.2168 14.0466C23.1284 13.7434 23.0468 13.5188 22.9693 13.3071C22.8487 12.9775 22.7915 12.8111 22.6864 12.5895C22.5622 12.3259 22.4186 12.0695 22.2704 11.8173C22.1113 11.5443 21.9506 11.2698 21.7676 11.0124C21.5707 10.7314 21.3571 10.4624 21.128 10.2069C20.7616 9.79321 20.3616 9.41056 19.932 9.0629C19.6756 8.8601 19.412 8.66562 19.1447 8.47582C18.9367 8.32814 18.7256 8.18306 18.5046 8.0567C18.2545 7.91318 17.9934 7.78994 17.734 7.66358C17.513 7.55542 17.2904 7.44882 17.0637 7.35158C16.8635 7.26786 16.6576 7.19558 16.4511 7.12694C16.2327 7.05362 16.0117 6.98758 15.7907 6.91894C15.7002 6.89138 15.6077 6.87058 15.5162 6.84926C15.3082 6.80038 15.1038 6.74526 14.8948 6.70626C14.7346 6.6761 14.5708 6.66206 14.4086 6.64438C14.1163 6.61318 13.8241 6.56846 13.5313 6.55962C13.2386 6.55078 12.9359 6.57834 12.638 6.58666C12.2418 6.59552 11.848 6.65121 11.4649 6.75254C11.2277 6.81702 10.9854 6.8633 10.7488 6.92882C10.5122 6.99434 10.4462 6.97718 10.2943 6.77906C10.1889 6.63976 10.038 6.54172 9.86793 6.5019C9.68913 6.45847 9.50335 6.45193 9.32193 6.48266C9.12967 6.52079 8.94208 6.57955 8.76241 6.6579C8.57146 6.30509 8.41725 5.93359 8.30221 5.54926C8.56221 5.50922 8.80713 5.47906 9.04685 5.4333C9.26909 5.39661 9.48815 5.34271 9.70205 5.2721C9.95973 5.18177 10.2085 5.06775 10.4451 4.9315C10.7109 4.77073 10.9502 4.5697 11.1544 4.33558C11.3678 4.09527 11.5473 3.82688 11.6879 3.5379C11.7479 3.42302 11.8 3.30418 11.8439 3.18222C11.8932 3.0287 11.9335 2.87244 11.9646 2.71422C12.0062 2.50622 12.0421 2.30186 12.0686 2.09334C12.0863 1.94358 12.081 1.79174 12.0914 1.64042C12.1102 1.38042 12.1336 1.12042 12.1554 0.843784L12.0597 0.866664C11.8434 0.918664 11.6661 0.970664 11.4316 1.0393C11.1435 1.12458 10.9989 1.16722 10.8762 1.2083C10.6661 1.27219 10.46 1.34859 10.259 1.4371C9.95382 1.58091 9.66886 1.76412 9.41137 1.98206C9.08325 2.25974 8.79361 2.57694 8.59237 2.96226C8.48727 3.16417 8.39522 3.37259 8.31677 3.58626C8.24804 3.76205 8.20022 3.94531 8.17429 4.13226C8.14777 4.37406 8.16129 4.6195 8.15609 4.86338C8.15609 4.90758 8.15141 4.9523 8.14881 4.9965H8.12229C8.08225 4.80618 8.04117 4.61586 8.00321 4.4245C7.97981 4.30802 7.95953 4.1905 7.94185 4.07298C7.90909 3.85458 7.86021 3.63566 7.85189 3.4157C7.83109 2.90506 7.82745 2.39338 7.90805 1.88586C7.92573 1.77198 7.93977 1.65654 7.96785 1.54474C8.01049 1.37522 8.06041 1.20778 8.11293 1.04086C8.15765 0.897864 8.21693 0.759024 8.25853 0.615504C8.29285 0.502664 8.35889 0.392944 8.28505 0.265544C8.21849 0.148544 8.12905 0.0669038 7.97305 0.0793838C7.85917 0.0877038 7.71877 0.183384 7.68549 0.287384C7.64649 0.408024 7.60333 0.527624 7.56797 0.651384C7.49621 0.896824 7.42497 1.14226 7.35997 1.38874C7.33395 1.4973 7.31381 1.60718 7.29965 1.7179C7.26637 1.93942 7.21697 2.16146 7.20865 2.38454C7.19409 2.76882 7.20605 3.15466 7.20865 3.53946C7.20816 3.57422 7.21007 3.60897 7.21437 3.64346C7.24626 3.86984 7.27885 4.09517 7.31213 4.31946C7.31884 4.36292 7.32928 4.40572 7.34333 4.44738C7.3552 4.47655 7.36223 4.50747 7.36413 4.5389C7.36474 4.57226 7.35781 4.60532 7.34385 4.63562C7.2389 4.41787 7.11901 4.20764 6.98505 4.00642C6.83979 3.79675 6.68357 3.59488 6.51705 3.40166C6.31878 3.17458 6.0915 2.97457 5.84105 2.80678C5.71003 2.71117 5.57375 2.62298 5.43285 2.54262C5.20093 2.41418 4.96485 2.28782 4.70953 2.21294C4.59721 2.18018 4.37673 2.08814 4.09749 2.01638C3.63498 1.90065 3.15928 1.8461 2.68257 1.85414C2.31857 1.85414 2.04297 1.88586 1.49177 1.9493C1.08773 1.99558 0.751811 2.05018 0.646251 2.06734C0.521971 2.08814 0.416931 2.10686 0.337891 2.11934C0.389891 2.20826 0.431491 2.27534 0.469451 2.34762C0.594251 2.58058 0.722171 2.8125 0.840211 3.04858C0.972291 3.31378 1.08357 3.59042 1.22449 3.85094C1.34681 4.07929 1.48476 4.29891 1.63737 4.50822C1.78659 4.71752 1.95212 4.9147 2.13241 5.0979C2.31504 5.27771 2.51151 5.44288 2.72001 5.5919C2.92047 5.7337 3.13054 5.86141 3.34869 5.9741C3.53505 6.07116 3.72812 6.15474 3.92641 6.22422C4.08052 6.27519 4.23816 6.31482 4.39805 6.34278C4.50205 6.36306 4.73033 6.41194 4.98045 6.44002C5.55114 6.48703 6.12565 6.44865 6.68501 6.32614C6.85505 6.28818 7.01989 6.23514 7.02873 6.23202C7.05889 6.22214 7.18473 6.18002 7.34073 6.11242C7.4348 6.07548 7.52252 6.02407 7.60073 5.96006C7.64597 5.92574 7.66937 5.86334 7.71253 5.79938C7.73385 5.86438 7.74841 5.91534 7.76765 5.9637C7.84565 6.15506 7.92053 6.34694 8.00425 6.5357C8.06249 6.6683 8.13737 6.7957 8.19405 6.92726C8.20414 6.95014 8.20905 6.97496 8.20842 6.99995C8.20779 7.02494 8.20164 7.04949 8.19041 7.07182C8.03173 7.24233 7.90806 7.44232 7.82641 7.66046C7.73437 7.91682 7.73801 8.1581 7.85969 8.39106C7.89075 8.45691 7.90236 8.53026 7.89315 8.60249C7.88394 8.67471 7.85429 8.7428 7.80769 8.79874C7.61841 8.99946 7.44109 9.21474 7.26793 9.42794C6.98044 9.79148 6.72896 10.1821 6.51705 10.5943C6.36677 10.8793 6.24717 11.1803 6.12185 11.4783C6.03033 11.6931 5.94297 11.9109 5.86809 12.1319C5.80465 12.3197 5.75525 12.5121 5.71209 12.7039C5.65385 12.9473 5.59925 13.1927 5.55609 13.4397C5.51293 13.6867 5.48069 13.9306 5.45209 14.1771C5.42713 14.3913 5.40893 14.6071 5.39697 14.8224C5.36473 15.3944 5.40737 15.9617 5.44897 16.5296C5.44981 16.5399 5.4512 16.5501 5.45313 16.5603C5.49889 16.8452 5.54309 17.1323 5.59145 17.4157C5.62733 17.6237 5.66789 17.8291 5.70897 18.036C5.72459 18.1182 5.7449 18.1995 5.76981 18.2794C5.83377 18.4874 5.90085 18.6891 5.96897 18.893C6.02461 19.0615 6.07713 19.231 6.14369 19.3948C6.21961 19.5789 6.30593 19.7588 6.39381 19.9371C6.51237 20.1758 6.62469 20.4192 6.76041 20.648C6.92993 20.9319 7.11037 21.2096 7.30277 21.48C7.49517 21.7504 7.69069 21.9917 7.89661 22.2376C8.18233 22.5838 8.50064 22.9018 8.84717 23.1871C9.12693 23.4144 9.39993 23.6494 9.68541 23.8678C9.89341 24.0264 10.1139 24.1694 10.3333 24.3114C10.5231 24.4341 10.7171 24.549 10.9131 24.6619C11.0494 24.7399 11.1898 24.8127 11.3328 24.8792C11.546 24.9796 11.7623 25.0758 11.9797 25.1689C12.1762 25.2531 12.3728 25.3389 12.574 25.4096C12.7669 25.4777 12.9656 25.5282 13.1632 25.5838C13.4024 25.6519 13.6411 25.7253 13.8839 25.7804C14.0925 25.8288 14.3041 25.8635 14.5172 25.8844C14.9358 25.9229 15.2489 25.9447 15.5838 25.9525C15.8648 25.9637 16.1461 25.9597 16.4267 25.9405C16.6082 25.9297 16.789 25.9082 16.968 25.8761C17.124 25.8469 17.1417 25.8381 17.3752 25.7903C17.488 25.7669 17.6019 25.7481 17.7137 25.7211C17.7958 25.7019 17.8759 25.6743 17.956 25.6478C18.0772 25.6083 18.1968 25.5651 18.3174 25.5245C18.438 25.484 18.5774 25.4606 18.6866 25.3977C18.757 25.3621 18.8376 25.3521 18.9146 25.3695C18.9915 25.3868 19.06 25.4304 19.1083 25.4928C19.14 25.5391 19.1747 25.5833 19.2123 25.6249C19.35 25.7449 19.5168 25.8265 19.6959 25.8615C19.9594 25.9314 20.2399 25.894 20.4759 25.7575C20.668 25.6442 20.8149 25.468 20.8919 25.2588C21.0089 24.9655 21.0479 24.6868 20.8919 24.3904C20.8685 24.3511 20.8536 24.3074 20.848 24.262C20.8425 24.2166 20.8465 24.1706 20.8597 24.1268C20.9054 23.9822 21.0198 23.9063 21.114 23.8189C21.5558 23.411 21.9416 22.9462 22.2611 22.4368C22.4223 22.1804 22.5601 21.909 22.7026 21.6412C22.7785 21.4987 22.8476 21.3515 22.9106 21.2033C22.9693 21.0687 23.0187 20.9288 23.0718 20.792C23.1248 20.6553 23.181 20.532 23.222 20.3999C23.2688 20.2486 23.298 20.0926 23.3396 19.9403C23.3874 19.7609 23.4482 19.5856 23.4883 19.4052C23.5336 19.2061 23.5683 19.0047 23.5923 18.802C23.624 18.5233 23.6401 18.243 23.6625 17.9637C23.6666 17.9086 23.6692 17.8535 23.6708 17.7984C23.6854 17.4838 23.7082 17.1681 23.6963 16.8535ZM9.54397 21.3401C9.47767 21.381 9.39861 21.3961 9.32189 21.3825C9.24516 21.3689 9.17614 21.3275 9.12797 21.2663C8.92881 21.0395 8.72185 20.818 8.54245 20.5757C8.31521 20.2684 8.10149 19.9517 7.90337 19.6225C7.7445 19.3604 7.60344 19.0878 7.48113 18.8067C7.35113 18.5092 7.24349 18.2014 7.14209 17.8925C7.05889 17.6408 6.99285 17.3829 6.93097 17.1245C6.86909 16.866 6.81969 16.6086 6.76509 16.3502C6.70737 16.073 6.69021 15.7901 6.65329 15.5109C6.57269 14.8973 6.61221 14.2842 6.61325 13.6706C6.61311 13.6271 6.62163 13.5839 6.63831 13.5437C6.65499 13.5035 6.6795 13.4669 6.71042 13.4363C6.74134 13.4056 6.77804 13.3814 6.81841 13.365C6.85877 13.3486 6.90198 13.3405 6.94553 13.3409C7.02664 13.3436 7.10377 13.3767 7.16159 13.4336C7.2194 13.4906 7.25365 13.5672 7.25753 13.6483C7.25753 13.9228 7.25753 14.1979 7.25753 14.4725H7.26377C7.26377 14.7267 7.24921 14.9821 7.26689 15.2353C7.28873 15.552 7.32721 15.8681 7.37505 16.1812C7.41457 16.4386 7.47125 16.6944 7.53417 16.9477C7.58929 17.1692 7.66105 17.3871 7.72969 17.6044C7.79833 17.8218 7.87113 18.0516 7.95329 18.2705C8.01801 18.4423 8.09249 18.6102 8.17637 18.7734C8.28921 18.9933 8.40413 19.2138 8.53621 19.4229C8.78217 19.8113 8.89605 20.0115 9.09209 20.233C9.30373 20.4712 9.39005 20.5845 9.56321 20.8118C9.65681 20.935 9.74885 21.0603 9.70985 21.1815C9.69473 21.218 9.67218 21.251 9.64362 21.2783C9.61506 21.3056 9.58112 21.3266 9.54397 21.3401ZM11.1861 22.6219C11.1333 22.6558 11.0717 22.6734 11.009 22.6727C10.9462 22.6719 10.8851 22.6528 10.833 22.6177C10.6464 22.4981 10.4592 22.3796 10.2772 22.2537C10.1862 22.1908 10.1654 22.0801 10.1732 21.9823C10.1759 21.9274 10.1934 21.8742 10.2239 21.8284C10.2544 21.7826 10.2967 21.746 10.3463 21.7223C10.4862 21.6485 10.5913 21.6958 10.7046 21.7769C10.8606 21.8877 11.0249 21.988 11.1867 22.0889C11.2319 22.1189 11.2695 22.1592 11.2964 22.2064C11.3141 22.2376 11.3271 22.2712 11.3349 22.3063C11.3397 22.3531 11.3346 22.4004 11.3198 22.4451C11.2984 22.5184 11.2508 22.5813 11.1861 22.6219Z" />
</svg>
