<svg width="26" height="26" viewBox="0 0 26 26" fill="#000" xmlns="http://www.w3.org/2000/svg">
<path d="M14.5599 12.2266V25.9546H3.82812C3.82812 25.9072 3.83436 25.8604 3.83436 25.8131V16.8769C3.83436 16.7126 3.83436 16.7173 3.99504 16.7053C4.24257 16.6871 4.48904 16.6533 4.73708 16.6372C4.73708 16.6372 4.9482 16.6226 5.13125 16.6008C5.52228 16.554 5.81037 16.4573 6.15721 16.3408C6.5384 16.2101 6.90976 16.0523 7.26845 15.8686C7.57265 15.7126 7.8706 15.5343 8.0864 15.4058C8.23148 15.3195 8.36929 15.2327 8.36929 15.2327C8.43584 15.1904 8.51055 15.1424 8.59341 15.0886C8.64801 15.0528 8.70261 15.0158 8.7624 14.9753C8.97976 14.8266 9.18881 14.6633 9.40097 14.5073C9.59284 14.3653 9.78265 14.2192 9.97609 14.0793C10.2075 13.9114 10.4363 13.7392 10.676 13.5838C10.9558 13.4028 11.2412 13.2312 11.5324 13.069C11.7368 12.9581 11.947 12.8583 12.1622 12.77C12.6788 12.5574 13.2181 12.4047 13.7695 12.315C14.0312 12.2716 14.295 12.2421 14.5599 12.2266Z" />
<path d="M22.152 25.9532H16.0774C16.0774 25.9127 16.0774 25.8721 16.0774 25.8315V7.65234H22.1453V25.8003C22.1453 25.8523 22.152 25.9028 22.152 25.9532Z" />
<path d="M14.5601 7.65625V10.5537C14.5601 10.7217 14.5601 10.7165 14.3968 10.7284C14.1524 10.7456 13.9069 10.7607 13.6646 10.795C13.4046 10.8319 13.1446 10.8818 12.8903 10.9416C12.7759 10.9681 12.5664 11.0248 12.2637 11.1272C11.6118 11.3388 10.9855 11.6224 10.3964 11.9728C10.1884 12.097 10.0194 12.2088 9.68559 12.4408C9.32627 12.6914 8.97267 12.9504 8.61595 13.2041C8.34659 13.3955 8.07879 13.5884 7.80527 13.7761C7.46779 14.0044 7.29827 14.1173 7.06791 14.2493C6.72107 14.4483 6.35844 14.6184 5.98371 14.7579C5.50018 14.9216 5.00422 15.0459 4.50067 15.1297C4.31889 15.1575 4.13577 15.1757 3.95207 15.1843C3.91931 15.1874 3.88551 15.1843 3.84131 15.1843V7.65625H14.5601Z" />
<path d="M18.3441 0.0664062H7.6394V1.57285H18.3441V0.0664062Z" />
<path d="M7.23578 3.09766H17.4834L14.9588 6.13394H4.69922L7.23578 3.09766Z" />
<path d="M19.1065 3.51172L16.9485 6.12004H21.264L19.1065 3.51172Z" />
</svg>
