<svg width="26" height="26" viewBox="0 0 26 26" fill="#000" xmlns="http://www.w3.org/2000/svg">
<path d="M22.7177 11.465C22.7061 11.7757 22.601 12.0757 22.4161 12.3256C22.2631 12.5438 22.0569 12.7194 21.8171 12.8357C21.6286 12.9347 21.4208 12.9915 21.2081 13.0021C21.1312 13.0047 21.0521 13.0021 20.9757 13.0021C15.6561 13.0021 10.3365 13.0033 5.0169 13.0058C4.64666 13.0058 4.30346 12.9376 3.99302 12.7411C3.76903 12.5983 3.58521 12.4007 3.45898 12.167C3.30991 11.8852 3.23814 11.5688 3.25098 11.2502C3.25878 10.7703 3.24682 10.2908 3.25566 9.81089C3.25769 9.56456 3.27855 9.31876 3.31806 9.07561C3.37499 8.76599 3.46837 8.4642 3.59626 8.17653C3.76905 7.78062 3.98754 7.40628 4.2473 7.06113C4.59906 6.59285 5.0086 6.17091 5.46618 5.80533C5.61197 5.6802 5.76401 5.56253 5.9217 5.45277C6.29402 5.21149 6.66842 4.97229 7.05374 4.75285C7.35439 4.58402 7.66389 4.43144 7.9809 4.29577C8.25806 4.17513 8.54822 4.08257 8.83266 3.98013C9.01518 3.91461 9.19666 3.84961 9.38282 3.79345C9.53882 3.74717 9.69846 3.71233 9.85706 3.67333C10.0385 3.62809 10.2211 3.58389 10.4041 3.54073C10.4883 3.52045 10.5736 3.50069 10.6594 3.48873C10.8118 3.46377 10.9641 3.44505 11.116 3.42113C11.195 3.40865 11.272 3.39097 11.3552 3.37537C11.3591 3.35057 11.3617 3.32557 11.363 3.30049C11.363 2.23137 11.363 1.16242 11.363 0.09365C11.363 0.07285 11.3593 0.05205 11.3573 0.03125H14.6177C14.6177 0.05569 14.6119 0.07961 14.6114 0.10405V3.38005C14.7154 3.39617 14.8194 3.40917 14.9234 3.42841C15.1631 3.47261 15.4029 3.52045 15.6421 3.56673C15.7585 3.58909 15.8761 3.60729 15.991 3.63537C16.1418 3.67281 16.2921 3.71649 16.4418 3.75965C16.5781 3.79917 16.7143 3.83973 16.849 3.88445C17.0778 3.96089 17.3066 4.03733 17.5328 4.12053C17.7101 4.18553 17.8864 4.25521 18.058 4.33373C18.3596 4.47205 18.6622 4.60933 18.9545 4.76481C19.4111 5.01009 19.8477 5.29107 20.2602 5.60513C20.7913 6.00279 21.2697 6.46636 21.6839 6.98469C21.9545 7.32734 22.1815 7.70217 22.3599 8.10061C22.4687 8.33604 22.5534 8.58187 22.6127 8.83433C22.6759 9.11096 22.7121 9.39309 22.7208 9.67673C22.7323 10.2726 22.7291 10.867 22.7177 11.465Z" />
<path d="M21.0553 14.716C21.0324 15.1133 21.0152 15.5111 20.9835 15.9084C20.9627 16.1731 20.9258 16.4367 20.8868 16.6998C20.8405 17.0181 20.7948 17.3373 20.7308 17.6525C20.6648 17.979 20.5795 18.3014 20.4963 18.6249C20.4308 18.8786 20.3626 19.1324 20.2836 19.3825C20.2212 19.5812 20.1489 19.7766 20.0668 19.968C19.9425 20.2608 19.8203 20.5561 19.6726 20.8375C19.5119 21.1427 19.3294 21.4375 19.1448 21.7293C18.8643 22.1646 18.5358 22.5672 18.1656 22.9294C17.8912 23.2132 17.5927 23.4726 17.2733 23.7047C16.9915 23.9003 16.719 24.1103 16.4288 24.2923C16.1272 24.4806 15.8116 24.6454 15.5001 24.816C15.1663 24.999 14.8283 25.1732 14.496 25.3578C14.236 25.5024 13.9843 25.6605 13.7248 25.805C13.6348 25.8561 13.5385 25.8953 13.4383 25.9215C13.1201 26.0127 12.7814 26.0029 12.469 25.8934C12.2267 25.8055 12.0234 25.6568 11.8045 25.532C11.5856 25.4072 11.3791 25.2939 11.1654 25.1795C10.8992 25.0365 10.6303 24.8997 10.3656 24.7557C10.101 24.6116 9.82276 24.4572 9.556 24.3007C9.40364 24.2107 9.257 24.1098 9.114 24.0053C8.83892 23.8041 8.55968 23.6049 8.29656 23.3886C8.10357 23.2284 7.92232 23.0547 7.7542 22.8686C7.49351 22.5915 7.24839 22.3002 7.01996 21.996C6.7896 21.6778 6.59512 21.3335 6.39596 20.994C6.27206 20.7814 6.16042 20.562 6.0616 20.3367C5.9576 20.1011 5.87388 19.8557 5.78548 19.6134C5.70176 19.3825 5.61804 19.1521 5.54472 18.9181C5.49688 18.7663 5.46828 18.6061 5.4298 18.4533C5.38508 18.2749 5.33672 18.0981 5.29304 17.9192C5.27224 17.8315 5.2549 17.7429 5.24104 17.6535C5.20152 17.3971 5.16252 17.1413 5.12768 16.8844C5.0892 16.6 5.0476 16.3161 5.02368 16.0295C4.98312 15.5818 4.954 15.1331 4.91968 14.6848C4.92044 14.6673 4.92252 14.65 4.92592 14.6328H21.0459C21.0509 14.6603 21.054 14.6881 21.0553 14.716Z" />
</svg>
