<svg width="26" height="24" viewBox="0 0 26 24" fill="#000" xmlns="http://www.w3.org/2000/svg">
<path d="M25.8389 10.7239L25.8358 10.7275C25.7882 10.786 25.7277 10.8327 25.659 10.8637C25.5352 10.9235 25.4135 10.9313 25.2357 10.922C25.0672 10.911 24.8996 10.8895 24.7339 10.8575C24.5041 10.818 24.2758 10.767 24.0459 10.7249C23.9144 10.701 23.7807 10.6864 23.6492 10.6641C23.475 10.6349 23.3013 10.6022 23.1292 10.571C23.1203 10.571 23.1115 10.5668 23.1027 10.5658C22.9529 10.545 22.8021 10.5263 22.6523 10.5039C22.4376 10.4711 22.2233 10.4363 22.0091 10.3999C21.916 10.3848 21.8224 10.3703 21.7299 10.3536C21.4849 10.3094 21.2873 10.2059 21.1792 9.96153C21.1017 9.78681 21.0029 9.62197 20.9036 9.43425C20.8713 9.54969 20.7528 9.92045 20.4501 10.0281C20.3458 10.0633 20.2351 10.0754 20.1257 10.0635C19.9472 10.0543 19.7697 10.0314 19.5947 9.99481C19.2952 9.91993 18.9853 9.90017 18.6811 9.84765C17.5371 9.65005 17.5891 9.65733 17.5267 9.64797C17.0192 9.57205 16.8746 9.57049 16.3588 9.48157C16.1575 9.44673 16.0073 9.42073 15.7987 9.37757C15.1893 9.24601 14.5643 9.19245 13.9579 9.04581C13.9327 9.03825 13.9057 9.03972 13.8815 9.04997C13.8632 9.06211 13.8477 9.07797 13.8359 9.09652C13.8242 9.11507 13.8165 9.13589 13.8134 9.15761C13.3417 11.1856 13.2991 12.4019 13.2991 12.4019C13.2934 12.5605 13.2991 13.2422 13.3121 13.8106C13.3163 14.0009 13.3438 14.1912 13.3641 14.3826C13.3792 14.5386 13.3927 14.6909 13.4161 14.8438C13.4395 14.9967 13.4707 15.1407 13.4983 15.2895C13.5165 15.3888 13.5362 15.4881 13.5503 15.5879C13.5721 15.732 13.5861 15.8771 13.6121 16.0206C13.635 16.1443 13.6709 16.266 13.7 16.3887C13.7177 16.4636 13.735 16.5385 13.752 16.6134C13.7739 16.7174 13.791 16.8214 13.816 16.9254C13.8409 17.0294 13.8779 17.1427 13.908 17.2519C13.9273 17.3221 13.9434 17.3934 13.96 17.4641C13.9959 17.6097 14.0287 17.7569 14.0697 17.9014C14.1108 18.046 14.1639 18.2009 14.2096 18.3507C14.2471 18.4713 14.2793 18.5935 14.3183 18.7147C14.3453 18.7969 14.3807 18.8759 14.4098 18.9575C14.4317 19.0199 14.4462 19.0849 14.4686 19.1473C14.5325 19.3252 14.6001 19.502 14.6631 19.6798C14.7182 19.8358 14.7671 19.9949 14.8237 20.1478C14.8648 20.2591 14.9189 20.3652 14.9641 20.4749C15.0026 20.5701 15.0343 20.6678 15.0739 20.763C15.1331 20.906 15.1971 21.0474 15.2585 21.1899C15.2995 21.2861 15.337 21.3849 15.3801 21.4806C15.4529 21.6407 15.5289 21.7999 15.6043 21.959C15.6646 22.0853 15.7249 22.2112 15.7878 22.336C15.8507 22.4608 15.9157 22.5757 15.9755 22.6974C16.0504 22.8508 16.1253 23.0047 16.1913 23.1617C16.2425 23.2737 16.2495 23.4009 16.2109 23.5179C16.1724 23.6348 16.0911 23.7329 15.9833 23.7925C15.8707 23.8585 15.742 23.892 15.6115 23.8892C13.8758 23.8892 12.14 23.8892 10.4037 23.8866C10.1812 23.8866 9.97421 23.8206 9.85201 23.6084C9.81846 23.5543 9.79388 23.4951 9.77921 23.4332C9.75373 23.2928 9.74177 23.1498 9.72097 23.0083C9.69445 22.8289 9.66429 22.6501 9.63569 22.4712C9.63569 22.4649 9.63569 22.4592 9.63309 22.453C9.61229 22.258 9.59409 22.0625 9.57017 21.868C9.54313 21.6439 9.51089 21.4203 9.48125 21.1961C9.48125 21.1811 9.47605 21.1665 9.47449 21.1514C9.45508 20.9087 9.43566 20.6675 9.41625 20.4276C9.39892 20.204 9.38158 19.9805 9.36425 19.7573C9.34657 19.5098 9.32993 19.2628 9.31225 19.0153C9.29457 18.7584 9.27429 18.502 9.26025 18.2457C9.24153 17.9139 9.22229 17.5821 9.21241 17.2504C9.19785 16.7522 9.18277 16.2546 9.18381 15.7569C9.18381 15.2921 9.20305 14.8272 9.22073 14.3628C9.23165 14.0758 9.25245 13.7908 9.27273 13.5027C9.28625 13.3155 9.30653 13.1289 9.32473 12.9417C9.34033 12.7909 9.35593 12.6401 9.37673 12.4893C9.40377 12.2813 9.42873 12.0561 9.47345 11.8003C9.52545 11.4909 9.58265 11.2485 9.61021 11.1347C9.78649 10.4098 9.94093 10.1758 10.0158 9.54501C10.0231 9.48521 10.0278 9.43633 10.0304 9.40513C10.0058 9.40093 9.98089 9.39936 9.95601 9.40045C9.80001 9.42645 9.64401 9.45245 9.49113 9.48209C9.47085 9.48573 9.45005 9.48989 9.42925 9.49249C9.27325 9.51277 9.11725 9.52941 8.96125 9.55333C8.75325 9.58505 8.54837 9.62353 8.34193 9.65733C8.14849 9.68992 7.95505 9.72233 7.76161 9.75457C7.65345 9.77225 7.54477 9.78681 7.43661 9.80657C7.23641 9.84037 7.03621 9.87625 6.83549 9.91057C6.63477 9.94489 6.42313 9.96985 6.22085 10.0146C6.03585 10.0618 5.84399 10.076 5.65405 10.0567C5.50273 10.0395 5.41381 9.93501 5.33425 9.82841C5.26717 9.73845 5.23025 9.62769 5.17305 9.52837C5.15047 9.49779 5.12467 9.46972 5.09609 9.44465C4.98273 9.65889 4.88081 9.86845 4.76277 10.0687C4.72917 10.1319 4.68151 10.1866 4.62345 10.2285C4.56539 10.2704 4.49849 10.2985 4.42789 10.3105C4.21469 10.3443 4.00253 10.3812 3.78985 10.4171C3.59641 10.4493 3.40297 10.4826 3.20953 10.5143C3.00153 10.5491 2.78885 10.5819 2.57877 10.6183C2.28341 10.6672 1.98857 10.7187 1.69477 10.7681C1.48677 10.8034 1.27409 10.8336 1.06557 10.8757C0.744212 10.9407 0.582492 10.9896 0.399972 10.9059C0.308474 10.8631 0.229637 10.7974 0.171172 10.715C0.041692 10.5299 0.067172 10.3157 0.104092 9.96881C0.117612 9.84557 0.134772 9.75405 0.149332 9.67917C0.189728 9.47786 0.244114 9.2796 0.312092 9.08585C0.419736 8.77112 0.566484 8.47116 0.748892 8.19301C0.869185 8.0102 1.00266 7.8364 1.14825 7.67301C1.30985 7.49911 1.48102 7.33436 1.66097 7.17953C1.79952 7.0576 1.94577 6.9447 2.09881 6.84153C2.24753 6.74065 2.40717 6.65485 2.56421 6.56645C2.70097 6.48897 2.83981 6.41409 2.98021 6.34441C3.08421 6.29241 3.18821 6.25497 3.29221 6.21181C3.39621 6.16865 3.49137 6.12965 3.59225 6.09221C3.67129 6.06309 3.75189 6.04021 3.83197 6.01317C3.88865 5.99445 3.94533 5.97573 4.00253 5.95857C4.15489 5.91385 4.30673 5.86653 4.46065 5.82649C4.56465 5.79893 4.67385 5.78125 4.78045 5.76045C4.92449 5.73185 5.06853 5.70481 5.21309 5.67673C5.22765 5.67673 5.24169 5.66789 5.25625 5.66633C5.42889 5.64709 5.60101 5.62993 5.77313 5.60965C6.30197 5.54621 6.83237 5.55765 7.36329 5.56701C7.39102 5.56425 7.41828 5.55796 7.44441 5.54829C7.44441 5.54101 7.44441 5.53373 7.44441 5.52593C7.29985 5.45157 7.15373 5.37825 7.01021 5.30129C6.85614 5.22495 6.70618 5.14059 6.56093 5.04857C6.42157 4.95445 6.28481 4.84889 6.27649 4.65233C6.27077 4.51973 6.25205 4.38713 6.23957 4.25453C6.23645 4.22021 6.23437 4.18589 6.23125 4.14637C6.02897 4.21345 5.84177 4.28833 5.64781 4.33617C5.47924 4.38037 5.3001 4.35744 5.14809 4.27221C4.97493 4.17497 4.79605 4.08813 4.62185 3.99453C4.48249 3.91861 4.34781 3.83385 4.20585 3.75897C4.03373 3.66641 3.85693 3.58321 3.68585 3.49013C3.51477 3.39705 3.34993 3.29669 3.18041 3.20309C3.04469 3.12821 2.90481 3.06113 2.76857 2.98781C2.62453 2.90773 2.48257 2.82401 2.34009 2.74653C2.20541 2.67373 2.06709 2.60769 1.93397 2.53281C1.72597 2.41581 1.51797 2.29881 1.31309 2.16881C1.25382 2.13032 1.21185 2.07027 1.19609 2.00137C1.18257 1.90933 1.14149 1.82561 1.15969 1.71849C1.17789 1.61137 1.23249 1.39765 1.54969 1.12049C1.74001 0.954093 1.95373 0.822533 2.32969 0.662893C2.65133 0.520798 2.9856 0.409202 3.32809 0.329573C4.0112 0.17192 4.71395 0.116716 5.41329 0.165773C6.00245 0.206071 6.58448 0.318181 7.14645 0.499613C7.56886 0.639596 7.97926 0.813496 8.37365 1.01961C8.60921 1.14025 8.81253 1.25881 8.84841 1.27961C9.03093 1.38829 9.21241 1.49957 9.38661 1.62073C9.63881 1.79597 9.88633 1.97797 10.1318 2.16205C10.3611 2.33417 10.5904 2.50629 10.8104 2.68985C10.9882 2.83671 11.1582 2.99293 11.3195 3.15785C11.5821 3.42877 11.8395 3.70645 12.0901 3.98985C12.2596 4.17809 12.4234 4.37205 12.5773 4.57329C12.7125 4.74957 12.8301 4.93989 12.9595 5.12137C12.9717 5.12788 12.9853 5.13129 12.9991 5.13129C13.0128 5.13129 13.0264 5.12788 13.0386 5.12137C13.2242 4.87593 13.4026 4.62581 13.5893 4.37985C13.6615 4.28417 13.8087 4.09281 14.128 3.72673C15.4082 2.26085 17.3073 1.18861 17.3073 1.18861C18.0165 0.788213 18.4747 0.619213 18.6047 0.572413C19.0944 0.394867 19.6022 0.271583 20.1189 0.204773C21.1553 0.0763329 22.0564 0.234413 22.4688 0.311373C22.4688 0.311373 23.5202 0.507933 24.3787 1.05913C24.5689 1.18213 24.7173 1.36003 24.8041 1.56925C24.8935 1.78453 24.8561 2.06637 24.6226 2.22133C24.5015 2.30141 24.3673 2.36173 24.2409 2.43401C24.1146 2.50629 23.9809 2.59001 23.8478 2.66541C23.7147 2.74081 23.566 2.80841 23.4266 2.88277C23.2873 2.95713 23.1432 3.03877 23.0007 3.11677C22.8692 3.18801 22.7371 3.25769 22.605 3.32841L22.0918 3.60245C21.9129 3.69865 21.7345 3.79433 21.5567 3.89209C21.3789 3.98985 21.2073 4.09541 21.0268 4.18589C20.8464 4.27637 20.6529 4.39857 20.4247 4.34865C20.3415 4.33045 20.2593 4.30861 20.1771 4.28521C20.0787 4.25679 19.9811 4.22628 19.8844 4.19369C19.8473 4.17858 19.8112 4.16121 19.7762 4.14169C19.7705 4.18173 19.7648 4.21709 19.7611 4.25297C19.7455 4.41209 19.7419 4.57433 19.7091 4.73085C19.6957 4.78825 19.6702 4.84214 19.6343 4.88893C19.5985 4.93573 19.5531 4.97437 19.5011 5.00229C19.3451 5.09225 19.1891 5.17181 19.0331 5.25917C18.8995 5.33561 18.769 5.41517 18.6359 5.49473C18.6103 5.5069 18.5837 5.51665 18.5563 5.52385C18.5563 5.53321 18.5563 5.54257 18.5537 5.55193C18.586 5.55932 18.6189 5.56419 18.652 5.56649C19.0394 5.56649 19.4268 5.55869 19.8137 5.57065C20.0336 5.57793 20.252 5.62265 20.4709 5.64605L20.5229 5.65073C20.6945 5.67153 20.8677 5.68297 21.0367 5.71521C21.2234 5.75109 21.4059 5.80725 21.5905 5.85301C21.668 5.87225 21.7465 5.88473 21.824 5.90761C21.9202 5.93569 22.0143 5.97209 22.1095 6.00381C22.1677 6.02305 22.2275 6.03709 22.2857 6.05581C22.4417 6.10781 22.5977 6.15461 22.7459 6.21805C22.9066 6.28669 23.0605 6.37041 23.2139 6.45049C23.3481 6.51965 23.4828 6.58829 23.6133 6.66369C24.0424 6.91747 24.4347 7.22891 24.7791 7.58929C24.9008 7.71556 25.0126 7.85098 25.1135 7.99437C25.2362 8.16631 25.35 8.34438 25.4546 8.52789C25.5206 8.65123 25.5773 8.77934 25.6241 8.91113C25.6694 9.02813 25.7448 9.21169 25.8098 9.43425C26.0672 10.2995 25.8753 10.675 25.8389 10.7239Z" />
</svg>
