<svg width="26" height="26" viewBox="0 0 26 26" fill="#000" xmlns="http://www.w3.org/2000/svg">
<path d="M21.3799 12.4568C21.3399 12.6222 21.2795 12.7168 21.1542 12.9347C21.0351 13.1427 21.0934 13.0527 20.9051 13.3845C20.8641 13.4568 20.8058 13.5602 20.6925 13.7542C20.5651 13.9726 20.4392 14.192 20.3077 14.4089C20.2037 14.5836 20.0882 14.7547 19.978 14.9289C19.8516 15.127 19.7294 15.3277 19.5979 15.5217C19.4876 15.6839 19.3659 15.8389 19.25 15.997C19.1174 16.1774 18.99 16.3636 18.8511 16.5383C18.5345 16.9324 18.2225 17.3308 17.8871 17.7083C17.5517 18.0858 17.2033 18.4389 16.8471 18.7925C16.4909 19.1461 16.1393 19.4893 15.7712 19.8221C15.5112 20.0597 15.2273 20.276 14.9485 20.495C14.6568 20.7243 14.3625 20.9494 14.0645 21.1673C13.8311 21.3374 13.5877 21.4939 13.348 21.6551C13.1317 21.7996 12.9164 21.9452 12.6969 22.0846C12.5279 22.1917 12.3548 22.2926 12.1816 22.3919C12.0085 22.4912 11.8467 22.5848 11.6772 22.6779C11.5077 22.771 11.3241 22.8662 11.1473 22.9592C10.9705 23.0523 10.7875 23.1506 10.605 23.2406C10.4121 23.3352 10.2155 23.4215 10.021 23.5125C9.85826 23.589 9.6981 23.6685 9.53378 23.7429C9.39442 23.8042 9.2509 23.8562 9.10998 23.9134C8.93734 23.9836 8.76522 24.0559 8.59258 24.1256C8.47766 24.1719 8.36222 24.2161 8.24678 24.2608C8.13134 24.3055 8.00966 24.3539 7.89006 24.397C7.77046 24.4402 7.66542 24.4735 7.55258 24.5109C7.41114 24.5582 7.2697 24.6066 7.12722 24.6524C7.00502 24.6908 6.88126 24.7246 6.75906 24.7631C6.62542 24.8052 6.49334 24.852 6.3597 24.8931C6.26714 24.9217 6.17198 24.9451 6.07838 24.969L5.89638 25.0179C5.73362 25.0632 5.57138 25.1105 5.40758 25.1536C5.31034 25.1796 5.21102 25.1978 5.11326 25.2212C5.04306 25.2379 4.97442 25.2587 4.90526 25.2732C4.71546 25.3174 4.52566 25.3632 4.33326 25.4043C4.21574 25.4298 4.09666 25.4469 3.97862 25.4693C3.88554 25.4864 3.79246 25.5083 3.69886 25.5239C3.4867 25.5585 3.27436 25.5924 3.06186 25.6253C2.66354 25.6856 2.46438 25.7126 2.4051 25.7215C2.05826 25.7735 1.3001 25.903 0.897097 25.8744C0.81674 25.869 0.737487 25.8528 0.661537 25.826C0.553047 25.791 0.454224 25.7312 0.372937 25.6513C0.287286 25.5644 0.225342 25.4569 0.193017 25.3393C0.1402 25.1686 0.1481 24.9848 0.215377 24.8193C0.255417 24.7293 0.319377 24.6674 0.492017 24.5073C0.704679 24.3171 0.935645 24.1485 1.18154 24.0039C1.36718 23.8895 1.5393 23.7528 1.71922 23.6285C1.89914 23.5042 2.0697 23.3919 2.24286 23.2712C2.41602 23.1506 2.59178 23.031 2.75974 22.9031C3.10658 22.6384 3.4529 22.3722 3.79298 22.0986C3.99318 21.9374 4.18662 21.7664 4.37382 21.5901C4.75654 21.2292 5.14186 20.8704 5.5095 20.4944C5.79602 20.2012 6.06122 19.8866 6.32902 19.5751C6.50894 19.3671 6.68054 19.1492 6.84902 18.9298C7.02842 18.6958 7.20782 18.4618 7.37214 18.2163C7.58014 17.9043 7.77982 17.5883 7.97118 17.2684C8.12198 17.0151 8.25614 16.752 8.39446 16.4915C8.5255 16.2455 8.65914 16.0006 8.77822 15.7484C8.87806 15.5404 8.95554 15.3178 9.04706 15.1036C9.13858 14.8894 9.24414 14.6647 9.33618 14.4422C9.41158 14.2596 9.47294 14.0714 9.54418 13.8873C9.60346 13.7376 9.67262 13.592 9.73346 13.4422C9.7943 13.2924 9.84318 13.151 9.9009 13.0059C9.95862 12.8608 10.0158 12.7314 10.0709 12.593C10.1318 12.4402 10.1885 12.2857 10.2488 12.1323C10.2873 12.034 10.3294 11.9373 10.3699 11.8396C10.4105 11.7418 10.4552 11.6399 10.4958 11.539C10.5363 11.4381 10.5764 11.3242 10.619 11.2171C10.6617 11.11 10.7048 11.0122 10.7469 10.9098C10.7891 10.8074 10.8343 10.6971 10.8764 10.59C10.9362 10.4397 10.9945 10.2894 11.0543 10.1392C11.1141 9.98888 11.1707 9.8516 11.229 9.70704C11.2872 9.56248 11.3439 9.41376 11.4037 9.26816C11.4635 9.12256 11.5321 8.97228 11.593 8.82304C11.6502 8.68524 11.7017 8.54484 11.7578 8.40704C11.8181 8.25676 11.8837 8.10908 11.9429 7.9588C12.0111 7.78616 11.9887 7.83348 12.1109 7.5142C12.1629 7.37588 12.2622 7.07064 12.3345 6.95624C12.3444 6.94116 12.3621 6.91568 12.3865 6.91412C12.4109 6.91256 12.4385 6.94116 12.4494 6.95312C12.5248 7.04828 12.5971 7.19336 12.6668 7.29216C12.6865 7.31972 12.7651 7.40916 12.9216 7.58856C13.0188 7.69256 13.1213 7.79656 13.2299 7.89172C13.4491 8.07941 13.6813 8.25144 13.9247 8.40652C14.0638 8.49312 14.2101 8.56758 14.362 8.62908C14.5313 8.70615 14.7049 8.77334 14.882 8.83032C15.0424 8.87624 15.2055 8.91253 15.3703 8.939C15.5489 8.97918 15.7301 9.00664 15.9126 9.02116C16.1633 9.03104 16.4155 9.01752 16.6666 9.00244C16.8226 8.99308 16.9739 8.96032 17.1279 8.93952C17.1944 8.93068 17.2152 8.96448 17.2371 9.0274C17.3052 9.22708 17.3821 9.42468 17.4659 9.61812C17.5271 9.75733 17.5965 9.89277 17.6739 10.0237C17.8385 10.3013 18.0319 10.5606 18.2511 10.7975C18.4921 11.0588 18.7638 11.2901 19.0602 11.4865C19.2561 11.6067 19.4607 11.7122 19.6722 11.8021C19.8588 11.8922 20.0511 11.9698 20.2479 12.0346C20.4258 12.0878 20.6077 12.1267 20.7918 12.151C21.1334 12.203 21.3175 12.1022 21.3887 12.2067C21.4267 12.2618 21.4106 12.3304 21.3799 12.4568Z" />
<path d="M22.4562 9.8369C22.3953 10.0641 22.3719 10.1307 22.3204 10.2966C22.2882 10.4006 22.2528 10.5046 22.2164 10.6086C22.2118 10.6216 22.2029 10.6408 22.1925 10.6429C22.1112 10.669 22.0274 10.6865 21.9424 10.6949C21.881 10.6996 21.9096 10.7001 21.8207 10.7079C21.7547 10.7136 21.6403 10.723 21.5087 10.7225C21.3806 10.7197 21.2527 10.7088 21.126 10.6897C20.7265 10.6207 20.3423 10.482 19.9908 10.2799C19.7073 10.105 19.4537 9.88553 19.24 9.62994C19.0599 9.42977 18.9139 9.2014 18.8079 8.95394C18.6774 8.64814 18.5922 8.32494 18.5551 7.99454C18.5557 7.84885 18.5184 7.70551 18.447 7.57854C18.3967 7.4901 18.3295 7.41243 18.2492 7.34998C18.1689 7.28752 18.0771 7.2415 17.979 7.21454C17.8317 7.17791 17.677 7.18368 17.5328 7.23118C17.4288 7.25874 17.3295 7.30814 17.2271 7.34402C17.1396 7.37637 17.0506 7.40414 16.9603 7.42722C16.8348 7.45928 16.7075 7.48394 16.5791 7.50106C15.7009 7.61286 14.8964 7.21454 14.8964 7.21454C14.6484 7.10363 14.4219 6.94957 14.2277 6.75954C14.097 6.63657 13.9743 6.50526 13.8606 6.36642C13.7512 6.21714 13.6538 6.05944 13.5694 5.89478C13.4966 5.75854 13.4456 5.61034 13.3806 5.46942C13.3286 5.35242 13.3723 5.26142 13.4472 5.17666C13.6647 4.92897 13.9124 4.70955 14.1845 4.52354C14.4129 4.35949 14.6509 4.20946 14.8975 4.07426C15.7442 3.64745 16.6895 3.4543 17.6358 3.51474C17.9231 3.53395 18.208 3.57956 18.487 3.65098C18.6207 3.69362 18.7626 3.71286 18.8957 3.75498C19.0689 3.8127 19.2389 3.88186 19.4074 3.95362C19.552 4.01498 19.695 4.0805 19.8333 4.15434C20.3532 4.43088 20.8184 4.79987 21.2061 5.24322C21.4188 5.49114 21.6164 5.75161 21.7978 6.02322C21.9011 6.19072 21.9905 6.36637 22.0651 6.54842C22.1499 6.73406 22.232 6.92178 22.2996 7.11366C22.3483 7.25993 22.3862 7.40957 22.413 7.56138C22.4733 7.832 22.5184 8.10578 22.5482 8.38142C22.5945 8.90402 22.5576 9.45834 22.4562 9.8369Z" />
<path d="M25.8855 0.900579C25.8792 1.05582 25.8269 1.2057 25.7354 1.33123C25.6438 1.45676 25.5171 1.55229 25.3712 1.6057C25.1845 1.67338 25.0024 1.75275 24.8257 1.84334C24.56 1.97542 24.2979 2.11478 24.0384 2.25934C23.9409 2.31764 23.847 2.38172 23.7571 2.45122C23.5241 2.61814 23.2891 2.7809 23.0613 2.95562C22.8216 3.14126 22.5902 3.33782 22.3557 3.53126C22.2398 3.62642 22.1238 3.7221 22.012 3.82246C21.9709 3.8599 21.9532 3.86354 21.908 3.82246C21.7161 3.65918 21.5206 3.50006 21.3194 3.3477C21.1805 3.2437 21.0308 3.15218 20.8857 3.05598C20.7323 2.95458 20.7297 2.95198 20.8664 2.8277C21.1665 2.56146 21.4639 2.29158 21.7754 2.03834C22.0869 1.7851 22.4041 1.54278 22.7317 1.31294C22.9766 1.14134 23.2387 0.992099 23.4992 0.844939C23.5195 0.833499 23.8476 0.642139 24.3109 0.407619C24.7368 0.191819 24.8949 0.133059 25.1034 0.141379C25.2581 0.147771 25.4087 0.19263 25.5417 0.271899C25.7222 0.379539 25.8017 0.550619 25.8714 0.732619C25.8833 0.787764 25.8881 0.844221 25.8855 0.900579Z" />
</svg>
