<svg width="26" height="26" viewBox="0 0 26 26" fill="#000" xmlns="http://www.w3.org/2000/svg">
<path d="M22.5202 11.3429C22.5073 11.0955 22.4711 10.8498 22.4121 10.6092C22.332 10.301 22.2357 9.9972 22.1235 9.69918C21.9289 9.17959 21.6442 8.69834 21.2826 8.2775C20.847 7.76177 20.3199 7.33091 19.7278 7.00662C19.2525 6.74501 18.7506 6.53478 18.2308 6.3795C17.8974 6.27966 17.5548 6.20218 17.2152 6.1325C16.9032 6.06854 16.5829 6.0155 16.2636 5.98014C15.8393 5.93282 15.4134 5.8933 14.987 5.87614C14.3999 5.8517 13.8118 5.8465 13.2242 5.84026C12.8633 5.83714 12.503 5.85274 12.1416 5.85222C11.3165 5.85218 10.4919 5.89383 9.67104 5.97702C9.53844 5.9895 9.40532 6.00302 9.27584 6.02902C8.97164 6.08726 8.66848 6.14914 8.36688 6.21778C8.08293 6.27425 7.8021 6.34541 7.52552 6.43098C7.17882 6.54256 6.84049 6.67862 6.51308 6.83814C6.16464 7.0115 5.83136 7.2138 5.51676 7.4429C4.9668 7.84928 4.50419 8.36211 4.15644 8.9509C3.80947 9.54284 3.57269 10.1928 3.45756 10.8692C3.39949 11.2088 3.36682 11.5522 3.3598 11.8967C3.34022 12.6388 3.38353 13.3813 3.48928 14.1161C3.547 14.5196 3.61304 14.9252 3.69208 15.3256C3.7602 15.6672 3.84392 16.0063 3.9396 16.3411C4.05088 16.7322 4.16372 17.1243 4.30932 17.5028C4.4852 17.978 4.68692 18.4432 4.91356 18.8964C5.20268 19.4533 5.52872 19.9921 5.85736 20.5277C6.20252 21.0757 6.59136 21.5949 7.02008 22.0804C7.44036 22.5732 7.89419 23.0364 8.37832 23.4667C8.84028 23.8813 9.32948 24.2645 9.84264 24.6138C10.3335 24.9425 10.8379 25.2425 11.386 25.4671C11.9627 25.7037 12.2872 25.7791 12.53 25.8088C12.811 25.8418 13.095 25.8418 13.376 25.8088C13.9387 25.7438 14.3396 25.5659 14.7447 25.3819C15.2439 25.1551 15.5767 24.918 15.9355 24.7033C16.442 24.4001 16.899 24.0273 17.3436 23.6425C17.9985 23.0829 18.5987 22.4623 19.1361 21.7892C19.4595 21.3789 19.7731 20.9572 20.0638 20.5261C20.3238 20.1413 20.5536 19.7367 20.7767 19.3301C20.9644 18.9874 21.1303 18.6317 21.292 18.275C21.4288 17.9729 21.552 17.6645 21.668 17.3531C21.772 17.0707 21.8557 16.7811 21.9404 16.4935C22.0252 16.2059 22.1079 15.9215 22.175 15.6339C22.2389 15.3583 22.2883 15.0791 22.331 14.7988C22.3986 14.361 22.4651 13.9216 22.514 13.4817C22.5443 13.2042 22.5586 12.9252 22.5566 12.646C22.5535 12.2118 22.5452 11.7761 22.5202 11.3429ZM8.12508 12.1749C7.7772 12.1806 7.38668 11.8629 7.38668 11.4147C7.38668 11.0221 7.76056 10.6523 8.13652 10.6768C8.23487 10.6757 8.33245 10.6943 8.42354 10.7314C8.51463 10.7685 8.5974 10.8234 8.66703 10.8929C8.73665 10.9624 8.79172 11.0451 8.82903 11.1361C8.86633 11.2271 8.88511 11.3246 8.88428 11.423C8.87908 11.8473 8.56032 12.1692 8.12508 12.1749ZM10.5498 16.1903C10.1546 16.1945 9.77244 15.831 9.8052 15.441C9.78024 15.0183 10.1786 14.6865 10.5472 14.6886C10.7464 14.6886 10.9374 14.7677 11.0782 14.9085C11.219 15.0493 11.2981 15.2403 11.2981 15.4395C11.2981 15.6386 11.219 15.8296 11.0782 15.9704C10.9374 16.1112 10.7464 16.1903 10.5472 16.1903H10.5498ZM12.9559 20.2131C12.8082 20.2113 12.6645 20.1658 12.5427 20.0824C12.4209 19.9989 12.3266 19.8812 12.2716 19.7442C12.2167 19.6071 12.2036 19.4569 12.2341 19.3124C12.2645 19.168 12.3371 19.0358 12.4427 18.9325C12.5482 18.8293 12.682 18.7597 12.8271 18.7325C12.9722 18.7053 13.1221 18.7217 13.2579 18.7796C13.3937 18.8376 13.5093 18.9345 13.59 19.0581C13.6707 19.1817 13.713 19.3265 13.7114 19.4741C13.707 19.6716 13.6254 19.8594 13.4842 19.9975C13.343 20.1356 13.1534 20.213 12.9559 20.2131ZM12.9652 12.1759C12.569 12.1801 12.2076 11.8255 12.2081 11.4188C12.2081 11.0444 12.5362 10.6638 12.9626 10.6768C13.1606 10.6762 13.3508 10.7543 13.4913 10.8938C13.6318 11.0333 13.7111 11.2229 13.712 11.4209C13.7087 11.6187 13.6292 11.8076 13.4901 11.9483C13.351 12.0889 13.163 12.1705 12.9652 12.1759ZM15.3697 16.1903C14.948 16.1877 14.6105 15.8123 14.6183 15.4311C14.6266 15.0359 14.9766 14.6803 15.3874 14.6891C15.7556 14.6964 16.1357 15.0084 16.1154 15.4545C16.1331 15.8414 15.7732 16.1929 15.3697 16.1903ZM17.7934 12.1749C17.6932 12.1779 17.5934 12.1608 17.4999 12.1246C17.4065 12.0884 17.3212 12.0339 17.2491 11.9642C17.177 11.8945 17.1196 11.8111 17.0803 11.7188C17.041 11.6266 17.0205 11.5275 17.0202 11.4272C17.0198 11.327 17.0395 11.2276 17.0781 11.1351C17.1167 11.0426 17.1734 10.9588 17.245 10.8885C17.3165 10.8183 17.4014 10.7631 17.4946 10.7262C17.5878 10.6893 17.6875 10.6714 17.7877 10.6737C18.172 10.6679 18.561 11.0262 18.5277 11.4178C18.5563 11.8525 18.159 12.1801 17.7934 12.1749Z" />
<path d="M19.1749 3.41893C19.1092 3.69594 19.0222 3.96749 18.9149 4.23117C18.8197 4.46673 18.684 4.68617 18.5717 4.90301C18.3491 4.85101 18.1557 4.80473 17.9633 4.76157C17.6757 4.69813 17.3876 4.63469 17.099 4.57541C16.987 4.55234 16.8738 4.53498 16.76 4.52341C16.3466 4.48337 15.9337 4.43241 15.5188 4.41161C14.9104 4.38041 14.3004 4.36949 13.691 4.35233C13.3057 4.34141 12.9193 4.32477 12.534 4.32893C11.9505 4.33413 11.3671 4.34609 10.7847 4.37313C10.3734 4.39237 9.96206 4.42877 9.55282 4.47713C9.14358 4.52549 8.7359 4.59673 8.32718 4.67369C8.00738 4.73453 7.69174 4.82189 7.3657 4.89989C7.19442 4.64583 7.05472 4.37185 6.9497 4.08401C6.93254 4.03201 6.8457 3.83545 6.77134 3.58793C6.57738 2.96393 6.2295 1.84073 6.58882 0.88861C6.69084 0.627942 6.87127 0.405368 7.10518 0.251609C7.47854 0.00668942 7.86438 0.0436094 8.57834 0.119529C9.05622 0.171529 9.79462 0.257849 10.6739 0.673849C11.0031 0.827812 11.3165 1.01328 11.6099 1.22765C12.1367 1.59477 12.5563 2.07161 12.9037 2.61085C12.9505 2.68417 12.9671 2.68261 13.0139 2.61085C13.34 2.10073 13.7321 1.64521 14.2224 1.29109C14.5467 1.05544 14.8912 0.849054 15.252 0.67437C15.772 0.422689 16.2098 0.346249 16.5941 0.269809C17.1256 0.165809 17.4781 0.153329 17.9825 0.137729C18.4599 0.122649 18.7027 0.146569 18.931 0.296849C19.0908 0.402409 19.2191 0.5492 19.3023 0.721689C19.645 1.44449 19.3387 2.73097 19.1749 3.41893Z" />
</svg>
