<svg width="26" height="26" viewBox="0 0 26 26" fill="#000" xmlns="http://www.w3.org/2000/svg">
<path d="M23.0074 22.1087C23.0039 16.1731 23.0006 10.2378 22.9975 4.3029V4.1703L22.971 4.16406C22.9502 4.1807 22.9304 4.1989 22.9081 4.21606C22.8857 4.23322 22.5878 4.43498 22.4999 4.48698C21.5576 5.03974 20.1308 5.43026 20.1308 5.43026C19.3564 5.62926 18.5699 5.77743 17.7762 5.87382C17.395 5.9201 16.9868 5.9513 16.5251 5.97002C15.8465 5.99758 15.2714 5.98874 15.0966 5.98562C14.6749 5.97782 14.0504 5.96534 13.2345 5.88162C13.064 5.86446 12.6391 5.81818 12.0994 5.73186C12.0994 5.73186 11.532 5.64086 10.9855 5.52386H10.9762C10.7533 5.47463 10.5341 5.41035 10.3199 5.33146C9.73075 5.11722 9.70007 5.14686 9.27991 4.9711C8.93099 4.82394 8.49315 4.61022 8.30751 4.4771C8.17803 4.38402 8.04283 4.29874 7.90815 4.21346H7.90347C7.89396 4.20666 7.88275 4.20261 7.87109 4.20177C7.85942 4.20094 7.84775 4.20334 7.83737 4.20872C7.82698 4.2141 7.81828 4.22225 7.81224 4.23226C7.80619 4.24228 7.80304 4.25377 7.80311 4.26546C7.80311 5.5457 7.80311 6.82577 7.80311 8.10566C7.8038 8.14081 7.81667 8.17462 7.83951 8.20134C7.90087 8.26582 7.96795 8.32406 8.03503 8.3823C8.26331 8.58302 8.49055 8.78374 8.72143 8.98186C9.01055 9.2299 9.30487 9.47274 9.59139 9.72286C9.81031 9.9137 10.0214 10.1134 10.2372 10.3073C10.2856 10.3515 10.2669 10.3791 10.2248 10.4113C10.048 10.5543 9.87375 10.701 9.69643 10.8429C9.68463 10.8514 9.67098 10.857 9.6566 10.8592C9.64222 10.8613 9.62753 10.8601 9.61375 10.8554C9.54426 10.805 9.47743 10.751 9.41355 10.6937C9.17955 10.494 8.94642 10.2935 8.71415 10.0921C8.57583 9.97194 8.44115 9.8461 8.30283 9.72546C8.11841 9.5653 7.93294 9.40584 7.74643 9.24706C7.56807 9.0947 7.38659 8.94598 7.20979 8.79206C6.99711 8.60746 6.79067 8.41662 6.57851 8.2315C6.40795 8.08226 6.23219 7.93822 6.05851 7.79106C5.94203 7.69018 5.82763 7.58878 5.70959 7.48426C5.70258 7.47806 5.69435 7.47339 5.68542 7.47056C5.6765 7.46773 5.66708 7.4668 5.65777 7.46783C5.64847 7.46885 5.63948 7.47182 5.63139 7.47653C5.6233 7.48124 5.61628 7.4876 5.61079 7.49518C5.57439 7.54458 5.53071 7.60438 5.48027 7.66938C5.42983 7.73438 5.31907 7.88102 5.19219 8.0261C5.05388 8.18652 4.90444 8.337 4.74499 8.47642C4.51411 8.6761 4.23799 8.91478 3.82771 9.06558C3.56771 9.16074 3.33995 9.19038 3.31655 9.32246C3.30823 9.37134 3.33215 9.40826 3.38831 9.49458C3.38831 9.49458 3.56667 9.76914 3.76531 10.09C3.83967 10.2101 3.90727 10.3344 3.98111 10.454C4.04351 10.5549 4.11111 10.6531 4.17507 10.753C4.25307 10.8747 4.33107 10.9963 4.40855 11.117C4.47927 11.2272 4.54999 11.338 4.61655 11.4508C4.67687 11.5517 4.72887 11.6588 4.79127 11.7576C4.86407 11.8757 4.94727 11.9869 5.02163 12.1055C5.11367 12.2553 5.19635 12.4113 5.28891 12.561C5.38147 12.7108 5.48287 12.8522 5.57699 13.0004C5.67111 13.1486 5.76627 13.3124 5.86195 13.4684C5.98571 13.6702 6.11051 13.8719 6.23427 14.0732C6.27639 14.1418 6.31487 14.211 6.35751 14.2812C6.43447 14.4023 6.51351 14.5225 6.58891 14.6452C6.68251 14.7934 6.77351 14.9431 6.86659 15.0913C6.93835 15.2047 7.01479 15.3149 7.08447 15.4304C7.14583 15.5313 7.19679 15.6384 7.25867 15.7398C7.33199 15.8578 7.41467 15.9701 7.48799 16.0882C7.64399 16.3373 7.73083 16.4563 7.75683 16.538C7.79063 16.6446 7.78907 16.7117 7.79063 16.9659C7.79063 17.1765 7.80363 17.3871 7.79791 17.5977C7.77191 18.5436 7.80103 21.1436 7.80103 22.3401C7.80103 22.4961 7.80103 22.6521 7.80103 22.8081C7.80103 23.1721 7.82963 23.4399 7.83067 23.454C7.87019 23.9027 10.3267 25.8091 15.4747 25.9245C16.5641 25.9489 21.4214 25.6302 23.0032 23.7847V22.9631C23.0064 22.6781 23.0077 22.3934 23.0074 22.1087ZM19.37 8.90334C19.37 8.47486 19.3658 8.0469 19.37 7.61842C19.3677 7.54567 19.3881 7.47401 19.4284 7.41336C19.4686 7.35271 19.5267 7.30607 19.5946 7.2799C19.824 7.1811 20.0595 7.24766 20.162 7.4593C20.197 7.53745 20.2147 7.62223 20.214 7.70786C20.2176 8.51022 20.2202 9.31258 20.214 10.1149C20.2172 10.2046 20.1943 10.2933 20.1482 10.3703C20.102 10.4472 20.0346 10.5092 19.954 10.5486C19.8276 10.6121 19.564 10.5486 19.4745 10.4384C19.4048 10.3536 19.3679 10.2465 19.3705 10.1368C19.3726 9.72546 19.37 9.31466 19.37 8.90334ZM16.9645 7.74582C16.9645 7.53782 17.03 7.37454 17.2162 7.2669C17.2869 7.22634 17.4871 7.2357 17.5661 7.27054C17.6165 7.29049 17.6617 7.32143 17.6986 7.36111C17.7355 7.40078 17.7631 7.44818 17.7793 7.49986C17.7975 7.55264 17.8077 7.60786 17.8095 7.66366C17.8095 8.16962 17.8095 8.67506 17.8095 9.1805C17.8095 9.63117 17.8095 10.0806 17.8095 10.5289V11.2049C17.8095 11.6749 17.8095 12.1447 17.8095 12.6141C17.8095 13.3185 17.8095 14.0231 17.8095 14.7279C17.8095 14.888 17.7616 15.0175 17.6249 15.1085C17.5042 15.1891 17.3857 15.2213 17.2406 15.1563C17.1666 15.121 17.103 15.0671 17.056 14.9998C17.0187 14.9505 16.9914 14.8943 16.9758 14.8344C16.9602 14.7745 16.9565 14.7122 16.965 14.6509C16.9972 14.3852 16.9645 8.01726 16.9645 7.74582ZM14.82 7.20398C14.9318 7.1343 15.2032 7.19098 15.3062 7.30798C15.3375 7.33775 15.3625 7.37346 15.3798 7.41301C15.3971 7.45256 15.4064 7.49517 15.4071 7.53834C15.4071 7.5841 15.4118 7.62986 15.4118 7.6751C15.4118 8.69153 15.4118 9.70796 15.4118 10.7244C15.4122 10.7765 15.4099 10.8285 15.405 10.8804C15.3954 10.9712 15.354 11.0557 15.288 11.1188C15.222 11.1819 15.1358 11.2196 15.0446 11.2251C14.9573 11.2387 14.8679 11.2229 14.7906 11.1802C14.7132 11.1374 14.6522 11.0702 14.6172 10.9891C14.5934 10.9253 14.584 10.8572 14.5896 10.7894C14.5896 10.2611 14.5896 9.73274 14.5896 9.20442C14.5896 8.6761 14.5948 8.15974 14.587 7.63766C14.5804 7.55067 14.5988 7.46359 14.6401 7.38673C14.6813 7.30988 14.7438 7.24646 14.82 7.20398ZM15.4097 23.5798C15.4097 23.6365 15.4097 23.6942 15.4019 23.7514C15.3881 23.8308 15.3516 23.9044 15.2967 23.9634C15.2419 24.0224 15.1711 24.0642 15.093 24.0837C15.0148 24.1033 14.9327 24.0997 14.8566 24.0735C14.7804 24.0473 14.7135 23.9995 14.664 23.936C14.6216 23.8779 14.5964 23.8091 14.5912 23.7374C14.5813 23.5263 14.586 23.3146 14.5855 23.103V21.1322C14.5855 20.7508 14.5855 20.3695 14.5855 19.9882C14.5855 19.5347 14.5855 19.0823 14.5808 18.6294C14.5778 18.5478 14.5969 18.4669 14.6361 18.3953C14.6753 18.3236 14.7331 18.2638 14.8034 18.2223C14.8554 18.1869 14.9412 18.1895 15.0114 18.1885C15.1134 18.1872 15.2117 18.2262 15.2852 18.2969C15.3587 18.3677 15.4014 18.4645 15.404 18.5665C15.404 18.6117 15.4071 18.6575 15.4071 18.7033C15.4071 19.1248 15.4071 19.5469 15.4071 19.9695C15.4092 21.1727 15.41 22.3762 15.4097 23.5798ZM17.5417 24.0816C17.4065 24.1513 17.1506 24.0645 17.055 23.9256C16.9961 23.8403 16.9654 23.7386 16.9671 23.6349C16.9671 22.4909 16.9671 21.3487 16.9671 20.2081C16.9665 20.1463 16.9748 20.0847 16.9915 20.0251C17.006 19.9726 17.0323 19.924 17.0683 19.8831C17.1043 19.8422 17.1492 19.81 17.1995 19.789C17.2884 19.7495 17.3742 19.7079 17.4938 19.7485C17.5616 19.7698 17.6237 19.806 17.6757 19.8544C17.7277 19.9028 17.7682 19.9622 17.7944 20.0282C17.804 20.0521 17.8093 20.0774 17.81 20.1031C17.81 20.1255 17.81 20.1483 17.81 20.1702C17.81 20.7557 17.81 21.3412 17.81 21.9267C17.81 22.4987 17.8069 23.0749 17.81 23.6485C17.8147 23.857 17.7169 23.9922 17.5412 24.0816H17.5417ZM20.2171 23.6136C20.2171 23.8143 20.1412 23.9963 19.9358 24.0743C19.8322 24.1132 19.7175 24.1096 19.6165 24.0645C19.5638 24.0427 19.5164 24.0099 19.4774 23.9683C19.4385 23.9267 19.409 23.8772 19.3908 23.8232C19.3738 23.7659 19.3673 23.706 19.3716 23.6464C19.3716 22.8269 19.3716 22.0073 19.3716 21.1878V20.3558C19.3716 19.2675 19.3747 18.1796 19.3684 17.0913C19.3638 17.0068 19.3825 16.9228 19.4222 16.8481C19.462 16.7735 19.5215 16.7112 19.5941 16.668C19.6461 16.6347 19.7257 16.6383 19.7933 16.6347C19.8716 16.6293 19.9498 16.6482 20.017 16.6889C20.0842 16.7295 20.1372 16.79 20.1687 16.8619C20.2032 16.9369 20.22 17.0187 20.2181 17.1011C20.2181 18.2594 20.219 19.4171 20.2207 20.5742C20.2197 21.5865 20.2183 22.5991 20.2166 23.6121L20.2171 23.6136Z" />
<path d="M4.953 6.94141C4.87497 7.0921 4.78361 7.2355 4.68 7.36989C4.2562 7.92109 3.73152 8.18161 3.46268 8.31161C3.26272 8.40789 3.05503 8.48721 2.8418 8.54873C2.95789 8.3375 3.09744 8.14004 3.2578 7.96009C3.42869 7.7694 3.62057 7.59862 3.8298 7.45101C4.02017 7.30005 4.23007 7.17551 4.4538 7.08077C4.61446 7.0158 4.78191 6.96905 4.953 6.94141Z" />
<path d="M23.0465 2.62436C23.0465 4.0242 19.6415 5.15936 15.4415 5.15936H15.3515C11.4598 5.14532 8.27118 4.15732 7.87702 2.88904C7.85001 2.8034 7.83616 2.71415 7.83594 2.62436C7.83741 2.47101 7.87632 2.32035 7.9493 2.18548C8.33202 1.45748 9.6497 0.833476 11.4754 0.462196C12.4855 0.261801 13.5101 0.143031 14.5393 0.107036H14.5465C14.9298 0.0950759 15.2496 0.0903959 15.5132 0.0898759C16.7237 0.0877248 17.9319 0.193531 19.1236 0.406036C21.4631 0.838156 23.0465 1.66912 23.0465 2.62436Z" />
<path d="M15.5131 0.09427C15.2494 0.09427 14.9296 0.09947 14.5464 0.11143C14.8397 0.09947 15.1387 0.09375 15.4413 0.09375L15.5131 0.09427Z" />
</svg>
